<svg width="429" height="270" viewBox="0 0 429 270" fill="none" xmlns="http://www.w3.org/2000/svg">
<path d="M428.478 110.892H427.755V91.0174C427.755 89.5068 427.458 88.0111 426.881 86.6155C426.305 85.2199 425.46 83.9519 424.394 82.8837C423.329 81.8156 422.064 80.9683 420.672 80.3903C419.28 79.8122 417.788 79.5147 416.281 79.5147H374.282C372.775 79.5147 371.283 79.8122 369.891 80.3903C368.499 80.9683 367.234 81.8156 366.169 82.8837C365.103 83.9519 364.258 85.2199 363.681 86.6155C363.105 88.0111 362.808 89.5068 362.808 91.0174V200.049C362.808 201.56 363.105 203.056 363.681 204.451C364.258 205.847 365.103 207.115 366.169 208.183C367.234 209.251 368.499 210.098 369.891 210.676C371.283 211.254 372.775 211.552 374.282 211.552H416.281C417.788 211.552 419.28 211.254 420.672 210.676C422.064 210.098 423.329 209.251 424.394 208.183C425.46 207.115 426.305 205.847 426.881 204.451C427.458 203.056 427.755 201.56 427.755 200.049V125.039H428.478V110.892Z" fill="#3F3D56"/>
<path d="M425.313 91.6932V200.567C425.313 202.845 424.41 205.03 422.803 206.641C421.196 208.253 419.016 209.158 416.744 209.158H374.542C373.417 209.158 372.303 208.935 371.264 208.504C370.224 208.072 369.28 207.439 368.484 206.641C367.689 205.843 367.058 204.896 366.628 203.854C366.197 202.812 365.976 201.695 365.977 200.567V91.6932C365.977 89.4157 366.879 87.2315 368.485 85.621C370.092 84.0106 372.27 83.1058 374.542 83.1058H379.662C379.411 83.7254 379.315 84.3974 379.384 85.0627C379.452 85.7281 379.683 86.3663 380.055 86.9214C380.427 87.4765 380.93 87.9314 381.518 88.2462C382.107 88.561 382.764 88.726 383.431 88.7267H407.493C408.161 88.7279 408.819 88.5642 409.408 88.2499C409.998 87.9357 410.501 87.4806 410.874 86.9249C411.247 86.3693 411.477 85.7301 411.544 85.064C411.612 84.3979 411.515 83.7253 411.262 83.1058H416.744C419.016 83.1057 421.195 84.0103 422.802 85.6206C424.409 87.231 425.312 89.4153 425.313 91.6932Z" fill="#F1F1F1"/>
<path d="M417.324 138.846H368.266V152.118H417.324V138.846Z" fill="#16B198"/>
<path d="M419.27 149.776H371.77C371.46 149.775 371.163 149.652 370.944 149.432C370.725 149.213 370.602 148.915 370.602 148.605V136.894C370.602 136.584 370.725 136.286 370.944 136.067C371.163 135.847 371.46 135.724 371.77 135.723H419.27C419.58 135.724 419.877 135.847 420.096 136.067C420.315 136.286 420.438 136.584 420.438 136.894V148.605C420.438 148.915 420.315 149.213 420.096 149.432C419.877 149.652 419.58 149.775 419.27 149.776ZM371.77 136.504C371.666 136.504 371.567 136.545 371.494 136.619C371.421 136.692 371.38 136.791 371.38 136.894V148.605C371.38 148.708 371.421 148.807 371.494 148.881C371.567 148.954 371.666 148.995 371.77 148.995H419.27C419.373 148.995 419.472 148.954 419.545 148.881C419.618 148.807 419.659 148.708 419.659 148.605V136.894C419.659 136.791 419.618 136.692 419.545 136.619C419.472 136.545 419.373 136.504 419.27 136.504H371.77Z" fill="#3F3D56"/>
<path d="M379.946 146.263H373.717V147.043H379.946V146.263Z" fill="#3F3D56"/>
<path d="M388.512 146.263H382.282V147.043H388.512V146.263Z" fill="#3F3D56"/>
<path d="M397.078 146.263H390.848V147.043H397.078V146.263Z" fill="#3F3D56"/>
<path d="M405.643 146.263H399.414V147.043H405.643V146.263Z" fill="#3F3D56"/>
<path d="M414.209 146.263H407.979V147.043H414.209V146.263Z" fill="#3F3D56"/>
<path opacity="0.1" d="M425.313 189.497V200.567C425.313 202.845 424.41 205.03 422.803 206.641C421.196 208.253 419.016 209.158 416.744 209.158H374.542C373.417 209.158 372.303 208.935 371.264 208.504C370.224 208.072 369.28 207.439 368.484 206.641C367.689 205.843 367.058 204.896 366.628 203.854C366.197 202.812 365.976 201.695 365.977 200.567V149.643L425.313 189.497Z" fill="black"/>
<path d="M223.039 179.441H38.877V270H223.039V179.441Z" fill="#F1F1F1"/>
<path opacity="0.1" d="M176.22 270H39.6557C39.4493 269.999 39.2516 269.917 39.1057 269.771C38.9598 269.624 38.8776 269.426 38.877 269.219V180.222C38.8776 180.015 38.9598 179.817 39.1057 179.671C39.2516 179.524 39.4493 179.442 39.6557 179.441H41.3844L176.22 270Z" fill="black"/>
<path d="M409.536 191.542H124.144V192.323H409.536V191.542Z" fill="#3F3D56"/>
<path d="M214.372 1.68539H132.808V0H95.8232V1.68539H13.9225C13.198 1.68539 12.4805 1.82846 11.8111 2.10643C11.1418 2.3844 10.5336 2.79183 10.0212 3.30546C9.50891 3.81908 9.10251 4.42884 8.82524 5.09992C8.54798 5.77101 8.40527 6.49027 8.40527 7.21665V119.188C8.40527 120.655 8.98655 122.061 10.0212 123.099C11.0559 124.136 12.4592 124.719 13.9225 124.719H214.372C215.836 124.719 217.239 124.136 218.274 123.099C219.308 122.061 219.889 120.655 219.889 119.188V7.21665C219.889 6.49027 219.747 5.77101 219.47 5.09992C219.192 4.42884 218.786 3.81908 218.274 3.30546C217.761 2.79183 217.153 2.3844 216.484 2.10643C215.814 1.82846 215.097 1.68539 214.372 1.68539Z" fill="#3F3D56"/>
<path d="M212.491 11.4591H15.8042V122.698H212.491V11.4591Z" fill="#F1F1F1"/>
<path d="M113.979 8.42696C115.093 8.42696 115.997 7.52147 115.997 6.40449C115.997 5.28751 115.093 4.38202 113.979 4.38202C112.865 4.38202 111.962 5.28751 111.962 6.40449C111.962 7.52147 112.865 8.42696 113.979 8.42696Z" fill="#16B198"/>
<path d="M74.3075 52.9716H69.6353C69.3256 52.9713 69.0287 52.8478 68.8098 52.6283C68.5908 52.4087 68.4676 52.1111 68.4673 51.8006V47.1166C68.4676 46.8061 68.5908 46.5084 68.8098 46.2889C69.0287 46.0694 69.3256 45.9459 69.6353 45.9455H74.3075C74.6172 45.9459 74.9141 46.0694 75.1331 46.2889C75.352 46.5084 75.4752 46.8061 75.4756 47.1166V51.8006C75.4752 52.1111 75.352 52.4087 75.1331 52.6283C74.9141 52.8478 74.6172 52.9713 74.3075 52.9716ZM69.6353 46.7262C69.5321 46.7264 69.4332 46.7675 69.3602 46.8407C69.2872 46.9139 69.2461 47.0131 69.246 47.1166V51.8006C69.2461 51.9041 69.2872 52.0033 69.3602 52.0765C69.4332 52.1497 69.5321 52.1908 69.6353 52.191H74.3075C74.4107 52.1908 74.5097 52.1497 74.5827 52.0765C74.6557 52.0033 74.6967 51.9041 74.6969 51.8006V47.1166C74.6967 47.0131 74.6557 46.9139 74.5827 46.8407C74.5097 46.7675 74.4107 46.7264 74.3075 46.7262H69.6353Z" fill="#3F3D56"/>
<path d="M157.628 52.191H68.8564V52.9717H157.628V52.191Z" fill="#3F3D56"/>
<path d="M155.292 73.6596H134.657V79.905H155.292V73.6596Z" fill="#16B198"/>
<path d="M156.85 78.3437H137.772C137.462 78.3433 137.165 78.2198 136.946 78.0003C136.727 77.7808 136.604 77.4831 136.604 77.1726V72.4886C136.604 72.1781 136.727 71.8805 136.946 71.6609C137.165 71.4414 137.462 71.3179 137.772 71.3176H156.85C157.159 71.3179 157.456 71.4414 157.675 71.6609C157.894 71.8805 158.017 72.1781 158.018 72.4886V77.1726C158.017 77.4831 157.894 77.7808 157.675 78.0003C157.456 78.2198 157.159 78.3433 156.85 78.3437ZM137.772 72.0982C137.668 72.0984 137.569 72.1395 137.496 72.2127C137.423 72.2859 137.382 72.3851 137.382 72.4886V77.1726C137.382 77.2761 137.423 77.3753 137.496 77.4485C137.569 77.5217 137.668 77.5629 137.772 77.563H156.85C156.953 77.5629 157.052 77.5217 157.125 77.4485C157.198 77.3753 157.239 77.2761 157.239 77.1726V72.4886C157.239 72.3851 157.198 72.2859 157.125 72.2127C157.052 72.1395 156.953 72.0984 156.85 72.0982H137.772Z" fill="#3F3D56"/>
<path d="M312.978 80.6857H274.043V108.009H312.978V80.6857Z" fill="#16B198"/>
<path d="M316.872 105.863H279.494C279.081 105.862 278.686 105.697 278.394 105.405C278.102 105.112 277.937 104.715 277.937 104.301V78.5388C277.937 78.1249 278.102 77.728 278.394 77.4353C278.686 77.1426 279.081 76.9779 279.494 76.9775H316.872C317.285 76.9779 317.681 77.1425 317.973 77.4353C318.265 77.728 318.429 78.1249 318.429 78.5388V104.301C318.429 104.715 318.265 105.112 317.973 105.405C317.681 105.697 317.285 105.862 316.872 105.863ZM279.494 78.5388V104.301H316.873L316.872 78.5388H279.494Z" fill="#3F3D56"/>
<path d="M312.589 77.563H311.032C311.032 74.1467 309.678 70.8703 307.269 68.4546C304.859 66.0389 301.591 64.6818 298.183 64.6818C294.776 64.6818 291.508 66.0389 289.098 68.4546C286.688 70.8703 285.335 74.1467 285.335 77.563H283.777C283.777 73.7326 285.295 70.0591 287.997 67.3506C290.698 64.6421 294.363 63.1205 298.183 63.1205C302.004 63.1205 305.668 64.6421 308.37 67.3506C311.071 70.0591 312.589 73.7326 312.589 77.563Z" fill="#3F3D56"/>
<path d="M302.077 88.2973C302.077 87.6176 301.901 86.9494 301.565 86.359C301.229 85.7685 300.746 85.2762 300.162 84.9308C299.578 84.5854 298.914 84.3989 298.236 84.3897C297.558 84.3805 296.889 84.5489 296.296 84.8783C295.703 85.2077 295.206 85.6866 294.855 86.2677C294.503 86.8488 294.308 87.5119 294.291 88.1914C294.273 88.8709 294.433 89.5432 294.754 90.1418C295.075 90.7405 295.547 91.2446 296.122 91.6045V95.7941C296.122 96.0655 296.175 96.3342 296.279 96.5849C296.382 96.8356 296.534 97.0634 296.726 97.2553C296.917 97.4472 297.144 97.5994 297.394 97.7033C297.644 97.8071 297.913 97.8606 298.183 97.8606C298.73 97.8606 299.254 97.6429 299.641 97.2553C300.027 96.8678 300.244 96.3422 300.244 95.7941V91.6045C300.805 91.2546 301.267 90.7674 301.588 90.1887C301.908 89.6101 302.077 88.9592 302.077 88.2973Z" fill="#3F3D56"/>
<path d="M116.941 219.646H110.711V220.427H116.941V219.646Z" fill="#3F3D56"/>
<path d="M125.507 219.646H119.278V220.427H125.507V219.646Z" fill="#3F3D56"/>
<path d="M134.073 219.646H127.843V220.427H134.073V219.646Z" fill="#3F3D56"/>
<path d="M142.638 219.646H136.409V220.427H142.638V219.646Z" fill="#3F3D56"/>
<path d="M151.204 219.646H144.975V220.427H151.204V219.646Z" fill="#3F3D56"/>
<path d="M231.215 263.364H48.6111C48.1982 263.364 47.8023 263.199 47.5103 262.906C47.2184 262.614 47.0542 262.217 47.0537 261.803V172.806C47.0542 172.392 47.2184 171.995 47.5103 171.702C47.8023 171.409 48.1982 171.245 48.6111 171.244H231.215C231.628 171.245 232.024 171.409 232.316 171.702C232.608 171.995 232.772 172.392 232.773 172.806V261.803C232.772 262.217 232.608 262.614 232.316 262.907C232.024 263.199 231.628 263.364 231.215 263.364ZM48.6111 172.806V261.803H231.216L231.215 172.806H48.6111Z" fill="#3F3D56"/>
<path d="M56.7873 186.077C58.0775 186.077 59.1234 185.029 59.1234 183.735C59.1234 182.442 58.0775 181.393 56.7873 181.393C55.4971 181.393 54.4512 182.442 54.4512 183.735C54.4512 185.029 55.4971 186.077 56.7873 186.077Z" fill="#3F3D56"/>
<path d="M64.9635 186.077C66.2537 186.077 67.2996 185.029 67.2996 183.735C67.2996 182.442 66.2537 181.393 64.9635 181.393C63.6733 181.393 62.6274 182.442 62.6274 183.735C62.6274 185.029 63.6733 186.077 64.9635 186.077Z" fill="#3F3D56"/>
<path d="M73.1398 186.077C74.43 186.077 75.4759 185.029 75.4759 183.735C75.4759 182.442 74.43 181.393 73.1398 181.393C71.8496 181.393 70.8037 182.442 70.8037 183.735C70.8037 185.029 71.8496 186.077 73.1398 186.077Z" fill="#3F3D56"/>
<path d="M157.239 225.111H104.677C104.367 225.111 104.07 224.987 103.851 224.768C103.632 224.548 103.509 224.25 103.509 223.94V210.668C103.509 210.358 103.632 210.06 103.851 209.841C104.07 209.621 104.367 209.498 104.677 209.497H157.239C157.549 209.498 157.845 209.621 158.064 209.841C158.283 210.06 158.407 210.358 158.407 210.668V223.94C158.407 224.25 158.283 224.548 158.064 224.768C157.845 224.987 157.549 225.111 157.239 225.111ZM104.677 210.278C104.574 210.278 104.475 210.319 104.402 210.393C104.329 210.466 104.288 210.565 104.287 210.668V223.94C104.288 224.043 104.329 224.143 104.402 224.216C104.475 224.289 104.574 224.33 104.677 224.33H157.239C157.342 224.33 157.441 224.289 157.514 224.216C157.587 224.143 157.628 224.043 157.628 223.94V210.668C157.628 210.565 157.587 210.466 157.514 210.393C157.441 210.319 157.342 210.278 157.239 210.278H104.677Z" fill="#3F3D56"/>
<path d="M170.477 225.501C174.347 225.501 177.485 222.356 177.485 218.475C177.485 214.595 174.347 211.449 170.477 211.449C166.606 211.449 163.468 214.595 163.468 218.475C163.468 222.356 166.606 225.501 170.477 225.501Z" fill="#16B198"/>
<path d="M172.813 224.721C171.35 224.721 169.92 224.286 168.703 223.471C167.487 222.656 166.539 221.498 165.979 220.142C165.419 218.787 165.272 217.296 165.558 215.857C165.843 214.419 166.548 213.097 167.582 212.06C168.617 211.023 169.935 210.317 171.37 210.03C172.805 209.744 174.292 209.891 175.644 210.452C176.996 211.014 178.151 211.964 178.964 213.184C179.777 214.404 180.211 215.837 180.211 217.304C180.209 219.271 179.428 221.156 178.042 222.546C176.655 223.936 174.774 224.718 172.813 224.721ZM172.813 210.669C171.504 210.669 170.224 211.058 169.136 211.787C168.047 212.516 167.199 213.552 166.698 214.765C166.197 215.977 166.066 217.312 166.321 218.599C166.577 219.886 167.207 221.068 168.133 221.996C169.059 222.924 170.238 223.556 171.522 223.813C172.806 224.069 174.137 223.937 175.346 223.435C176.556 222.933 177.589 222.082 178.317 220.991C179.044 219.9 179.432 218.617 179.432 217.304C179.43 215.545 178.732 213.858 177.491 212.614C176.25 211.37 174.568 210.67 172.813 210.669Z" fill="#3F3D56"/>
<path d="M172.917 220.074L169.147 216.295L170.249 215.191L172.709 217.657L179.574 207.877L180.847 208.776L172.917 220.074Z" fill="#3F3D56"/>
<path opacity="0.1" d="M168.884 122.698H15.8042V19.8866L168.884 122.698Z" fill="black"/>
<path d="M225.412 120.674H206.217V119.287C206.217 119.251 206.21 119.216 206.196 119.182C206.182 119.149 206.162 119.119 206.136 119.093C206.111 119.067 206.081 119.047 206.047 119.033C206.014 119.02 205.979 119.012 205.943 119.012H199.361C199.325 119.012 199.289 119.02 199.256 119.033C199.223 119.047 199.193 119.067 199.167 119.093C199.142 119.119 199.122 119.149 199.108 119.182C199.094 119.216 199.087 119.251 199.087 119.287V120.674H194.974V119.287C194.974 119.251 194.966 119.216 194.953 119.182C194.939 119.149 194.919 119.119 194.893 119.093C194.868 119.067 194.838 119.047 194.804 119.033C194.771 119.02 194.735 119.012 194.699 119.012H188.118C188.082 119.012 188.046 119.02 188.013 119.033C187.98 119.047 187.949 119.067 187.924 119.093C187.899 119.119 187.878 119.149 187.865 119.182C187.851 119.216 187.844 119.251 187.844 119.287V120.674H183.73V119.287C183.73 119.251 183.723 119.216 183.709 119.182C183.696 119.149 183.675 119.119 183.65 119.093C183.625 119.067 183.594 119.047 183.561 119.033C183.528 119.02 183.492 119.012 183.456 119.012H176.875C176.839 119.012 176.803 119.02 176.77 119.033C176.737 119.047 176.706 119.067 176.681 119.093C176.655 119.119 176.635 119.149 176.621 119.182C176.608 119.216 176.6 119.251 176.6 119.287V120.674H172.487V119.287C172.487 119.251 172.48 119.216 172.466 119.182C172.452 119.149 172.432 119.119 172.407 119.093C172.381 119.067 172.351 119.047 172.318 119.033C172.285 119.02 172.249 119.012 172.213 119.012H165.632C165.596 119.012 165.56 119.02 165.527 119.033C165.493 119.047 165.463 119.067 165.438 119.093C165.412 119.119 165.392 119.149 165.378 119.182C165.364 119.216 165.357 119.251 165.357 119.287V120.674H161.244V119.287C161.244 119.251 161.237 119.216 161.223 119.182C161.209 119.149 161.189 119.119 161.164 119.093C161.138 119.067 161.108 119.047 161.075 119.033C161.041 119.02 161.006 119.012 160.97 119.012H154.388C154.352 119.012 154.317 119.02 154.283 119.033C154.25 119.047 154.22 119.067 154.194 119.093C154.169 119.119 154.149 119.149 154.135 119.182C154.121 119.216 154.114 119.251 154.114 119.287V120.674H150.001V119.287C150.001 119.251 149.994 119.216 149.98 119.182C149.966 119.149 149.946 119.119 149.92 119.093C149.895 119.067 149.865 119.047 149.831 119.033C149.798 119.02 149.763 119.012 149.727 119.012H143.145C143.109 119.012 143.073 119.02 143.04 119.033C143.007 119.047 142.977 119.067 142.951 119.093C142.926 119.119 142.906 119.149 142.892 119.182C142.878 119.216 142.871 119.251 142.871 119.287V120.674H138.758V119.287C138.758 119.251 138.75 119.216 138.737 119.182C138.723 119.149 138.703 119.119 138.677 119.093C138.652 119.067 138.622 119.047 138.588 119.033C138.555 119.02 138.519 119.012 138.483 119.012H86.9291C86.8931 119.012 86.8574 119.02 86.8242 119.033C86.7909 119.047 86.7607 119.067 86.7352 119.093C86.7098 119.119 86.6896 119.149 86.6758 119.182C86.662 119.216 86.6549 119.251 86.6549 119.287V120.674H82.5415V119.287C82.5415 119.251 82.5344 119.216 82.5207 119.182C82.5069 119.149 82.4867 119.119 82.4612 119.093C82.4357 119.067 82.4055 119.047 82.3723 119.033C82.339 119.02 82.3033 119.012 82.2673 119.012H75.6859C75.6499 119.012 75.6143 119.02 75.581 119.033C75.5477 119.047 75.5175 119.067 75.492 119.093C75.4666 119.119 75.4464 119.149 75.4326 119.182C75.4188 119.216 75.4117 119.251 75.4117 119.287V120.674H71.2983V119.287C71.2983 119.251 71.2912 119.216 71.2775 119.182C71.2637 119.149 71.2435 119.119 71.218 119.093C71.1926 119.067 71.1623 119.047 71.1291 119.033C71.0958 119.02 71.0601 119.012 71.0241 119.012H64.4427C64.4067 119.012 64.3711 119.02 64.3378 119.033C64.3045 119.047 64.2743 119.067 64.2488 119.093C64.2234 119.119 64.2032 119.149 64.1894 119.182C64.1756 119.216 64.1685 119.251 64.1685 119.287V120.674H60.0551V119.287C60.0551 119.251 60.048 119.216 60.0343 119.182C60.0205 119.149 60.0003 119.119 59.9748 119.093C59.9494 119.067 59.9191 119.047 59.8859 119.033C59.8526 119.02 59.8169 119.012 59.7809 119.012H53.1995C53.1635 119.012 53.1279 119.02 53.0946 119.033C53.0613 119.047 53.0311 119.067 53.0056 119.093C52.9802 119.119 52.96 119.149 52.9462 119.182C52.9324 119.216 52.9253 119.251 52.9253 119.287V120.674H48.8119V119.287C48.8119 119.251 48.8048 119.216 48.7911 119.182C48.7773 119.149 48.7571 119.119 48.7316 119.093C48.7062 119.067 48.6759 119.047 48.6427 119.033C48.6094 119.02 48.5737 119.012 48.5377 119.012H41.9563C41.9203 119.012 41.8846 119.02 41.8514 119.033C41.8181 119.047 41.7879 119.067 41.7624 119.093C41.7369 119.119 41.7167 119.149 41.703 119.182C41.6892 119.216 41.6821 119.251 41.6821 119.287V120.674H37.5688V119.287C37.5688 119.251 37.5617 119.216 37.5479 119.182C37.5341 119.149 37.5139 119.119 37.4884 119.093C37.463 119.067 37.4327 119.047 37.3995 119.033C37.3662 119.02 37.3305 119.012 37.2945 119.012H30.7131C30.6771 119.012 30.6415 119.02 30.6082 119.033C30.5749 119.047 30.5447 119.067 30.5192 119.093C30.4938 119.119 30.4736 119.149 30.4598 119.182C30.446 119.216 30.4389 119.251 30.4389 119.287V120.674H26.3255V119.287C26.3255 119.251 26.3184 119.216 26.3047 119.182C26.2909 119.149 26.2707 119.119 26.2452 119.093C26.2198 119.067 26.1895 119.047 26.1563 119.033C26.123 119.02 26.0873 119.012 26.0513 119.012H19.4699C19.4339 119.012 19.3983 119.02 19.365 119.033C19.3317 119.047 19.3015 119.067 19.276 119.093C19.2506 119.119 19.2304 119.149 19.2166 119.182C19.2028 119.216 19.1957 119.251 19.1957 119.287V120.674H6.58138C5.7171 120.674 4.86129 120.845 4.0628 121.176C3.26431 121.508 2.53878 121.994 1.92764 122.607C1.3165 123.219 0.831722 123.947 0.500977 124.747C0.170231 125.548 -5.11299e-07 126.406 0 127.272V130.256C4.13046e-06 132.006 0.6934 133.684 1.92765 134.921C3.1619 136.159 4.83589 136.854 6.58138 136.854H225.412C226.277 136.854 227.133 136.683 227.931 136.351C228.73 136.02 229.455 135.534 230.066 134.921C230.677 134.308 231.162 133.581 231.493 132.781C231.824 131.98 231.994 131.122 231.994 130.256V127.272C231.994 126.406 231.824 125.548 231.493 124.747C231.162 123.947 230.677 123.219 230.066 122.606C229.455 121.994 228.73 121.508 227.931 121.176C227.133 120.845 226.277 120.674 225.412 120.674Z" fill="#3F3D56"/>
<path d="M165.415 84.9794H62.627C62.3173 84.9791 62.0204 84.8556 61.8015 84.6361C61.5825 84.4165 61.4593 84.1189 61.459 83.8084V40.8711C61.4593 40.5607 61.5825 40.263 61.8015 40.0435C62.0204 39.8239 62.3173 39.7004 62.627 39.7001H165.415C165.725 39.7004 166.022 39.8239 166.241 40.0435C166.46 40.263 166.583 40.5607 166.583 40.8711V83.8084C166.583 84.1189 166.46 84.4165 166.241 84.6361C166.022 84.8556 165.725 84.9791 165.415 84.9794ZM62.627 40.4808C62.5238 40.4809 62.4249 40.5221 62.3519 40.5953C62.2789 40.6684 62.2378 40.7676 62.2377 40.8711V83.8084C62.2378 83.9119 62.2789 84.0111 62.3519 84.0843C62.4249 84.1574 62.5238 84.1986 62.627 84.1987H165.415C165.518 84.1986 165.617 84.1574 165.69 84.0843C165.763 84.0111 165.804 83.9119 165.804 83.8084V40.8711C165.804 40.7676 165.763 40.6684 165.69 40.5953C165.617 40.5221 165.518 40.4809 165.415 40.4808H62.627Z" fill="#3F3D56"/>
<path d="M74.3075 64.6818H69.6353C69.3256 64.6815 69.0287 64.558 68.8098 64.3385C68.5908 64.1189 68.4676 63.8213 68.4673 63.5108V58.8267C68.4676 58.5163 68.5908 58.2186 68.8098 57.9991C69.0287 57.7795 69.3256 57.6561 69.6353 57.6557H74.3075C74.6172 57.6561 74.9141 57.7795 75.1331 57.9991C75.352 58.2186 75.4752 58.5163 75.4756 58.8267V63.5108C75.4752 63.8213 75.352 64.1189 75.1331 64.3385C74.9141 64.558 74.6172 64.6815 74.3075 64.6818ZM69.6353 58.4364C69.5321 58.4365 69.4332 58.4777 69.3602 58.5509C69.2872 58.624 69.2461 58.7232 69.246 58.8267V63.5108C69.2461 63.6143 69.2872 63.7135 69.3602 63.7867C69.4332 63.8598 69.5321 63.901 69.6353 63.9011H74.3075C74.4107 63.901 74.5097 63.8598 74.5827 63.7867C74.6557 63.7135 74.6967 63.6143 74.6969 63.5108V58.8267C74.6967 58.7232 74.6557 58.624 74.5827 58.5509C74.5097 58.4777 74.4107 58.4365 74.3075 58.4364H69.6353Z" fill="#3F3D56"/>
<path d="M157.628 63.9011H68.8564V64.6818H157.628V63.9011Z" fill="#3F3D56"/>
<path d="M388.512 105.277H103.12V106.058H388.512V105.277Z" fill="#3F3D56"/>
<path d="M103.119 110.742C106.13 110.742 108.57 108.295 108.57 105.277C108.57 102.259 106.13 99.8123 103.119 99.8123C100.109 99.8123 97.6685 102.259 97.6685 105.277C97.6685 108.295 100.109 110.742 103.119 110.742Z" fill="#3F3D56"/>
<path d="M388.512 110.351C390.877 110.351 392.795 108.429 392.795 106.058C392.795 103.686 390.877 101.764 388.512 101.764C386.146 101.764 384.229 103.686 384.229 106.058C384.229 108.429 386.146 110.351 388.512 110.351Z" fill="#3F3D56"/>
<path d="M409.537 196.616C411.902 196.616 413.82 194.694 413.82 192.323C413.82 189.951 411.902 188.029 409.537 188.029C407.171 188.029 405.254 189.951 405.254 192.323C405.254 194.694 407.171 196.616 409.537 196.616Z" fill="#3F3D56"/>
<path d="M125.313 196.616C127.678 196.616 129.595 194.694 129.595 192.323C129.595 189.951 127.678 188.029 125.313 188.029C122.947 188.029 121.03 189.951 121.03 192.323C121.03 194.694 122.947 196.616 125.313 196.616Z" fill="#3F3D56"/>
</svg>
