<svg width="354" height="284" viewBox="0 0 354 284" fill="none" xmlns="http://www.w3.org/2000/svg">
<path d="M177.272 240.969C153.3 240.969 130.07 232.657 111.54 217.449C93.0091 202.241 80.3249 181.079 75.6483 157.568C70.9716 134.056 74.5919 109.651 85.8922 88.5095C97.1926 67.3682 115.474 50.7991 137.621 41.6255C159.768 32.4518 184.411 31.2412 207.351 38.1999C230.29 45.1587 250.108 59.8561 263.426 79.788C276.744 99.72 282.739 123.653 280.389 147.51C278.039 171.366 267.49 193.67 250.54 210.621C240.94 220.272 229.522 227.924 216.946 233.133C204.369 238.343 190.885 241.006 177.272 240.969ZM177.272 34.5345C120.578 34.5345 74.4536 80.659 74.4536 137.353C74.4536 194.048 120.578 240.172 177.272 240.172C233.967 240.172 280.091 194.048 280.091 137.353C280.091 80.659 233.967 34.5345 177.272 34.5345Z" fill="#CCCCCC"/>
<path d="M215.746 256.507V152.121H138.053V256.507H215.746Z" fill="#2F2E41"/>
<path d="M229.093 148.933H124.706V190.369H229.093V148.933Z" fill="#3F3D56"/>
<path d="M229.093 195.15H124.706V236.586H229.093V195.15Z" fill="#3F3D56"/>
<path d="M229.093 241.367H124.706V282.803H229.093V241.367Z" fill="#3F3D56"/>
<path d="M229.093 166.502H124.706V172.877H229.093V166.502Z" fill="#16B198"/>
<path d="M229.093 212.719H124.706V219.094H229.093V212.719Z" fill="#16B198"/>
<path d="M229.093 258.936H124.706V265.311H229.093V258.936Z" fill="#16B198"/>
<path d="M208.773 157.3C210.094 157.3 211.164 156.23 211.164 154.91C211.164 153.589 210.094 152.519 208.773 152.519C207.453 152.519 206.383 153.589 206.383 154.91C206.383 156.23 207.453 157.3 208.773 157.3Z" fill="#16B198"/>
<path d="M217.14 157.3C218.461 157.3 219.531 156.23 219.531 154.91C219.531 153.589 218.461 152.519 217.14 152.519C215.82 152.519 214.75 153.589 214.75 154.91C214.75 156.23 215.82 157.3 217.14 157.3Z" fill="#16B198"/>
<path d="M225.507 157.3C226.827 157.3 227.898 156.23 227.898 154.91C227.898 153.589 226.827 152.519 225.507 152.519C224.187 152.519 223.117 153.589 223.117 154.91C223.117 156.23 224.187 157.3 225.507 157.3Z" fill="#16B198"/>
<path d="M208.773 202.72C210.094 202.72 211.164 201.65 211.164 200.33C211.164 199.01 210.094 197.939 208.773 197.939C207.453 197.939 206.383 199.01 206.383 200.33C206.383 201.65 207.453 202.72 208.773 202.72Z" fill="#16B198"/>
<path d="M217.14 202.72C218.461 202.72 219.531 201.65 219.531 200.33C219.531 199.01 218.461 197.939 217.14 197.939C215.82 197.939 214.75 199.01 214.75 200.33C214.75 201.65 215.82 202.72 217.14 202.72Z" fill="#16B198"/>
<path d="M225.507 202.72C226.827 202.72 227.898 201.65 227.898 200.33C227.898 199.01 226.827 197.939 225.507 197.939C224.187 197.939 223.117 199.01 223.117 200.33C223.117 201.65 224.187 202.72 225.507 202.72Z" fill="#16B198"/>
<path d="M208.773 248.141C210.094 248.141 211.164 247.07 211.164 245.75C211.164 244.43 210.094 243.359 208.773 243.359C207.453 243.359 206.383 244.43 206.383 245.75C206.383 247.07 207.453 248.141 208.773 248.141Z" fill="#16B198"/>
<path d="M217.14 248.141C218.461 248.141 219.531 247.07 219.531 245.75C219.531 244.43 218.461 243.359 217.14 243.359C215.82 243.359 214.75 244.43 214.75 245.75C214.75 247.07 215.82 248.141 217.14 248.141Z" fill="#16B198"/>
<path d="M225.507 248.141C226.827 248.141 227.898 247.07 227.898 245.75C227.898 244.43 226.827 243.359 225.507 243.359C224.187 243.359 223.117 244.43 223.117 245.75C223.117 247.07 224.187 248.141 225.507 248.141Z" fill="#16B198"/>
<path d="M353.799 282.405H0V283.202H353.799V282.405Z" fill="#3F3D56"/>
<path d="M96.37 107.998V182.102C96.3697 183.652 95.7537 185.139 94.6575 186.235C93.5612 187.331 92.0745 187.947 90.5242 187.947H61.7269C60.1762 187.948 58.6889 187.332 57.5922 186.236C56.4955 185.139 55.8791 183.652 55.8787 182.102V107.998C55.8791 106.448 56.4955 104.961 57.5922 103.864C58.6889 102.768 60.1762 102.152 61.7269 102.153H65.2202C65.0487 102.574 64.9834 103.032 65.0301 103.485C65.0768 103.938 65.234 104.372 65.488 104.75C65.742 105.128 66.0849 105.438 66.4867 105.652C66.8884 105.867 67.3367 105.979 67.792 105.98H84.2104C84.6658 105.979 85.114 105.867 85.5158 105.652C85.9175 105.438 86.2605 105.128 86.5144 104.75C86.7684 104.372 86.9257 103.938 86.9724 103.485C87.0191 103.032 86.9538 102.574 86.7822 102.153H90.5242C92.0745 102.153 93.5612 102.769 94.6575 103.865C95.7537 104.961 96.3697 106.448 96.37 107.998Z" fill="#E6E6E6"/>
<path d="M94.4517 116.304H57.7969V167.302H94.4517V116.304Z" fill="white"/>
<path d="M82.8343 151.372H68.2043V152.208H82.8343V151.372Z" fill="#E6E6E6"/>
<path d="M90.827 154.441H68.1897V155.277H90.827V154.441Z" fill="#16B198"/>
<path d="M85.9547 157.333H68.1897V158.169H85.9547V157.333Z" fill="#E6E6E6"/>
<path d="M78.6397 160.225H68.1897V161.061H78.6397V160.225Z" fill="#E6E6E6"/>
<path d="M83.8647 163.117H68.1897V163.953H83.8647V163.117Z" fill="#E6E6E6"/>
<path d="M63.2413 151.131H61.5693V152.803H63.2413V151.131Z" fill="#E6E6E6"/>
<path d="M63.2413 154.023H61.5693V155.695H63.2413V154.023Z" fill="#16B198"/>
<path d="M63.2413 156.915H61.5693V158.587H63.2413V156.915Z" fill="#E6E6E6"/>
<path d="M63.2413 159.807H61.5693V161.479H63.2413V159.807Z" fill="#E6E6E6"/>
<path d="M63.2413 162.699H61.5693V164.371H63.2413V162.699Z" fill="#E6E6E6"/>
<path d="M83.5685 122.678H68.8279V137.419H83.5685V122.678Z" fill="#E6E6E6"/>
<path d="M225.903 0.055542H127.938V62.7971H225.903V0.055542Z" fill="#E6E6E6"/>
<path d="M216.546 17.6084H135.323V48.301H216.546V17.6084Z" fill="white"/>
<path d="M169.615 22.9259H150.121V24.0399H169.615V22.9259Z" fill="#E6E6E6"/>
<path d="M180.265 27.016H150.102V28.1299H180.265V27.016Z" fill="#16B198"/>
<path d="M173.773 30.8694H150.102V31.9833H173.773V30.8694Z" fill="#E6E6E6"/>
<path d="M164.026 34.7228H150.102V35.8367H164.026V34.7228Z" fill="#E6E6E6"/>
<path d="M170.988 38.5762H150.102V39.6901H170.988V38.5762Z" fill="#E6E6E6"/>
<path d="M143.509 22.6056H141.281V24.8335H143.509V22.6056Z" fill="#E6E6E6"/>
<path d="M143.509 26.459H141.281V28.6869H143.509V26.459Z" fill="#16B198"/>
<path d="M143.509 30.3124H141.281V32.5402H143.509V30.3124Z" fill="#E6E6E6"/>
<path d="M143.509 34.1658H141.281V36.3937H143.509V34.1658Z" fill="#E6E6E6"/>
<path d="M143.509 38.0192H141.281V40.247H143.509V38.0192Z" fill="#E6E6E6"/>
<path d="M212.56 21.4541H192.616V41.3986H212.56V21.4541Z" fill="#E6E6E6"/>
<path d="M225.861 0H127.896V4.16194H225.861V0Z" fill="#16B198"/>
<path d="M130.989 2.96323C131.45 2.96323 131.824 2.58919 131.824 2.12779C131.824 1.6664 131.45 1.29236 130.989 1.29236C130.527 1.29236 130.153 1.6664 130.153 2.12779C130.153 2.58919 130.527 2.96323 130.989 2.96323Z" fill="white"/>
<path d="M133.917 2.96323C134.378 2.96323 134.752 2.58919 134.752 2.12779C134.752 1.6664 134.378 1.29236 133.917 1.29236C133.456 1.29236 133.082 1.6664 133.082 2.12779C133.082 2.58919 133.456 2.96323 133.917 2.96323Z" fill="white"/>
<path d="M136.845 2.96323C137.306 2.96323 137.68 2.58919 137.68 2.12779C137.68 1.6664 137.306 1.29236 136.845 1.29236C136.383 1.29236 136.009 1.6664 136.009 2.12779C136.009 2.58919 136.383 2.96323 136.845 2.96323Z" fill="white"/>
<path d="M291.505 117.458H267.599V129.809H291.505V117.458Z" fill="#E6E6E6"/>
<path d="M291.505 161.683H267.599V174.034H291.505V161.683Z" fill="#E6E6E6"/>
<path d="M279.552 165.667C290.554 165.667 299.473 156.748 299.473 145.746C299.473 134.744 290.554 125.825 279.552 125.825C268.55 125.825 259.631 134.744 259.631 145.746C259.631 156.748 268.55 165.667 279.552 165.667Z" fill="#E6E6E6"/>
<path d="M279.552 161.284C288.134 161.284 295.091 154.328 295.091 145.746C295.091 137.164 288.134 130.207 279.552 130.207C270.97 130.207 264.014 137.164 264.014 145.746C264.014 154.328 270.97 161.284 279.552 161.284Z" fill="white"/>
<path d="M286.515 141.489H274.464V142.177H286.515V141.489Z" fill="#E2E2E2"/>
<path d="M293.098 144.017H274.452V144.706H293.098V144.017Z" fill="#16B198"/>
<path d="M289.085 146.399H274.452V147.088H289.085V146.399Z" fill="#E2E2E2"/>
<path d="M283.06 148.781H274.452V149.47H283.06V148.781Z" fill="#E2E2E2"/>
<path d="M287.363 151.164H274.452V151.852H287.363V151.164Z" fill="#E2E2E2"/>
<path d="M270.376 141.291H268.999V142.668H270.376V141.291Z" fill="#E2E2E2"/>
<path d="M270.376 143.673H268.999V145.05H270.376V143.673Z" fill="#16B198"/>
<path d="M270.376 146.055H268.999V147.432H270.376V146.055Z" fill="#E2E2E2"/>
<path d="M270.376 148.437H268.999V149.814H270.376V148.437Z" fill="#E2E2E2"/>
<path d="M270.376 150.819H268.999V152.196H270.376V150.819Z" fill="#E2E2E2"/>
</svg>
