<svg width="476" height="271" viewBox="0 0 476 271" fill="none" xmlns="http://www.w3.org/2000/svg">
<g clip-path="url(#clip0_94_564)">
<path d="M78.2407 123.22V47.0597C78.2407 45.972 78.6743 44.929 79.4461 44.1599C80.2178 43.3908 81.2645 42.9587 82.356 42.9587C83.4474 42.9587 84.4941 43.3908 85.2659 44.1599C86.0376 44.929 86.4712 45.972 86.4712 47.0597V123.22C86.4712 124.308 86.0376 125.351 85.2659 126.12C84.4941 126.889 83.4474 127.321 82.356 127.321C81.2645 127.321 80.2178 126.889 79.4461 126.12C78.6743 125.351 78.2407 124.308 78.2407 123.22Z" fill="#F0F0F0"/>
<path d="M68.3936 123.22V47.0597C68.3936 45.972 68.8271 44.929 69.5989 44.1599C70.3706 43.3908 71.4174 42.9587 72.5088 42.9587C73.6002 42.9587 74.6469 43.3908 75.4187 44.1599C76.1904 44.929 76.624 45.972 76.624 47.0597V123.22C76.624 124.308 76.1904 125.351 75.4187 126.12C74.6469 126.889 73.6002 127.321 72.5088 127.321C71.4174 127.321 70.3706 126.889 69.5989 126.12C68.8271 125.351 68.3936 124.308 68.3936 123.22Z" fill="#F0F0F0"/>
<path d="M58.5464 123.22V47.0597C58.5464 45.972 58.98 44.929 59.7517 44.1599C60.5235 43.3908 61.5702 42.9587 62.6616 42.9587C63.753 42.9587 64.7998 43.3908 65.5715 44.1599C66.3433 44.929 66.7768 45.972 66.7768 47.0597V123.22C66.7768 124.308 66.3433 125.351 65.5715 126.12C64.7998 126.889 63.753 127.321 62.6616 127.321C61.5702 127.321 60.5235 126.889 59.7517 126.12C58.98 125.351 58.5464 124.308 58.5464 123.22Z" fill="#F0F0F0"/>
<path d="M430.331 244.863C428.673 244.864 427.028 244.58 425.469 244.022L425.228 243.936L425.339 243.405C422.545 237.781 423.522 230.075 427.839 223.74C431.764 217.98 437.733 213.793 442.998 210.099C443.667 209.63 444.46 209.372 445.277 209.356C446.094 209.34 446.897 209.569 447.583 210.011C448.269 210.454 448.806 211.091 449.125 211.841C449.445 212.59 449.532 213.418 449.376 214.217L447.493 223.845C446.134 230.79 444.517 237.364 439.723 241.463C437.089 243.659 433.765 244.862 430.331 244.863Z" fill="#E6E6E6"/>
<path d="M442.663 261.5C440.839 261.489 439.047 261.024 437.449 260.148C435.851 259.272 434.498 258.011 433.513 256.482L433.376 256.27L433.702 255.984C434.544 251.403 438.507 247.323 443.827 245.567C448.663 243.972 454.001 244.233 458.707 244.463C459.329 244.493 459.928 244.706 460.428 245.076C460.928 245.446 461.307 245.955 461.516 246.54C461.726 247.124 461.756 247.757 461.604 248.359C461.452 248.961 461.123 249.504 460.661 249.919L455.365 254.683C451.517 258.144 447.679 261.268 443.05 261.492C442.92 261.497 442.792 261.5 442.663 261.5Z" fill="#E6E6E6"/>
<path d="M426.228 266.592C425.446 260.789 424.642 254.911 425.19 249.046C425.677 243.837 427.237 238.749 430.413 234.578C432.091 232.375 434.143 230.481 436.475 228.982C437.081 228.593 437.639 229.571 437.035 229.959C432.992 232.574 429.883 236.397 428.151 240.879C426.217 245.891 425.906 251.354 426.24 256.678C426.441 259.898 426.868 263.097 427.299 266.291C427.333 266.434 427.313 266.585 427.241 266.714C427.169 266.843 427.051 266.94 426.911 266.987C426.84 267.006 426.766 267.01 426.693 267.001C426.621 266.991 426.551 266.967 426.487 266.931C426.424 266.894 426.368 266.845 426.324 266.787C426.279 266.729 426.247 266.662 426.228 266.592Z" fill="#F2F2F2"/>
<path d="M424.018 269.928C427.782 263.143 432.148 255.602 439.949 253.192C442.115 252.524 444.391 252.285 446.65 252.487C447.361 252.55 447.184 253.667 446.473 253.604C442.68 253.287 438.896 254.307 435.78 256.486C432.765 258.577 430.417 261.484 428.43 264.567C427.213 266.455 426.123 268.423 425.032 270.388C424.684 271.017 423.665 270.563 424.018 269.928Z" fill="#F2F2F2"/>
<path d="M422.324 269.828L426.125 269.915L403.209 147.919L399.408 148.633L405.392 180.28H386.113L392.097 148.633L388.297 147.919L365.572 269.915L369.181 269.828L381.129 206.643H410.377L422.324 269.828ZM382.015 201.957L385.227 184.967H406.278L409.491 201.957H382.015Z" fill="#CACACA"/>
<path d="M256.372 125.163V85.0996C256.372 83.9101 258.218 82.9424 260.487 82.9424C262.756 82.9424 264.602 83.9101 264.602 85.0996V125.163C264.602 126.353 262.756 127.32 260.487 127.32C258.218 127.32 256.372 126.353 256.372 125.163Z" fill="#F0F0F0"/>
<path d="M246.524 125.163V85.0996C246.524 83.9101 248.37 82.9424 250.64 82.9424C252.909 82.9424 254.755 83.9101 254.755 85.0996V125.163C254.755 126.353 252.909 127.32 250.64 127.32C248.37 127.32 246.524 126.353 246.524 125.163Z" fill="#F0F0F0"/>
<path d="M236.677 125.163V85.0996C236.677 83.9101 238.523 82.9424 240.792 82.9424C243.062 82.9424 244.908 83.9101 244.908 85.0996V125.163C244.908 126.353 243.062 127.32 240.792 127.32C238.523 127.32 236.677 126.353 236.677 125.163Z" fill="#F0F0F0"/>
<path d="M319.519 95.7005C319.501 95.5788 319.457 95.4622 319.391 95.3584C319.324 95.2546 319.236 95.1659 319.133 95.0981L288.109 74.6878C288.576 74.4934 288.967 74.152 289.222 73.7158C289.532 73.1771 289.616 72.5381 289.454 71.9383C289.293 71.3385 288.9 70.8267 288.362 70.5146L285.816 69.05C285.275 68.7411 284.634 68.6579 284.032 68.8186C283.43 68.9794 282.917 69.3709 282.604 69.9078C282.435 70.2028 282.333 70.5314 282.306 70.8702L259.911 56.1371C259.159 54.3219 258.019 52.692 256.57 51.3608C255.121 50.0297 253.398 49.0294 251.521 48.4296V41.9335H243.291V48.4296C240.56 49.2998 238.178 51.012 236.487 53.3193C234.796 55.6266 233.885 58.4095 233.885 61.2665V63.024H242.115C242.115 64.4224 242.673 65.7635 243.665 66.7524C244.657 67.7412 246.003 68.2967 247.406 68.2967C248.809 68.2967 250.155 67.7412 251.148 66.7524C252.14 65.7635 252.697 64.4224 252.697 63.024H260.928V61.2665C260.927 60.424 260.847 59.5834 260.69 58.7556L317.344 96.0272L293.81 124.541C293.627 124.54 293.446 124.538 293.262 124.538C291.384 124.538 289.565 124.582 287.831 124.658C287.936 124.369 287.981 124.061 287.965 123.754C287.931 123.134 287.652 122.553 287.189 122.137C286.726 121.721 286.117 121.505 285.495 121.536L282.559 121.688C281.937 121.722 281.354 122 280.937 122.462C280.52 122.923 280.303 123.53 280.333 124.15C280.355 124.517 280.464 124.873 280.652 125.188C275.461 125.738 272.098 126.496 272.098 126.881C272.098 127.513 281.13 126.912 292.434 126.883C292.486 127.029 292.576 127.159 292.695 127.26C292.814 127.36 292.957 127.427 293.111 127.454C293.264 127.481 293.422 127.467 293.569 127.413C293.715 127.359 293.844 127.267 293.943 127.147L294.16 126.883C305.432 126.914 314.426 127.512 314.426 126.881C314.426 126.287 306.429 124.808 296.068 124.571L319.329 96.3896C319.407 96.2945 319.465 96.1839 319.497 96.0652C319.53 95.9465 319.538 95.8223 319.519 95.7005Z" fill="#CCCCCC"/>
<path d="M320.368 270.121H247.931C246.467 270.12 245.063 269.539 244.028 268.508C242.993 267.476 242.411 266.078 242.409 264.619V146.151C242.408 144.848 241.888 143.598 240.963 142.676C240.038 141.755 238.784 141.236 237.476 141.235H68.0366C66.7286 141.236 65.4746 141.755 64.5497 142.676C63.6248 143.598 63.1045 144.848 63.103 146.151V264.619C63.1013 266.078 62.5191 267.476 61.484 268.508C60.4489 269.539 59.0454 270.12 57.5815 270.121H55.1031C53.6391 270.12 52.2357 269.539 51.2006 268.508C50.1655 267.476 49.5832 266.078 49.5815 264.619V139.77C49.5855 136.275 50.9803 132.925 53.4601 130.454C55.9399 127.983 59.3021 126.593 62.8091 126.589H312.662C316.169 126.593 319.531 127.983 322.011 130.454C324.491 132.925 325.886 136.276 325.89 139.77V264.619C325.888 266.078 325.306 267.476 324.271 268.508C323.235 269.539 321.832 270.12 320.368 270.121Z" fill="#E4E4E4"/>
<path d="M325.596 157.346H242.703V160.861H325.596V157.346Z" fill="white"/>
<path d="M325.596 204.799H242.703V208.314H325.596V204.799Z" fill="white"/>
<path d="M174.087 126.01L171.704 125.01L170.07 113.109H148.306L146.535 124.962L144.403 126.024C144.301 126.075 144.22 126.158 144.171 126.261C144.123 126.364 144.111 126.48 144.137 126.591C144.163 126.701 144.226 126.8 144.316 126.87C144.405 126.941 144.516 126.979 144.63 126.979H173.89C174.007 126.979 174.12 126.939 174.211 126.865C174.301 126.792 174.363 126.689 174.386 126.575C174.41 126.461 174.392 126.342 174.338 126.239C174.283 126.136 174.194 126.055 174.087 126.01Z" fill="#E6E6E6"/>
<path d="M212.763 114.692H105.853C105.292 114.691 104.754 114.468 104.358 114.072C103.962 113.677 103.739 113.141 103.739 112.582V97.5583H214.876V112.582C214.876 113.141 214.653 113.677 214.257 114.072C213.861 114.468 213.323 114.691 212.763 114.692Z" fill="#CCCCCC"/>
<path d="M214.988 104.659H103.642V40.377C103.642 39.7024 103.912 39.0557 104.39 38.5787C104.869 38.1016 105.518 37.8333 106.195 37.8326H212.434C213.111 37.8333 213.76 38.1017 214.239 38.5787C214.717 39.0557 214.987 39.7024 214.988 40.377V104.659Z" fill="#3F3D56"/>
<path d="M208.337 99.9931H110.292C109.77 99.9925 109.269 99.7857 108.9 99.418C108.531 99.0502 108.324 98.5516 108.323 98.0315V44.4597C108.324 43.9396 108.531 43.441 108.9 43.0732C109.269 42.7055 109.77 42.4986 110.292 42.498H208.337C208.859 42.4986 209.359 42.7055 209.728 43.0732C210.097 43.441 210.305 43.9396 210.306 44.4597V98.0315C210.305 98.5516 210.097 99.0502 209.728 99.418C209.359 99.7857 208.859 99.9925 208.337 99.9931Z" fill="white"/>
<path d="M318.248 48.648C319.186 48.5133 320.142 48.5852 321.049 48.8586C321.956 49.132 322.792 49.6003 323.497 50.2304C324.203 50.8605 324.762 51.6372 325.134 52.5056C325.506 53.3741 325.682 54.3133 325.65 55.2571L347.147 63.5026L337.407 70.4368L318.487 61.5436C316.9 61.3855 315.426 60.6526 314.344 59.4837C313.263 58.3149 312.649 56.7913 312.62 55.2018C312.59 53.6122 313.147 52.0671 314.184 50.8592C315.221 49.6513 316.667 48.8645 318.248 48.648Z" fill="#9E616A"/>
<path d="M399.869 44.6003L403.506 51.1892C402.627 55.3683 400.356 59.1283 397.061 61.858C391.493 66.5375 362.38 83.9658 362.38 83.9658L325.627 65.5788L332.056 57.0646L360.911 66.7012C371.615 56.6287 384.532 49.1872 398.633 44.97L399.869 44.6003Z" fill="#E4E4E4"/>
<path d="M393.107 153.629C408.948 153.629 421.79 149.459 421.79 144.315C421.79 139.172 408.948 135.002 393.107 135.002C377.265 135.002 364.423 139.172 364.423 144.315C364.423 149.459 377.265 153.629 393.107 153.629Z" fill="#CACACA"/>
<path d="M328.758 261.935L321.141 259.838L325.637 229.562L336.879 232.659L328.758 261.935Z" fill="#9E616A"/>
<path d="M328.659 269.828L304.1 263.063L304.186 262.753C304.887 260.227 306.566 258.081 308.854 256.789C311.142 255.496 313.852 255.162 316.387 255.86L316.388 255.86L331.388 259.993L328.659 269.828Z" fill="#2F2E41"/>
<path d="M306.675 262.034L299.445 258.853L308.318 229.553L318.987 234.248L306.675 262.034Z" fill="#9E616A"/>
<path d="M305.424 269.828L282.115 259.571L282.245 259.278C283.307 256.88 285.282 255.001 287.735 254.054C290.188 253.107 292.917 253.17 295.323 254.228L295.324 254.229L309.56 260.493L305.424 269.828Z" fill="#2F2E41"/>
<path d="M415.43 121.544C415.43 121.544 419.262 133.374 395.753 148.335L365.476 178.4L334.016 253.392L315.339 245.048L319.002 235.304L321.46 228.766L322.718 225.42L324.066 221.835L344.061 168.648L360.857 139.342L361.344 123.44L365.476 112.23L395.448 101.632L415.43 121.544Z" fill="#2F2E41"/>
<path d="M400.145 122.13C400.145 122.13 403.977 133.96 380.468 148.921L350.191 178.986L318.731 253.978L300.054 245.634L303.717 235.89L306.175 229.351L307.433 226.006L308.781 222.421L328.776 169.233L334.4 159.421C341.819 146.476 350.834 134.507 361.235 123.793L366.748 118.113L367.336 109.326L380.163 102.218L400.145 122.13Z" fill="#2F2E41"/>
<path d="M382.033 64.2155L391.439 44.2967L407.854 42.0653C407.854 42.0653 420.672 58.3384 417.306 81.2051C416.044 89.7801 415.016 98.3171 414.955 105.811C414.938 107.805 416.689 108.695 416.718 110.497C416.748 112.268 413.401 115.153 414.367 116.356C415.748 118.014 416.571 120.064 416.718 122.214C415.554 124.977 380.295 110.009 365.476 112.23L382.033 64.2155Z" fill="#E4E4E4"/>
<path d="M405.347 32.0373C409.537 25.0133 407.22 15.9345 400.172 11.7592C393.123 7.58387 384.013 9.89313 379.823 16.9171C375.633 23.941 377.95 33.0198 384.999 37.1951C392.047 41.3705 401.158 39.0612 405.347 32.0373Z" fill="#9E616A"/>
<path d="M402.077 19.1648C402.049 19.5541 402.009 20.0697 401.964 20.6531C401.918 22.2499 402.37 23.8218 403.257 25.1523C404.087 26.5521 403.096 35.0067 403.096 35.0067C427.416 18.113 408.2 1.14068 400.683 2.6494C400.84 0.501025 394.709 1.35211 394.709 1.35211C392.373 -2.27301 387.254 2.53904 387.254 2.53904L388.242 0.882886C384.267 1.89038 380.338 14.132 380.338 14.132C381.686 19.4133 402.234 17.0164 402.077 19.1648Z" fill="#2F2E41"/>
<path d="M307.733 72.0511C316.09 60.9734 322.697 48.6863 327.323 35.6166C327.591 34.8348 327.572 33.9836 327.27 33.2146C326.967 32.4455 326.4 31.8084 325.67 31.4167L297.072 16.1465C296.609 15.8976 296.096 15.7571 295.57 15.7359C295.045 15.7146 294.522 15.8131 294.04 16.0239C293.55 16.2362 293.115 16.5572 292.768 16.9625C292.421 17.3677 292.171 17.8465 292.038 18.3625C288.709 30.9568 282.452 42.5934 273.773 52.331C273.416 52.7273 273.154 53.1997 273.008 53.7121C272.861 54.2245 272.834 54.7635 272.929 55.2879C273.019 55.804 273.227 56.2927 273.535 56.7169C273.844 57.141 274.246 57.4893 274.71 57.7352L303.308 73.0056C304.04 73.3943 304.886 73.5117 305.696 73.3369C306.506 73.1621 307.228 72.7065 307.733 72.0511Z" fill="#CCCCCC"/>
<path d="M305.781 70.5897C305.627 70.7811 305.411 70.9129 305.17 70.9625C304.929 71.0121 304.679 70.9763 304.461 70.8614L275.863 55.5908C275.724 55.5187 275.604 55.4155 275.512 55.2893C275.42 55.1631 275.358 55.0173 275.332 54.8634C275.302 54.701 275.311 54.5339 275.356 54.3752C275.402 54.2165 275.484 54.0706 275.596 53.9488C284.531 43.9244 290.972 31.9449 294.399 18.9794C294.438 18.8192 294.515 18.6704 294.622 18.5445C294.729 18.4185 294.864 18.319 295.016 18.2537C295.159 18.1899 295.315 18.16 295.472 18.1665C295.629 18.1729 295.782 18.2155 295.919 18.2909L324.517 33.5611C324.733 33.6777 324.902 33.8661 324.994 34.0937C325.086 34.3213 325.096 34.5737 325.021 34.8075C320.477 47.6432 313.989 59.7103 305.781 70.5897Z" fill="white"/>
<path d="M295.776 32.799L315.501 44.3204C317.464 45.4667 319.241 42.4297 317.281 41.2852L297.556 29.7638C295.594 28.6175 293.817 31.6545 295.776 32.799Z" fill="#16B198"/>
<path d="M292.249 39.2434L311.974 50.7647C313.936 51.9111 315.714 48.8741 313.754 47.7296L294.029 36.2082C292.067 35.0618 290.289 38.0989 292.249 39.2434Z" fill="#16B198"/>
<path d="M288.134 46.2735L307.859 57.7949C309.821 58.9412 311.598 55.9042 309.639 54.7597L289.914 43.2383C287.951 42.092 286.174 45.129 288.134 46.2735Z" fill="#16B198"/>
<path d="M284.018 52.132L303.743 63.6534C305.706 64.7997 307.483 61.7627 305.524 60.6182L285.799 49.0968C283.836 47.9505 282.059 50.9875 284.018 52.132Z" fill="#16B198"/>
<path d="M373.939 119.902L381.344 136.496C381.523 136.894 381.599 137.329 381.566 137.763C381.534 138.197 381.393 138.616 381.157 138.982C380.879 139.42 380.477 139.766 380.002 139.976C379.527 140.187 379 140.253 378.488 140.165C378.313 140.139 378.142 140.093 377.977 140.03C377.323 139.778 376.795 139.278 376.509 138.639L369.104 122.044C368.963 121.728 368.886 121.387 368.877 121.041C368.868 120.695 368.927 120.35 369.052 120.027C369.304 119.375 369.805 118.848 370.447 118.564C371.088 118.28 371.816 118.262 372.471 118.512C373.126 118.763 373.654 119.263 373.939 119.902Z" fill="#16B198"/>
<path d="M380.747 135.158L382.23 138.507L382.989 143.256C383.039 143.568 382.984 143.888 382.833 144.167C382.681 144.445 382.442 144.666 382.151 144.794C381.861 144.923 381.536 144.952 381.228 144.878C380.919 144.804 380.643 144.63 380.444 144.383L377.374 140.577L375.912 137.301L380.747 135.158Z" fill="#3F3D56"/>
<path d="M367.458 115.285L368.52 121.929C368.554 122.146 368.639 122.353 368.766 122.533C368.894 122.712 369.061 122.861 369.256 122.966C369.45 123.071 369.666 123.13 369.887 123.139C370.107 123.147 370.327 123.105 370.529 123.016L371.581 122.549L373.612 127.1C373.675 127.241 373.793 127.352 373.938 127.408C374.083 127.463 374.245 127.459 374.387 127.396C374.53 127.333 374.641 127.216 374.697 127.071C374.753 126.926 374.749 126.765 374.686 126.623L372.656 122.073L373.708 121.607C374.056 121.452 374.329 121.166 374.467 120.811C374.605 120.456 374.595 120.062 374.442 119.713C374.39 119.598 374.323 119.49 374.244 119.392L370.004 114.157C369.805 113.911 369.529 113.737 369.22 113.663C368.911 113.588 368.587 113.618 368.296 113.747C368.006 113.875 367.767 114.096 367.615 114.374C367.464 114.652 367.408 114.972 367.458 115.285Z" fill="#3F3D56"/>
<path d="M370.531 127.276C370.698 126.347 371.067 125.465 371.613 124.693C372.159 123.921 372.868 123.278 373.69 122.809C374.512 122.34 375.428 122.056 376.372 121.977C377.316 121.899 378.267 122.027 379.155 122.354L393.774 104.616L397.314 116.01L382.889 131.108C382.239 132.56 381.077 133.724 379.623 134.379C378.17 135.034 376.526 135.135 375.002 134.662C373.479 134.19 372.182 133.177 371.358 131.816C370.534 130.455 370.24 128.84 370.531 127.276Z" fill="#9E616A"/>
<path d="M388.934 126.124L382.496 116.856L400.778 92.5637L391.36 72.4515L392.046 48.5283L399.829 47.0956L399.925 47.1439C403.709 49.3144 406.634 52.7094 408.214 56.7651C410.156 61.6021 414.49 79.7599 416.901 90.1527C417.374 92.1667 417.323 94.268 416.75 96.2564C416.178 98.2447 415.105 100.054 413.632 101.512L388.934 126.124Z" fill="#E4E4E4"/>
<path d="M207.651 81.3424C207.597 81.7926 207.579 82.2462 207.598 82.6991L174.633 106.598L165.577 102.604L157.742 115.436L173.084 124.059C174.324 124.756 175.757 125.033 177.168 124.849C178.579 124.665 179.892 124.03 180.91 123.039L214.088 90.7455C215.786 91.1756 217.575 91.0802 219.218 90.472C220.86 89.8639 222.278 88.7718 223.282 87.3411C224.287 85.9104 224.83 84.2088 224.841 82.4627C224.851 80.7166 224.328 79.0088 223.341 77.5663C222.353 76.1238 220.948 75.0151 219.313 74.3876C217.678 73.7601 215.89 73.6436 214.187 74.0535C212.484 74.4634 210.946 75.3804 209.778 76.6824C208.611 77.9844 207.869 79.6099 207.651 81.3424Z" fill="#FFB6B6"/>
<path d="M173.567 107.472L163.954 123.435C163.68 123.889 163.312 124.279 162.873 124.579C162.435 124.878 161.937 125.08 161.413 125.17C160.889 125.261 160.352 125.237 159.838 125.102C159.324 124.967 158.845 124.723 158.435 124.387L144.041 112.607C141.718 111.199 140.049 108.93 139.402 106.299C138.754 103.667 139.18 100.886 140.586 98.5668C141.992 96.2473 144.264 94.578 146.903 93.9249C149.542 93.2717 152.333 93.688 154.665 95.0824L171.813 102.171C172.304 102.374 172.746 102.68 173.107 103.068C173.469 103.457 173.742 103.918 173.908 104.421C174.075 104.924 174.13 105.457 174.071 105.984C174.012 106.51 173.84 107.018 173.567 107.472Z" fill="#16B198"/>
<path d="M132.377 246.222H151.221V215.104H132.377V246.222Z" fill="#CACACA"/>
<path d="M150.276 231.57L147.858 235.122L193.082 265.703L195.5 262.151L150.276 231.57Z" fill="#CACACA"/>
<path d="M133.322 231.57L88.0977 262.151L90.5162 265.703L135.74 235.122L133.322 231.57Z" fill="#CACACA"/>
<path d="M194.291 269.828C197.562 269.828 200.214 267.186 200.214 263.927C200.214 260.667 197.562 258.025 194.291 258.025C191.021 258.025 188.369 260.667 188.369 263.927C188.369 267.186 191.021 269.828 194.291 269.828Z" fill="#CACACA"/>
<path d="M141.53 269.828C144.801 269.828 147.452 267.186 147.452 263.927C147.452 260.667 144.801 258.025 141.53 258.025C138.259 258.025 135.608 260.667 135.608 263.927C135.608 267.186 138.259 269.828 141.53 269.828Z" fill="#CACACA"/>
<path d="M89.3069 269.828C92.5777 269.828 95.2291 267.186 95.2291 263.927C95.2291 260.667 92.5777 258.025 89.3069 258.025C86.0362 258.025 83.3848 260.667 83.3848 263.927C83.3848 267.186 86.0362 269.828 89.3069 269.828Z" fill="#CACACA"/>
<path d="M143.684 233.346H139.376V263.927H143.684V233.346Z" fill="#CACACA"/>
<path d="M137.761 229.054H145.837V187.742H137.761V229.054Z" fill="#CACACA"/>
<path d="M118.649 194.18V184.523C118.651 182.745 119.361 181.04 120.622 179.783C121.884 178.526 123.594 177.819 125.379 177.817H161.45C163.234 177.819 164.945 178.526 166.207 179.783C167.468 181.04 168.178 182.745 168.18 184.523V194.18C168.178 195.958 167.468 197.663 166.207 198.92C164.945 200.178 163.234 200.885 161.45 200.887H125.379C123.594 200.885 121.884 200.178 120.622 198.92C119.361 197.663 118.651 195.958 118.649 194.18Z" fill="#3F3D56"/>
<path d="M183.799 260.192L193.774 260.191L198.52 234.408L183.797 234.408L183.799 260.192Z" fill="#FFB8B8"/>
<path d="M181.255 269.828L213.421 269.827V269.422C213.421 267.783 213.097 266.161 212.468 264.647C211.839 263.133 210.917 261.758 209.754 260.6C208.592 259.441 207.211 258.522 205.692 257.895C204.173 257.268 202.545 256.945 200.901 256.945H200.9L181.254 256.946L181.255 269.828Z" fill="#2F2E41"/>
<path d="M198.719 244.203L218.607 199.76C220.268 196.014 220.451 191.783 219.122 187.908C217.792 184.034 215.046 180.8 211.432 178.852L168.294 155.801L148.609 154.132L130.452 152.487L130.321 152.708C130.153 152.99 126.249 159.71 128.888 167.079C130.89 172.668 136.097 177.033 144.364 180.054C163.661 187.105 185.952 193.132 194.64 195.395C195.024 195.493 195.383 195.67 195.693 195.916C196.003 196.162 196.258 196.471 196.44 196.822C196.622 197.168 196.73 197.549 196.758 197.94C196.785 198.33 196.731 198.722 196.599 199.091L178.123 240.458C177.93 240.983 177.86 241.545 177.92 242.1C177.979 242.656 178.166 243.191 178.465 243.663C178.765 244.135 179.169 244.533 179.647 244.825C180.125 245.117 180.664 245.296 181.222 245.347L195.028 246.349C195.145 246.36 195.262 246.366 195.378 246.366C196.085 246.365 196.777 246.161 197.37 245.777C197.963 245.393 198.432 244.847 198.719 244.203Z" fill="#2F2E41"/>
<path d="M177.289 260.192L187.264 260.191L192.011 234.408L177.288 234.408L177.289 260.192Z" fill="#FFB8B8"/>
<path d="M174.745 269.828L206.911 269.827V269.422C206.911 267.783 206.587 266.161 205.958 264.647C205.329 263.133 204.407 261.758 203.244 260.6C202.082 259.441 200.702 258.522 199.183 257.895C197.664 257.268 196.036 256.945 194.392 256.945H194.39L174.744 256.946L174.745 269.828Z" fill="#2F2E41"/>
<path d="M191.396 246.636L211.284 202.193C212.944 198.447 213.128 194.215 211.798 190.341C210.468 186.466 207.723 183.233 204.108 181.285L160.971 158.233L141.286 156.565L127.064 155.335L127.066 155.141C126.898 155.423 122.994 162.143 125.633 169.511C127.635 175.1 128.773 179.466 137.041 182.487C156.337 189.538 178.629 195.564 187.317 197.827C187.701 197.925 188.06 198.103 188.37 198.349C188.68 198.595 188.934 198.903 189.116 199.254C189.298 199.601 189.407 199.982 189.434 200.372C189.462 200.763 189.408 201.155 189.276 201.524L170.799 242.891C170.606 243.415 170.537 243.977 170.596 244.533C170.655 245.089 170.842 245.623 171.142 246.096C171.441 246.568 171.845 246.965 172.324 247.258C172.802 247.55 173.341 247.728 173.899 247.78L187.705 248.782C187.822 248.793 187.939 248.798 188.055 248.798C188.762 248.798 189.454 248.594 190.047 248.21C190.64 247.826 191.108 247.279 191.396 246.636Z" fill="#2F2E41"/>
<path d="M178.921 55.2096C181.474 44.5086 174.84 33.7708 164.101 31.2259C153.363 28.6811 142.588 35.2929 140.034 45.9939C137.48 56.6948 144.115 67.4326 154.853 69.9775C165.592 72.5223 176.367 65.9105 178.921 55.2096Z" fill="#FFB8B8"/>
<path d="M228.368 127.121C236.725 116.043 243.331 103.756 247.958 90.6863C248.226 89.9045 248.207 89.0533 247.904 88.2842C247.602 87.5152 247.035 86.8781 246.305 86.4864L217.707 71.2162C217.244 70.9673 216.73 70.8268 216.205 70.8056C215.68 70.7843 215.157 70.8828 214.675 71.0935C214.185 71.3059 213.75 71.6269 213.402 72.0321C213.055 72.4374 212.806 72.9162 212.672 73.4321C209.344 86.0265 203.087 97.6631 194.408 107.401C194.051 107.797 193.789 108.269 193.643 108.782C193.496 109.294 193.469 109.833 193.563 110.358C193.654 110.874 193.861 111.362 194.17 111.787C194.479 112.211 194.881 112.559 195.345 112.805L223.943 128.075C224.674 128.464 225.521 128.581 226.331 128.407C227.141 128.232 227.863 127.776 228.368 127.121Z" fill="#CCCCCC"/>
<path d="M226.416 125.659C226.262 125.851 226.046 125.983 225.805 126.032C225.564 126.082 225.313 126.046 225.096 125.931L196.498 110.661C196.359 110.588 196.239 110.485 196.147 110.359C196.054 110.233 195.993 110.087 195.967 109.933C195.937 109.771 195.945 109.604 195.991 109.445C196.037 109.286 196.119 109.14 196.231 109.019C205.166 98.9941 211.607 87.0146 215.034 74.0491C215.073 73.8889 215.15 73.7401 215.257 73.6142C215.364 73.4883 215.498 73.3887 215.65 73.3234C215.794 73.2596 215.95 73.2297 216.107 73.2362C216.263 73.2426 216.416 73.2852 216.554 73.3606L245.152 88.6308C245.368 88.7474 245.537 88.9358 245.629 89.1634C245.721 89.391 245.731 89.6434 245.656 89.8772C241.112 102.713 234.624 114.78 226.416 125.659Z" fill="white"/>
<path d="M216.411 87.8687L236.136 99.3901C238.098 100.536 239.876 97.4994 237.916 96.3549L218.191 84.8335C216.229 83.6872 214.451 86.7242 216.411 87.8687Z" fill="#CCCCCC"/>
<path d="M212.884 94.3131L232.609 105.834C234.571 106.981 236.348 103.944 234.389 102.799L214.664 91.2779C212.701 90.1315 210.924 93.1686 212.884 94.3131Z" fill="#CCCCCC"/>
<path d="M210.112 100.732L228.051 111.345C229.836 112.401 231.745 110.218 229.963 109.163L212.024 98.551C210.239 97.4951 208.33 99.6781 210.112 100.732Z" fill="#CCCCCC"/>
<path d="M204.653 107.202L224.378 118.723C226.341 119.869 228.118 116.832 226.158 115.688L206.433 104.167C204.471 103.02 202.694 106.057 204.653 107.202Z" fill="#CCCCCC"/>
<path d="M171.001 157.414L131.451 157.178L131.44 156.898C130.686 137.123 133.111 119.21 138.854 102.136C138.936 101.497 139.023 100.814 139.109 100.143C140.09 92.5044 140.869 86.4394 148.159 84.1807C147.551 83.376 147.193 82.4119 147.129 81.4071C147.083 80.7393 147.171 80.069 147.387 79.4354C147.604 78.8018 147.944 78.2174 148.39 77.7163C148.816 77.2324 149.334 76.8378 149.915 76.5555C150.495 76.2732 151.127 76.1089 151.772 76.0721L165.849 75.5943C166.589 75.5893 167.309 75.8326 167.893 76.2849C168.964 77.0783 169.718 78.226 170.018 79.5224C170.317 80.8189 170.144 82.1794 169.529 83.3603C169.363 83.6892 169.3 83.8391 169.276 83.9043C169.776 86.5172 171.261 89.6209 172.832 92.9055C175.082 97.6083 177.632 102.938 178.288 108.64C178.642 111.719 178.495 114.835 177.852 117.867C177.559 119.501 177.491 121.167 177.651 122.819C177.78 125.269 177.901 127.582 176.512 129.819C176.158 130.425 175.752 131.072 175.277 131.788L173.322 136.445L171.001 157.414Z" fill="#16B198"/>
<path d="M111.65 185.087V104.556C111.653 101.931 112.7 99.4156 114.562 97.56C116.424 95.7044 118.949 94.6607 121.582 94.6577H124.329C126.963 94.6607 129.487 95.7044 131.349 97.56C133.212 99.4156 134.259 101.931 134.262 104.556V185.087C134.259 187.711 133.212 190.227 131.349 192.083C129.487 193.938 126.963 194.982 124.329 194.985H121.582C118.949 194.982 116.424 193.938 114.562 192.083C112.7 190.227 111.653 187.711 111.65 185.087Z" fill="#3F3D56"/>
<path d="M217.708 112.593C217.424 112.947 217.168 113.323 216.944 113.718L176.287 116.676L170.71 108.52L157.259 115.297L165.722 130.692C166.406 131.936 167.476 132.925 168.772 133.511C170.068 134.097 171.519 134.248 172.909 133.942L218.194 123.966C219.408 125.224 220.979 126.084 222.696 126.432C224.413 126.779 226.196 126.597 227.807 125.911C229.418 125.224 230.781 124.065 231.714 122.587C232.648 121.11 233.108 119.384 233.034 117.639C232.959 115.895 232.353 114.214 231.297 112.821C230.24 111.428 228.784 110.388 227.12 109.841C225.456 109.293 223.664 109.263 221.983 109.755C220.302 110.246 218.81 111.236 217.708 112.593Z" fill="#FFB6B6"/>
<path d="M174.918 116.857L158.298 125.359C157.825 125.6 157.305 125.738 156.774 125.762C156.243 125.785 155.713 125.695 155.221 125.496C154.728 125.297 154.284 124.995 153.919 124.61C153.554 124.225 153.277 123.766 153.106 123.264L147.121 105.688C145.894 103.275 145.675 100.476 146.513 97.9029C147.352 95.33 149.178 93.1925 151.594 91.958C144.226 95.7266 159.57 85.0219 165.427 96.3916L176.237 111.432C176.546 111.863 176.759 112.355 176.86 112.875C176.961 113.395 176.949 113.931 176.824 114.446C176.699 114.96 176.464 115.442 176.135 115.859C175.806 116.275 175.391 116.615 174.918 116.857Z" fill="#16B198"/>
<path d="M150.449 69.9727C149.246 69.9727 147.919 69.3949 146.422 68.2243C142.019 64.7787 138.871 59.9886 137.463 54.5888C136.054 49.189 136.462 43.4778 138.624 38.3312C139.712 35.7413 141.747 32.221 145.262 30.158C147.79 28.6756 150.758 28.1401 153.343 27.7545C155.58 27.4204 157.846 27.1543 160.076 26.965C162.741 26.7378 165.82 26.5845 168.627 27.6475C170.685 28.4267 172.436 29.8027 174.129 31.1334C174.719 31.5968 175.33 32.0768 175.941 32.5208C177.422 33.6722 179.13 34.499 180.954 34.9471C181.339 35.0267 181.702 35.1876 182.019 35.419C182.337 35.6505 182.6 35.9471 182.792 36.2887C182.988 36.6361 183.107 37.0212 183.141 37.4183C183.175 37.8154 183.123 38.2151 182.988 38.5904C182.724 39.3284 182.486 39.9938 182.968 40.7146C183.147 40.9686 183.385 41.175 183.663 41.3158C183.94 41.4567 184.248 41.5276 184.559 41.5225C184.723 41.5198 184.886 41.5581 185.031 41.6338C185.177 41.7095 185.301 41.8203 185.393 41.9561C185.486 42.0907 185.545 42.246 185.564 42.4083C185.583 42.5707 185.562 42.7352 185.502 42.8875L185.425 43.0861C185.632 43.1053 185.831 43.1743 186.005 43.2872C186.179 43.4002 186.323 43.5536 186.424 43.7343C186.575 43.9916 186.634 44.2925 186.59 44.5873C186.546 44.8821 186.402 45.1531 186.183 45.3556C184.4 47.0474 182.176 48.2071 179.765 48.7031C178.114 49.0257 176.417 49.0218 174.768 48.6917L174.503 48.6402L174.535 48.3472C167.866 45.977 161.846 49.9995 158.414 54.5982L157.919 54.2864C158.004 54.115 158.053 53.9282 158.064 53.7373C158.075 53.5464 158.047 53.3552 157.982 53.1754C157.913 52.9595 157.802 52.7594 157.655 52.5864C157.508 52.4134 157.328 52.271 157.126 52.1673C156.717 51.9992 156.268 51.9556 155.834 52.0419C155.401 52.1281 155.002 52.3403 154.69 52.6519C154.371 52.9844 154.126 53.3795 153.969 53.8118C153.812 54.2441 153.747 54.7042 153.779 55.1629C153.869 56.1349 154.117 57.0859 154.515 57.9783C154.676 58.4051 154.843 58.8468 154.978 59.2919C155.738 61.8204 155.536 64.5393 154.41 66.9285C153.89 68.0183 152.951 69.408 151.426 69.8388C151.108 69.9283 150.779 69.9733 150.449 69.9727Z" fill="#2F2E41"/>
<path d="M475.3 271H0.69992C0.514622 270.999 0.337101 270.926 0.206265 270.795C0.075429 270.664 0.00195312 270.487 0.00195312 270.302C0.00195312 270.118 0.075429 269.941 0.206265 269.81C0.337101 269.679 0.514622 269.605 0.69992 269.605H475.3C475.486 269.605 475.664 269.678 475.795 269.809C475.926 269.94 476 270.117 476 270.302C476 270.487 475.926 270.665 475.795 270.796C475.664 270.927 475.486 271 475.3 271Z" fill="#CACACA"/>
</g>
<defs>
<clipPath id="clip0_94_564">
<rect width="476" height="271" fill="white"/>
</clipPath>
</defs>
</svg>
