<svg width="32" height="32" viewBox="0 0 32 32" fill="none" xmlns="http://www.w3.org/2000/svg">
<path d="M31.5 10C31.5 4.7533 27.2467 0.5 22 0.5H10C4.75329 0.5 0.5 4.75329 0.5 10V22C0.5 27.2467 4.75329 31.5 10 31.5H22C27.2467 31.5 31.5 27.2467 31.5 22V10Z" fill="#D9D9D9" stroke="#9B9B9B"/>
<path d="M10.6464 16.3536C10.4512 16.1583 10.4512 15.8417 10.6464 15.6464L13.8284 12.4645C14.0237 12.2692 14.3403 12.2692 14.5355 12.4645C14.7308 12.6597 14.7308 12.9763 14.5355 13.1716L11.7071 16L14.5355 18.8284C14.7308 19.0237 14.7308 19.3403 14.5355 19.5355C14.3403 19.7308 14.0237 19.7308 13.8284 19.5355L10.6464 16.3536ZM21 16.5H11V15.5H21V16.5Z" fill="#333333"/>
</svg>
