<svg width="1200" height="394" viewBox="0 0 1200 394" fill="none" xmlns="http://www.w3.org/2000/svg">
<mask id="mask0_118_5" style="mask-type:alpha" maskUnits="userSpaceOnUse" x="0" y="0" width="1200" height="394">
<rect width="1200" height="394" rx="10" fill="#F5F5F5"/>
</mask>
<g mask="url(#mask0_118_5)">
<rect x="10" y="-192" width="1207" height="1207" fill="#F5F5F5"/>
<path d="M18.5187 575.183C22.3302 494.067 75.068 434.927 117.447 387.407L120.457 384.036C125.373 378.962 136.714 365.388 135.823 348.993C135.281 339.014 130.239 329.98 120.843 322.15C115.207 317.456 109.996 313.069 105.039 308.895C83.1174 290.442 65.8036 275.867 38.9224 257.588C29.1028 250.913 19.4361 244.593 10 238.654V239.588C19.2885 245.442 28.8024 251.667 38.4637 258.237C65.3128 276.493 82.6104 291.055 104.513 309.494C109.473 313.668 114.684 318.058 120.32 322.753C129.544 330.438 134.49 339.28 135.018 349.035C135.893 365.125 124.719 378.491 119.861 383.502L116.838 386.892C74.3787 434.498 21.5389 493.754 17.7141 575.149C17.3064 583.817 13.8678 589.119 10 590.921V591.86C14.1843 590.171 18.0654 584.801 18.5187 575.183Z" fill="#E0E0E0"/>
<path d="M37.2728 576.032C40.7839 501.336 91.1292 444.885 131.582 399.524L134.605 396.134C143.1 386.602 149.982 378.157 155.06 371.033C161.352 362.203 173.066 345.771 145.404 319.583C115.578 291.342 83.3507 265.394 49.6218 242.46C35.8647 233.107 22.6279 224.678 10 217.109V218.029C22.4857 225.527 35.5696 233.867 49.1631 243.107C82.8572 266.017 115.049 291.939 144.846 320.151C172.014 345.871 160.556 361.946 154.4 370.58C149.339 377.681 142.475 386.105 134.002 395.616L130.976 399.008C90.4398 444.458 39.9926 501.026 36.4682 575.995C34.832 610.767 28.5395 631 16.6573 639.674C14.305 641.389 12.0787 642.323 10 642.546V643.338C12.2611 643.122 14.6 642.157 17.1374 640.306C29.2262 631.484 35.6259 611.059 37.2728 576.032Z" fill="#E0E0E0"/>
<path d="M364.659 41.7679C359.448 21.5849 317.391 16.1854 268.692 9.93639C256.66 8.39255 244.217 6.7961 232.131 4.92613C178.739 -3.3375 129.863 -29.6197 82.5943 -55.0365C58.9237 -67.7634 34.7435 -80.7611 10 -91.4496V-89.4429C34.4136 -78.8438 58.3015 -65.9986 81.6931 -53.4217C129.099 -27.9285 178.122 -1.56749 231.839 6.74349C243.949 8.61872 256.402 10.2178 268.448 11.7643C314.472 17.6688 357.938 23.2471 362.838 42.2203C366.658 57.0039 347.021 79.4304 302.807 110.783C240.776 154.774 188.722 175.262 138.996 175.262C110.739 175.259 82.7204 168.381 55.7158 154.816C38.9117 146.373 24.1192 136.103 10 125.74V128.039C23.8456 138.167 38.3699 148.169 54.8602 156.454C82.133 170.154 110.438 177.1 138.996 177.1H139.001C189.14 177.1 241.543 156.501 303.91 112.274C349.441 79.9879 368.742 57.5851 364.659 41.7679Z" fill="#E0E0E0"/>
<path d="M16.955 456.909C24.1836 444.44 33.5526 433.133 42.6158 422.198C55.6863 406.423 69.2047 390.114 76.4789 370.073C89.3053 334.735 64.1621 318.408 37.5437 301.123C35.0895 299.529 32.6192 297.925 30.1381 296.278C25.7527 293.37 21.6087 290.621 17.529 287.849C15.5227 286.484 13.0524 284.738 10 282.56V283.533C12.8271 285.55 15.1686 287.205 17.0703 288.496C21.1554 291.273 25.2994 294.022 29.7143 296.949C32.1712 298.58 34.6416 300.184 37.1012 301.781C63.4486 318.892 88.337 335.053 75.7198 369.81C68.4912 389.722 55.0184 405.978 41.9909 421.701C32.9089 432.66 23.5184 443.993 16.2549 456.517C14.0823 460.268 12.0948 465.144 10 470.312V472.442C10.2173 471.906 10.4372 471.369 10.6518 470.838C12.7734 465.604 14.777 460.665 16.955 456.909Z" fill="#E0E0E0"/>
<path d="M452.773 8.0822C450.627 11.4171 445.212 11.404 436.824 8.09797C434.866 7.32737 432.863 6.63304 430.923 5.96238C420.133 2.22507 410.812 -0.99938 415.769 -15.228C419.36 -25.5299 424.427 -30.9741 430.424 -30.9741C436.291 -30.9741 442.567 -25.7088 447.215 -16.8928C453.288 -5.28375 455.364 4.05296 452.773 8.0822ZM430.424 -32.2892C425.803 -32.2892 419.291 -29.404 414.5 -15.6541C409.114 -0.194592 419.492 3.39807 430.475 7.20113C432.401 7.86917 434.394 8.55561 436.325 9.31833C440.655 11.0252 444.294 11.8905 447.145 11.8905C450.308 11.8905 452.58 10.8464 453.905 8.78442C458.011 2.40128 451.429 -11.7195 448.409 -17.4951C443.524 -26.7581 436.803 -32.2892 430.424 -32.2892Z" fill="#E0E0E0"/>
<path d="M82.4871 399.006C83.6887 397.604 84.9064 396.2 86.1322 394.785C103.398 374.87 121.251 354.277 100.96 329.651C85.2658 310.604 61.5765 294.898 40.6766 281.043C36.3448 278.171 32.2544 275.456 28.2257 272.718C25.522 270.88 21.8581 268.258 17.6175 265.223C15.2867 263.555 12.7251 261.722 10 259.786V260.76C12.5454 262.572 14.9487 264.289 17.1428 265.859C21.3887 268.897 25.0553 271.522 27.767 273.365C31.7984 276.109 35.8942 278.823 40.226 281.695C61.0776 295.521 84.716 311.191 100.335 330.146C120.204 354.263 102.572 374.604 85.5206 394.272C84.2922 395.689 83.0718 397.096 81.8728 398.501C66.8792 416.022 47.7255 439.485 32.5763 465.615C23.3816 481.482 15.807 498.148 10 515.252V517.842C15.8848 499.968 23.6874 482.547 33.2763 466.007C48.3933 439.932 67.5176 416.501 82.4871 399.006Z" fill="#E0E0E0"/>
<path d="M67.2118 132.813C87.5967 143.054 104.918 147.825 121.72 147.825C139.31 147.825 154.95 142.644 173.06 136.645C183.333 133.241 194.977 129.383 208.176 126.135C214.871 124.488 220.71 124.296 224.519 124.296C227.078 124.296 229.532 124.394 231.903 124.488C234.151 124.575 236.275 124.662 238.378 124.662C249.252 124.659 257.894 122.14 267.37 109.589C273.762 101.12 276.157 94.5795 278.271 88.8118C281.43 80.1799 283.925 73.3654 297.835 63.6158C301.402 61.112 306.506 59.1421 311.447 57.2379C319.397 54.1713 326.264 51.5228 326.548 47.0359C326.776 43.4012 322.46 39.3457 312.957 34.2723C301.571 28.2153 285.325 27.3973 270.935 27.3973C264.516 27.3973 257.776 27.5893 251.258 27.7787C244.711 27.9654 237.938 28.16 231.455 28.16C217.009 28.16 206.883 27.1817 198.622 24.9803C151.943 12.5533 108.18 -10.9831 69.5668 -31.7448C49.2972 -42.6437 29.6312 -53.206 10 -62.2797V-60.8253C29.4112 -51.8252 48.8708 -41.376 68.9204 -30.5928C107.601 -9.7943 151.439 13.7789 198.271 26.2506C206.65 28.4809 216.885 29.4751 231.455 29.4751C237.957 29.4751 244.74 29.2804 251.298 29.0937C257.805 28.9043 264.535 28.7123 270.935 28.7123C285.156 28.7123 301.195 29.5093 312.316 35.4269C321.06 40.0952 325.397 43.9746 325.209 46.9544C324.979 50.6049 318.166 53.2324 310.956 56.015C305.94 57.948 300.756 59.9469 297.054 62.5454C282.803 72.5343 280.119 79.8722 277.004 88.3673C274.926 94.0508 272.565 100.494 266.289 108.805C257.151 120.912 248.833 123.344 238.378 123.347C236.304 123.347 234.194 123.263 231.959 123.173C229.572 123.079 227.104 122.981 224.519 122.981C220.638 122.981 214.691 123.176 207.849 124.859C194.599 128.121 182.928 131.987 172.629 135.398C154.631 141.36 139.087 146.51 121.72 146.51C105.138 146.51 88.0124 141.786 67.8207 131.642C49.3616 122.366 32.7613 110.028 16.7056 98.0932C14.4766 96.4363 12.2423 94.7767 10 93.1224V94.7662C11.9714 96.2233 13.9375 97.6856 15.8982 99.1426C31.9969 111.109 48.6455 123.484 67.2118 132.813Z" fill="#E0E0E0"/>
<path d="M79.5634 109.171C99.3824 119.126 118.815 123.97 138.983 123.976C150.269 123.973 174.646 119.457 195.897 111.898C214.514 105.279 236.715 94.2822 236.766 79.4908C236.827 62.0772 202.53 52.4012 182.038 46.6204C177.583 45.3632 173.734 44.277 171.164 43.3644C134.469 30.3298 98.0493 13.8657 56.5446 -8.45037C40.7007 -16.9717 25.2404 -25.2827 10 -32.7521V-31.8657C25.1116 -24.4516 40.4459 -16.209 56.1584 -7.76129C97.6979 14.5784 134.155 31.0583 170.888 44.106C173.484 45.0292 177.347 46.118 181.815 47.3778C202.09 53.0982 236.023 62.6716 235.964 79.4882C235.873 105.05 162.385 123.184 138.972 123.187C118.946 123.181 99.6345 118.366 79.9309 108.469C63.5425 100.234 47.8891 88.5987 32.7479 77.3447C25.4174 71.8952 17.8777 66.2985 10 60.849V61.8195C17.7033 67.1585 25.0821 72.6395 32.2598 77.9733C47.4304 89.2483 63.1134 100.905 79.5634 109.171Z" fill="#E0E0E0"/>
<path d="M88.1251 92.7858C105.219 101.373 121.838 105.552 138.98 105.565C153.858 105.565 173.28 101.236 180.761 91.739C184.015 87.6098 184.935 82.7653 183.492 77.3447C180.096 64.5942 152.858 55.5758 132.969 48.9901C126.54 46.8597 120.988 45.024 117.579 43.4722C94.6 33.0151 71.8601 20.7827 49.8659 8.95538L47.4143 7.63509C34.7006 0.799578 22.2443 -5.89128 10 -12.093V-11.204C22.1183 -5.06019 34.4458 1.56229 47.0254 8.3268L49.4796 9.64709C71.4819 21.4823 94.2352 33.72 117.241 44.1876C120.69 45.7577 126.261 47.6014 132.712 49.737C151.316 55.8966 179.428 65.207 182.714 77.5446C184.09 82.7153 183.218 87.3311 180.125 91.2551C172.808 100.544 153.668 104.776 138.934 104.776C121.969 104.766 105.468 100.613 88.4899 92.0836C73.5714 84.5879 58.5831 73.447 44.083 62.669C33.5955 54.8735 22.3382 46.5178 10 38.6172V39.5613C22.1531 47.3674 33.2549 55.6099 43.6029 63.3029C58.1244 74.094 73.1422 85.2586 88.1251 92.7858Z" fill="#E0E0E0"/>
<path d="M486.03 -176.779C487.368 -182.084 488.685 -187.318 489.924 -192.533H488.546C487.33 -187.423 486.04 -182.294 484.729 -177.095C482.264 -167.343 479.718 -157.256 477.656 -146.962C470.784 -112.643 464.859 -67.6476 480.182 -23.9729C486.41 -6.2253 501.924 8.2742 515.612 21.0642C527.792 32.4497 538.311 42.2808 537.365 50.5445C536.927 54.3449 534.095 57.7219 528.709 60.8701C526.22 62.3245 521.969 63.0609 516.07 63.0609C495.482 63.0609 459.154 54.1476 432.286 45.3159C403.06 35.7083 367.052 20.404 361.465 2.0515C359.689 -3.79248 361.148 -9.69698 365.81 -15.4989C371.786 -22.934 378.202 -29.475 384.406 -35.7976C396.615 -48.2431 408.146 -59.9968 415.78 -77.4419C426.664 -102.328 427.986 -128.276 419.704 -154.571C417.7 -160.944 415.678 -166.814 413.894 -171.992C411.26 -179.649 408.967 -186.332 407.406 -192.533H406.011C407.596 -186.205 409.935 -179.391 412.625 -171.572C414.404 -166.401 416.423 -160.539 418.424 -154.182C426.608 -128.194 425.301 -102.551 414.546 -77.9627C407.011 -60.7358 395.561 -49.0663 383.44 -36.7103C377.212 -30.3639 370.775 -23.7993 364.758 -16.3142C359.81 -10.1572 358.267 -3.85036 360.182 2.4276C365.93 21.3219 402.334 36.8577 431.859 46.5626C458.832 55.4285 495.332 64.3759 516.07 64.3759C522.215 64.3759 526.697 63.5764 529.396 62.001C535.168 58.6266 538.21 54.9288 538.695 50.6917C539.72 41.7785 528.977 31.7396 516.537 20.1147C502.96 7.4247 487.572 -6.95645 481.451 -24.4016C466.232 -67.7765 472.133 -112.548 478.973 -146.707C481.027 -156.972 483.57 -167.043 486.03 -176.779Z" fill="#E0E0E0"/>
<path d="M96.5473 76.6293C101.896 79.3172 116.924 84.1197 127.835 84.1171C131.73 84.1171 134.699 83.4859 136.66 82.2366C140.911 79.5303 142.786 76.9923 142.392 74.4832C141.525 68.9417 129.236 65.5936 119.36 62.9057C115.293 61.7958 111.782 60.8384 109.789 59.9337C86.2448 49.2215 63.226 36.8392 40.9663 24.8672L38.504 23.5416C28.848 18.3499 19.3475 13.2476 10 8.39252V9.88111C19.141 14.6363 28.4295 19.6255 37.8683 24.7015L40.3225 26.0191C62.6011 38.0043 85.6387 50.3945 109.226 61.1251C111.318 62.0798 114.878 63.0477 119 64.1707C128.002 66.6246 140.329 69.9805 141.067 74.6831C141.367 76.6004 139.64 78.7728 135.928 81.1346C134.19 82.2418 131.467 82.802 127.835 82.802C117.289 82.8047 102.26 78.0232 97.1615 75.4589C83.745 68.7155 69.4515 58.09 55.5924 47.7881C42.3744 37.9675 27.3379 26.795 10 16.6351V18.1789C27.008 28.2047 41.7977 39.1878 54.8172 48.8638C68.6843 59.1736 83.0289 69.8332 96.5473 76.6293Z" fill="#E0E0E0"/>
<path d="M56.2952 576.892C59.5004 508.721 107.413 454.992 145.914 411.822L148.947 408.419C194.73 357.03 192.871 339.085 171.392 318.302C147.839 295.518 110.715 261.272 60.4714 227.113C43.3239 215.454 26.3616 204.8 10 195.313V196.839C26.1175 206.207 42.8197 216.714 59.7069 228.194C109.865 262.298 146.933 296.489 170.448 319.239C191.31 339.422 193.011 356.962 147.936 407.556L144.902 410.957C106.268 454.282 58.1834 508.2 54.9567 576.829C51.9258 641.25 27.1823 660.162 10 665.472V666.851C27.582 661.593 53.2052 642.586 56.2952 576.892Z" fill="#E0E0E0"/>
<path d="M302.595 403.59C313.901 417.79 316.151 447.804 312.678 461.425C301.091 506.867 275.03 523.799 242.023 545.25C240.376 546.318 238.705 547.396 237.02 548.485C216.885 561.485 194.062 576.224 181.042 596.357C174.16 607.001 171.488 619.194 168.903 630.985C166.379 642.504 163.769 654.416 157.197 664.599C152.509 671.869 147.064 679.299 142.225 679.299C138.529 679.299 135.134 674.912 131.845 665.891C130.815 663.064 130.367 660.247 130.472 657.275C130.78 648.509 136.005 640.179 141.059 632.129C145.425 625.167 149.55 618.592 150.725 611.772C152.592 600.928 150.259 590.605 148.003 580.622C145.208 568.247 142.566 556.557 147.195 543.888C152.748 528.702 171.239 511.896 186.098 498.39C191.152 493.801 195.921 489.467 199.732 485.619C214.294 470.925 229.349 455.726 242.704 438.814C245.142 435.727 247.889 431.461 250.799 426.942C258.942 414.308 269.073 398.582 280.314 395.863C282.35 395.368 284.335 395.121 286.218 395.121C292.609 395.121 298.119 397.97 302.595 403.59ZM279.992 394.585C268.228 397.433 257.936 413.408 249.667 426.24C246.773 430.73 244.04 434.972 241.642 438.007C228.333 454.863 213.304 470.033 198.769 484.704C194.985 488.525 190.226 492.852 185.186 497.428C170.22 511.028 151.594 527.955 145.935 543.446C141.174 556.473 143.979 568.894 146.694 580.906C148.92 590.766 151.224 600.963 149.403 611.549C148.271 618.121 144.213 624.588 139.916 631.437C134.771 639.638 129.453 648.117 129.131 657.23C129.023 660.326 129.512 663.392 130.584 666.333C134.136 676.077 137.835 680.614 142.225 680.614C146.648 680.614 151.315 676.18 158.332 665.304C165.03 654.923 167.666 642.896 170.214 631.261C172.776 619.581 175.421 607.506 182.174 597.062C195.041 577.166 217.735 562.514 237.758 549.584C239.445 548.496 241.116 547.415 242.774 546.339C276.012 524.741 302.265 507.68 313.979 461.743C317.077 449.584 316.264 418.621 303.652 402.783C297.526 395.087 289.479 392.289 279.992 394.585Z" fill="#E0E0E0"/>
<path d="M294.61 367.532C298.537 373.578 303.518 377.295 308.791 381.227C314.491 385.477 320.384 389.874 324.995 397.58C335.554 415.233 343.7 447.078 338.438 467.737C324.351 522.992 291.486 544.345 256.692 566.951C216.743 592.907 175.431 619.749 160.269 700.526C156.61 720.02 150.556 730.324 142.767 730.324C130.576 730.324 115.762 705.455 111.152 684.062C103.159 646.994 105.798 602.804 119 552.717C127.752 519.502 152.823 495.274 177.067 471.843C189.674 459.66 202.709 447.06 213.213 433.399C215.758 430.085 219.811 425.635 224.5 420.48C239.941 403.514 261.091 380.277 257.397 366.393C256.069 361.407 252.915 356.438 249.573 351.181C246.153 345.797 242.618 340.227 241.352 334.796C239.751 327.908 242.245 326.69 244.445 325.619C245.66 325.025 246.918 324.412 247.223 322.966C247.634 321.038 246.384 318.092 238.906 309.381C234.663 304.437 222.652 298.117 211.038 292.002C198.836 285.582 185.012 278.302 183.859 274.112C181.244 264.602 182.064 260.852 183.215 259.379C183.829 258.592 184.728 258.211 185.962 258.211C197.686 258.211 231.718 290.945 259.656 321.577C260.004 321.958 260.2 322.148 260.211 322.156C265.441 326.051 270.049 327.016 274.113 327.865C279.861 329.067 284.823 330.106 290.788 338.53C293.629 342.541 293.149 347.365 292.644 352.47C292.137 357.601 291.609 362.906 294.61 367.532ZM292.33 337.481C285.941 328.457 280.386 327.295 274.507 326.066C270.443 325.214 266.243 324.336 261.455 320.785L261.056 320.351C247.368 305.342 201.497 256.37 185.962 256.37C184.13 256.37 182.705 257.004 181.724 258.258C179.65 260.915 179.755 266.259 182.045 274.594C183.408 279.551 196.398 286.387 210.15 293.625C221.608 299.655 233.458 305.894 237.471 310.57C241.073 314.765 245.813 320.578 245.386 322.59C245.271 323.137 244.667 323.455 243.611 323.97C241.213 325.138 237.592 326.905 239.523 335.203C240.856 340.939 244.477 346.639 247.98 352.154C251.241 357.29 254.323 362.14 255.579 366.859C259.02 379.785 237.404 403.54 223.1 419.255C218.382 424.438 214.307 428.917 211.714 432.289C201.293 445.847 188.308 458.395 175.75 470.53C151.323 494.138 126.065 518.547 117.181 552.257C103.907 602.619 101.26 647.094 109.314 684.44C113.609 704.371 128.412 732.163 142.767 732.163C151.707 732.163 158.217 721.632 162.114 700.857C177.134 620.851 218.105 594.23 257.727 568.484C292.835 545.676 325.995 524.131 340.259 468.184C345.637 447.073 337.362 414.615 326.612 396.647C321.816 388.628 315.77 384.12 309.928 379.762C304.792 375.932 299.943 372.313 296.196 366.543C293.54 362.453 294.012 357.69 294.514 352.648C295.029 347.436 295.563 342.047 292.33 337.481Z" fill="#E0E0E0"/>
<path d="M10 166.751C100.447 216.943 197.922 296.791 215.67 336.479C226.327 360.315 200.491 388.796 167.784 424.854C130.614 465.828 84.3593 516.824 81.4812 578.028C77.9729 652.638 40.2635 683.281 10 692.546V694.469C40.9582 685.222 79.7807 654.182 83.3561 578.115C86.2046 517.558 132.215 466.835 169.187 426.077C202.342 389.527 228.531 360.654 217.389 335.737C199.51 295.752 101.102 215.21 10 164.786V166.751Z" fill="#E0E0E0"/>
<path d="M465.621 -192.383C465.667 -192.433 465.715 -192.483 465.76 -192.533H464.663C462.979 -190.776 461.281 -188.92 460.112 -186.234C456.775 -178.56 457.725 -170.559 458.639 -162.824C459.151 -158.511 459.677 -154.055 459.465 -149.69C459.13 -142.838 457.706 -135.721 456.327 -128.841C455.192 -123.16 454.015 -117.287 453.452 -111.564C450.013 -76.7818 453.119 -45.3264 462.684 -18.0685C464.669 -12.4138 472.445 -3.71362 480.674 5.49947C491.196 17.2769 502.078 29.4593 502.512 36.8524C502.609 38.5014 502.177 39.8006 501.19 40.8264C498.347 43.7825 490.721 44.3243 478.533 42.4307C469.668 41.0499 461.152 37.4231 452.913 33.912C448.103 31.8631 443.131 29.7433 438.166 28.11C436.763 27.6472 435.309 27.1764 433.815 26.6924C415.981 20.9221 391.557 13.0162 388.056 -0.828445C386.388 -7.43251 389.66 -14.9781 397.782 -23.2576C410.587 -36.3079 423.827 -49.8027 432.788 -70.2882C441.376 -89.9242 451.26 -128.142 447.476 -148.827C446.701 -153.067 444.898 -155.928 443.152 -158.692C440.816 -162.398 438.608 -165.893 439.62 -172.234C440.362 -176.903 442.216 -179.641 443.852 -182.055C445.81 -184.951 447.524 -187.576 447.049 -192.533H446.247C446.725 -187.82 445.134 -185.377 443.182 -182.492C441.5 -180.009 439.595 -177.195 438.823 -172.355C437.766 -165.728 440.049 -162.109 442.465 -158.279C444.174 -155.576 445.936 -152.78 446.684 -148.69C450.44 -128.155 440.599 -90.1425 432.048 -70.5986C423.145 -50.2446 409.957 -36.805 397.203 -23.8046C388.875 -15.3174 385.535 -7.52194 387.276 -0.639084C390.884 13.629 415.552 21.6138 433.563 27.442C435.057 27.9259 436.511 28.3967 437.908 28.857C442.841 30.4797 447.8 32.5917 452.593 34.6352C460.876 38.1648 469.44 41.8153 478.407 43.2092C483.2 43.9535 487.342 44.3322 490.716 44.3322C496.236 44.3322 499.854 43.3617 501.777 41.3655C502.907 40.1925 503.424 38.6592 503.314 36.8076C502.864 29.1437 491.891 16.8587 481.28 4.98134C473.102 -4.17125 465.38 -12.8162 463.446 -18.3236C453.918 -45.4736 450.826 -76.8186 454.251 -111.488C454.812 -117.172 455.984 -123.026 457.118 -128.689C458.5 -135.598 459.929 -142.741 460.27 -149.653C460.484 -154.082 459.953 -158.571 459.441 -162.914C458.494 -170.898 457.598 -178.444 460.855 -185.924C462.051 -188.678 463.867 -190.561 465.621 -192.383Z" fill="#E0E0E0"/>
<path d="M35.06 354.997C33.7377 346.518 27.7697 338.941 16.8182 331.829C14.5759 330.372 12.3148 328.899 10 327.368V328.315C12.1458 329.728 14.2728 331.121 16.373 332.486C27.126 339.467 32.9786 346.87 34.2634 355.115C36.3904 368.755 25.8251 382.823 12.8512 398.477C11.9741 399.534 11.0058 400.836 10 402.233V403.606C11.2472 401.844 12.422 400.245 13.4735 398.974C26.5735 383.17 37.238 368.952 35.06 354.997Z" fill="#E0E0E0"/>
<path d="M58.7869 363.9C65.7607 344.692 58.7467 336.973 27.177 316.472C24.6691 314.844 22.1505 313.208 19.5729 311.499C16.263 309.302 13.1114 307.204 10 305.11V306.067C12.9692 308.061 15.9814 310.068 19.1517 312.172C21.7025 313.863 24.2238 315.501 26.7317 317.129C57.883 337.357 64.8166 344.94 58.0306 363.634C51.8856 380.564 40.0033 394.903 27.421 410.091C21.5657 417.153 15.5951 424.37 10 432.076V433.441C15.7695 425.409 21.9708 417.916 28.0487 410.583C40.6739 395.347 52.5964 380.956 58.7869 363.9Z" fill="#E0E0E0"/>
<path d="M464.465 685.353C454.165 680.756 442.06 678.52 427.461 678.52C397.058 678.52 361.54 688.541 330.206 697.38C304.728 704.568 280.663 711.357 263.99 711.359C254.181 711.359 247.527 709.045 243.645 704.284C238.946 698.517 238.187 689.112 241.323 675.533C248.103 646.171 286.856 610.899 321.046 579.78C341.828 560.867 361.459 542.999 371.756 528.478C404.742 481.958 415.592 399.119 379.17 349.947C369.97 337.526 354.368 325.178 337.848 312.106C302.676 284.275 262.813 252.733 278.847 212.735C286.376 193.948 304.84 185.39 324.386 176.327C336.609 170.662 349.245 164.802 359.244 156.181C367.907 148.711 374.868 141.408 381.6 134.346C398.898 116.199 412.561 101.867 441.089 101.867C445.585 101.867 450.466 102.228 455.595 102.94C527.237 112.895 611.035 128.147 698.966 183.46C795.754 244.34 885.743 308.229 923.331 419.817C939.548 467.963 932.437 524.733 905.642 561.086C887.478 585.727 862.169 598.753 832.447 598.756C821.954 598.756 810.844 597.115 799.423 593.877C763.873 583.794 741.383 563.082 730.673 530.561C721.081 501.444 721.548 465.623 722.001 430.979C722.725 375.427 723.474 317.982 683.42 284.73C664.285 268.839 663.773 268.595 652.717 271.267C647.934 272.424 641.381 274.005 630.307 275.028C622.013 275.793 616.126 275.99 611.397 276.148C595.218 276.69 595.218 276.69 571.834 297.462L571.52 297.741C564.941 303.585 555.451 307.911 545.403 312.49C530.493 319.286 515.076 326.311 509.545 338.859C502.137 355.665 508.834 403.803 513.238 424.483C518.45 448.969 534.414 471.511 548.496 491.405L551.465 495.603C556.406 502.609 561.636 509.734 566.695 516.625C596.339 557.009 626.994 598.769 626.24 650.828C625.752 684.509 588.198 724.262 553.179 728.17C550.953 728.418 548.729 728.547 546.568 728.547C526 728.547 511.315 717.35 495.769 705.497C486.172 698.18 476.25 690.613 464.465 685.353ZM553.332 729.475C588.92 725.506 627.085 685.09 627.581 650.849C628.34 598.354 597.557 556.415 567.784 515.857C562.728 508.971 557.503 501.852 552.568 494.85L549.598 490.655C535.589 470.867 519.708 448.44 514.55 424.215C510.175 403.669 503.494 355.899 510.776 339.382C516.103 327.292 531.287 320.375 545.969 313.682C556.111 309.058 565.692 304.695 572.422 298.714L572.735 298.435C595.754 277.986 595.754 277.986 611.443 277.463C616.19 277.305 622.099 277.105 630.433 276.337C641.607 275.304 648.213 273.71 653.038 272.545C656.107 271.803 658.322 271.269 660.291 271.269C665.133 271.269 669.172 274.623 682.556 285.735C722.124 318.587 721.381 375.717 720.66 430.964C719.753 500.489 718.817 572.382 799.053 595.14C810.592 598.411 821.828 600.071 832.447 600.071C862.617 600.068 888.301 586.855 906.728 561.856C933.765 525.178 940.948 467.932 924.603 419.407C886.877 307.409 796.69 243.367 699.693 182.355C611.531 126.898 527.567 111.614 455.785 101.639C450.592 100.918 445.649 100.552 441.089 100.552C411.979 100.552 398.141 115.068 380.621 133.446C373.91 140.487 366.971 147.767 358.359 155.192C348.502 163.692 335.951 169.512 323.814 175.138C304.02 184.314 285.324 192.983 277.597 212.256C261.203 253.151 301.474 285.017 337.006 313.132C353.453 326.145 368.988 338.438 378.086 350.721C414.173 399.44 403.377 481.576 370.654 527.726C360.44 542.133 340.863 559.952 320.134 578.817C285.802 610.065 246.886 645.484 240.016 675.238C236.784 689.238 237.629 699.003 242.599 705.105C246.749 710.197 253.747 712.674 263.99 712.674C280.851 712.672 305.004 705.857 330.576 698.645C361.827 689.827 397.246 679.835 427.461 679.835C441.864 679.835 453.787 682.031 463.91 686.55C475.55 691.747 485.41 699.263 494.948 706.536C510.679 718.529 525.539 729.862 546.568 729.862C548.78 729.862 551.055 729.73 553.332 729.475Z" fill="#E0E0E0"/>
<path d="M1195.78 399.674L1194.7 401.291C1193.55 403.014 1192.4 404.879 1191.29 406.68C1186.63 414.229 1181.81 422.037 1175.27 422.037C1174.42 422.037 1173.55 421.903 1172.66 421.645C1170.65 421.056 1168.48 419.77 1166.23 417.824C1160.39 412.777 1157.95 402.125 1155.99 393.562C1155.52 391.497 1155.08 389.548 1154.62 387.825C1150.23 371.359 1144.33 356.215 1138.61 341.563C1137.76 339.382 1136.75 336.936 1135.65 334.28C1135.1 332.955 1134.23 331.148 1133.23 329.054C1129.51 321.298 1123.28 308.314 1125.79 303.348C1127.8 299.366 1130.83 297.43 1135.05 297.43C1146.58 297.43 1163.43 311.83 1173.49 320.433C1176.18 322.732 1178.3 324.546 1179.71 325.551C1184.19 328.76 1188.48 331.829 1191.8 334.088C1224.71 356.488 1213.82 372.745 1195.78 399.674ZM1180.5 324.488C1179.14 323.518 1177.04 321.719 1174.37 319.441C1164.17 310.717 1147.09 296.115 1135.05 296.115C1130.34 296.115 1126.82 298.351 1124.59 302.764C1121.79 308.3 1127.95 321.127 1132.01 329.614C1133.01 331.69 1133.87 333.483 1134.41 334.777C1135.5 337.42 1136.51 339.861 1137.36 342.034C1143.06 356.649 1148.95 371.761 1153.32 388.157C1153.78 389.866 1154.22 391.799 1154.69 393.851C1156.69 402.596 1159.17 413.482 1165.34 418.81C1167.74 420.883 1170.07 422.261 1172.28 422.905C1173.29 423.2 1174.29 423.352 1175.27 423.352C1182.57 423.352 1187.58 415.223 1192.43 407.361C1193.54 405.568 1194.68 403.716 1195.82 402.015L1196.91 400.397C1215.39 372.8 1226.55 356.141 1192.57 333.007C1189.26 330.756 1184.97 327.694 1180.5 324.488Z" fill="#E0E0E0"/>
<path d="M1202.48 294.961C1196.57 290.729 1190.66 285.998 1184.41 280.987C1165.29 265.683 1143.62 248.335 1124.15 248.335C1120.32 248.335 1116.67 248.995 1113 250.355C1078.61 263.1 1083.55 298.759 1089.55 318.879C1093.22 331.171 1097.95 343.33 1102.54 355.089C1107.88 368.794 1113.4 382.968 1117.25 397.407C1119.57 406.118 1120.73 415.291 1121.86 424.165C1125.32 451.378 1128.59 477.082 1165.6 477.082C1168.54 477.082 1171.7 476.919 1175 476.6C1179.2 476.193 1182.68 475.543 1185.62 474.615C1195.47 471.506 1198.41 465.654 1202.86 456.791C1204.21 454.111 1205.74 451.076 1207.64 447.809C1210.54 442.794 1213.7 438.031 1217 433.444V432.076C1213.45 436.963 1210.05 442.044 1206.93 447.417C1205.03 450.705 1203.5 453.753 1202.15 456.444C1197.78 465.123 1194.9 470.856 1185.37 473.865C1182.49 474.775 1179.07 475.412 1174.92 475.814C1171.65 476.13 1168.51 476.293 1165.6 476.293C1129.3 476.293 1126.22 452.091 1122.66 424.068C1121.53 415.17 1120.36 405.97 1118.03 397.207C1114.17 382.726 1108.64 368.534 1103.29 354.808C1098.71 343.065 1093.98 330.919 1090.32 318.658C1084.4 298.798 1079.5 263.613 1113.29 251.092C1116.86 249.769 1120.42 249.124 1124.15 249.124C1143.34 249.124 1164.88 266.377 1183.9 281.6C1190.16 286.618 1196.07 291.355 1202 295.6C1206.48 298.803 1210.42 301.62 1213.37 303.624C1214.57 304.44 1215.79 305.252 1217 306.068V305.11C1215.94 304.4 1214.88 303.687 1213.83 302.977C1210.89 300.976 1206.95 298.164 1202.48 294.961Z" fill="#E0E0E0"/>
<path d="M1120.57 -87.5019C1117.04 -87.5019 1113.61 -87.5282 1110.24 -87.5545C1107 -87.5808 1103.82 -87.6071 1100.67 -87.6071C1082.39 -87.6071 1067.83 -86.6471 1051.78 -81.8683C1043.38 -79.3698 1035.52 -75.4431 1027.92 -71.6479C1015.22 -65.3069 1003.23 -59.3209 988.874 -59.3209C986.498 -59.3209 984.087 -59.4918 981.705 -59.8285C971.118 -61.3276 963.192 -67.4477 955.524 -73.368C946.908 -80.0194 938.768 -86.3026 927.347 -86.3026C926.312 -86.3026 925.247 -86.2474 924.19 -86.1422C917.146 -85.4347 905.868 -79.2199 894.959 -73.2076C887.945 -69.344 881.32 -65.6909 876.623 -63.9945C869.786 -61.5249 864.666 -60.3282 860.927 -59.455C849.654 -56.8249 848.232 -55.8545 842.752 -35.5005C841.237 -29.8721 840.14 -24.612 839.078 -19.5255C835.132 -0.64959 832.018 14.2628 811.494 28.5072C797.645 38.0938 780.071 42.7542 757.771 42.7569C735.675 42.7569 712.579 38.22 692.196 34.217C681.54 32.1235 671.474 30.1484 663.996 29.3672C659.65 28.9122 652.956 28.6413 646.084 28.6413C626.399 28.6413 603.334 35.7083 601.722 45.8524C600.958 50.6549 604.783 57.8665 627.354 64.9414L629.872 65.7304C715.891 92.7831 775.884 128.086 836.945 187.586C853.787 204 866.651 211.646 877.425 211.646C879.957 211.646 882.43 211.209 884.783 210.352C896.236 206.16 904.586 191.986 914.258 175.575C919.252 167.101 924.911 157.498 931.601 148.254C963.994 103.485 1010.48 70.7748 1062.5 56.1465C1077.85 51.8306 1092.83 49.6423 1107.03 49.6423C1153.36 49.6423 1186.05 71.8794 1217 94.7662V93.1224C1186.11 70.3172 1153.39 48.3273 1107.03 48.3273C1092.71 48.3273 1077.6 50.5313 1062.13 54.8814C1009.82 69.5913 963.074 102.483 930.506 147.494C923.782 156.786 918.104 166.419 913.096 174.917C903.556 191.108 895.313 205.092 884.313 209.118C882.111 209.923 879.794 210.331 877.425 210.331C867.026 210.331 854.463 202.806 837.887 186.655C776.668 126.995 716.519 91.5996 630.28 64.4785L627.759 63.6868C610.858 58.3899 602.082 52.1251 603.047 46.0549C604.389 37.6283 624.902 29.9564 646.084 29.9564C652.91 29.9564 659.554 30.2246 663.853 30.6744C671.27 31.4502 681.307 33.4202 691.934 35.5084C712.375 39.5219 735.544 44.0719 757.771 44.0719C780.361 44.0692 798.184 39.3299 812.269 29.5803C833.225 15.0361 836.387 -0.0999146 840.389 -19.2625C841.449 -24.3306 842.546 -29.5723 844.05 -35.1638C849.506 -55.4389 850.617 -55.6993 861.235 -58.1768C865.009 -59.0579 870.173 -60.2651 877.082 -62.761C881.883 -64.4916 888.554 -68.1684 895.619 -72.0635C905.905 -77.7313 917.559 -84.1565 924.327 -84.835C925.341 -84.935 926.357 -84.9876 927.347 -84.9876C938.304 -84.9876 946.265 -78.8411 954.695 -72.3344C962.5 -66.3089 970.571 -60.0783 981.512 -58.5266C983.958 -58.1794 986.436 -58.0058 988.874 -58.0058C1003.55 -58.0058 1016.25 -64.3443 1028.53 -70.4749C1036.08 -74.2438 1043.89 -78.1442 1052.17 -80.6085C1068.06 -85.34 1082.51 -86.2921 1100.67 -86.2921C1103.81 -86.2921 1106.99 -86.2658 1110.23 -86.2395C1113.6 -86.2132 1117.04 -86.1869 1120.57 -86.1869C1136.95 -86.1869 1151.61 -84.3117 1165.39 -80.4534C1182.8 -75.5772 1199.88 -68.7628 1217 -60.8253V-62.2797C1200.02 -70.1304 1183.06 -76.8739 1165.76 -81.7184C1151.86 -85.6109 1137.08 -87.5019 1120.57 -87.5019Z" fill="#E0E0E0"/>
<path d="M1203.12 318.103C1200.01 315.986 1195.81 312.982 1191.41 309.831C1185.09 305.313 1179.01 300.439 1172.53 295.25C1171.07 294.08 1169.48 292.759 1167.78 291.347C1156.98 282.36 1142.17 270.049 1128.55 270.049C1124.8 270.049 1121.31 271.009 1118.19 272.9C1094.66 287.173 1108.81 321.261 1117.27 341.629C1118.3 344.109 1119.27 346.452 1120.08 348.514C1125.6 362.677 1131.31 377.321 1135.41 392.757C1136.19 395.655 1136.96 399.064 1137.78 402.672C1141.53 419.197 1146.67 441.831 1159.57 449.987C1161.7 451.333 1163.94 452.172 1166.22 452.483C1166.91 452.575 1167.61 452.625 1168.31 452.625C1184.08 452.625 1199.81 429.128 1211.29 411.972C1213.37 408.863 1215.27 406.052 1217 403.606V402.233C1215.09 404.884 1212.97 408.027 1210.62 411.538C1199.24 428.541 1183.65 451.836 1168.31 451.836C1167.65 451.836 1166.98 451.788 1166.33 451.702C1164.16 451.407 1162.04 450.607 1160.01 449.324C1147.39 441.344 1142.29 418.894 1138.57 402.499C1137.75 398.885 1136.97 395.468 1136.2 392.557C1132.08 377.082 1126.36 362.414 1120.83 348.233C1120.02 346.16 1119.04 343.814 1118.01 341.329C1109.65 321.196 1095.66 287.494 1118.62 273.571C1121.61 271.758 1124.95 270.841 1128.55 270.841C1141.88 270.841 1156.55 283.041 1167.26 291.949C1168.96 293.364 1170.56 294.69 1172.05 295.889C1178.51 301.055 1184.6 305.936 1190.93 310.468C1195.34 313.621 1199.54 316.627 1202.67 318.752C1206.85 321.595 1211.09 324.404 1215.6 327.397C1216.07 327.713 1216.53 328.002 1217 328.315V327.368C1216.67 327.15 1216.35 326.945 1216.02 326.724C1211.54 323.752 1207.31 320.943 1203.12 318.103Z" fill="#E0E0E0"/>
<path d="M1063.7 504.755C1065.22 506.704 1068.08 509.363 1075.24 509.939C1102.05 512.088 1142.56 515.338 1176.77 545.9L1177.16 546.242C1188.86 556.72 1198.36 569.975 1205.39 585.642C1207.34 589.966 1210.5 592.449 1214.06 592.449C1215.03 592.449 1216.02 592.254 1217 591.86V590.918C1216.03 591.371 1215.04 591.66 1214.06 591.66C1210.83 591.66 1207.94 589.351 1206.13 585.324C1199.05 569.557 1189.48 556.212 1177.71 545.66L1177.31 545.313C1142.9 514.573 1102.22 511.312 1075.31 509.153C1068.46 508.603 1065.77 506.107 1064.34 504.276C1060.93 499.897 1060.49 493.149 1060.89 491.068C1064.61 474.972 1069.25 454.939 1067.51 433.012C1064.57 395.894 1049.44 364.002 1034.8 333.157C1023.06 308.406 1009.74 280.351 1014.37 267.563C1022.6 244.803 1056.23 212.169 1070.31 199.198C1079.25 190.953 1089.88 186.773 1101.89 186.773C1108.76 186.773 1114.69 188.191 1118.46 189.38C1143.13 197.178 1178.06 215.049 1217 239.588V238.651C1178.18 214.218 1143.34 196.418 1118.7 188.63C1114.89 187.423 1108.87 185.984 1101.89 185.984C1089.66 185.984 1078.85 190.237 1069.75 198.622C1055.63 211.635 1021.9 244.377 1013.61 267.298C1008.88 280.393 1022.26 308.603 1034.08 333.494C1048.68 364.271 1063.78 396.097 1066.71 433.073C1068.44 454.879 1063.82 474.849 1060.1 490.926C1059.68 493.104 1060.14 500.181 1063.7 504.755Z" fill="#E0E0E0"/>
<path d="M1114.2 480.919C1120.3 484.199 1128.69 485.598 1136.79 486.95C1142.79 487.949 1149 488.988 1154.05 490.771C1157.24 491.899 1160.76 493.604 1164.5 495.405C1172.19 499.122 1180.91 503.338 1188.85 503.338C1190.38 503.338 1191.86 503.18 1193.24 502.869C1193.61 502.785 1193.98 502.693 1194.34 502.588C1205.7 499.264 1211.78 485.29 1217 472.442V470.312C1216.97 470.388 1216.94 470.464 1216.91 470.541C1211.6 483.636 1205.58 498.477 1194.1 501.833C1193.76 501.933 1193.41 502.02 1193.06 502.099C1191.74 502.399 1190.32 502.549 1188.85 502.549C1181.1 502.549 1172.47 498.377 1164.85 494.7C1161.1 492.886 1157.56 491.176 1154.32 490.029C1149.2 488.217 1142.96 487.178 1136.93 486.171C1128.89 484.83 1120.57 483.444 1114.58 480.225C1101.34 473.102 1102.72 460.06 1104.18 446.252C1104.75 440.847 1105.35 435.256 1104.95 430.151C1101.48 386.392 1084.9 351.444 1068.86 317.65C1061.59 302.307 1061.05 285.49 1067.36 270.304C1074.2 253.869 1088.52 240.59 1106.65 233.87C1112.3 231.776 1118.19 230.716 1124.16 230.716C1150.03 230.716 1174.33 250.174 1195.77 267.343C1201.84 272.203 1207.58 276.792 1213.07 280.73C1214.5 281.747 1215.78 282.665 1217 283.536V282.558C1215.92 281.79 1214.78 280.972 1213.55 280.093C1208.07 276.169 1202.34 271.585 1196.28 266.73C1174.73 249.479 1150.32 229.925 1124.16 229.925C1118.09 229.925 1112.11 231.006 1106.37 233.133C1088.02 239.93 1073.54 253.369 1066.62 270.004C1060.22 285.398 1060.76 302.435 1068.14 317.984C1084.14 351.715 1100.69 386.595 1104.14 430.211C1104.54 435.245 1103.95 440.8 1103.38 446.171C1101.95 459.629 1100.48 473.542 1114.2 480.919Z" fill="#E0E0E0"/>
<path d="M1120.57 -60.9384C1098.01 -60.9384 1074.02 -56.9275 1048.58 -52.6747C1019.96 -47.8854 990.36 -42.9356 958.831 -42.933C956.556 -42.933 954.306 -42.9593 952.141 -43.0093C941.198 -43.2644 931.915 -45.0344 923.726 -46.5967C916.645 -47.9485 910.535 -49.1136 904.666 -49.1136C890.727 -49.1136 880.48 -41.9178 869.296 -24.278C863.902 -15.7724 859.97 -5.60987 856.163 4.21603C849.431 21.6007 842.468 39.5798 827.086 50.2315C821.788 53.9004 811.655 56.7356 800.923 59.7391C782.177 64.9887 760.926 70.9327 758.04 83.3492C754.44 98.9112 787.043 120.204 804.56 131.645C807.819 133.775 810.635 135.614 812.481 136.942C833.021 151.715 850.008 161.554 866.152 161.554C868.365 161.554 870.564 161.365 872.697 160.988C885.571 158.721 897.271 149.792 909.505 132.884C945.444 83.2177 997.125 46.8966 1055.03 30.6113C1072.81 25.6115 1090.31 23.0761 1107.03 23.0761C1153.31 23.0761 1187.55 41.405 1217 61.8195V60.849C1187.55 40.495 1153.3 22.2898 1107.03 22.2898C1090.23 22.2898 1072.66 24.833 1054.81 29.8538C996.728 46.1891 944.891 82.6154 908.85 132.429C896.746 149.156 885.212 157.982 872.555 160.213C870.47 160.578 868.317 160.765 866.152 160.765C850.228 160.765 833.37 150.986 812.958 136.305C811.099 134.967 808.275 133.123 805.005 130.987C787.651 119.654 755.347 98.5561 758.826 83.5227C761.604 71.5639 782.612 65.6857 801.146 60.4992C811.942 57.4773 822.142 54.6211 827.552 50.8759C843.133 40.0874 850.139 21.9926 856.915 4.49744C860.707 -5.29688 864.629 -15.4226 869.977 -23.8624C880.995 -41.2366 891.046 -48.3246 904.666 -48.3246C910.457 -48.3246 916.532 -47.1647 923.57 -45.8234C931.791 -44.2533 941.112 -42.4754 952.12 -42.2229C954.295 -42.1703 956.551 -42.144 958.831 -42.144C990.427 -42.1466 1020.06 -47.1016 1048.76 -51.9015C1074.12 -56.1438 1098.08 -60.1493 1120.57 -60.1493C1134.45 -60.1493 1146.73 -58.6002 1158.1 -55.4179C1177.59 -49.9605 1197.1 -41.6311 1217 -31.8657V-32.7494C1197.19 -42.457 1177.75 -50.7364 1158.32 -56.1753C1146.88 -59.3814 1134.53 -60.9384 1120.57 -60.9384Z" fill="#E0E0E0"/>
<path d="M1096.82 495.087C1102.31 496.436 1107.67 497.654 1112.85 498.832C1140.9 505.21 1165.12 510.717 1189.33 532.215L1189.82 532.647C1195.39 537.586 1199.78 539.99 1203.26 539.99C1203.8 539.99 1204.33 539.929 1204.83 539.816C1210.09 538.622 1212.71 531.426 1215.6 522.14C1216.04 520.704 1216.53 519.273 1217 517.84V515.249C1216.25 517.464 1215.52 519.683 1214.82 521.911C1212.02 530.948 1209.49 537.949 1204.65 539.046C1201.17 539.848 1196.57 537.568 1190.36 532.058L1189.87 531.629C1165.5 509.992 1141.19 504.466 1113.03 498.064C1107.86 496.889 1102.5 495.668 1097.02 494.319C1077.35 489.48 1080.68 471.345 1083.89 453.806C1085.3 446.142 1086.75 438.217 1086.23 431.584C1083.03 391.152 1067.17 357.73 1051.83 325.396C1050 321.532 1048.04 317.755 1046.13 314.102C1036.28 295.147 1027.77 278.778 1039.93 258.632C1049.09 243.472 1062.8 231.066 1076.07 219.071C1078.46 216.906 1080.84 214.755 1083.18 212.601C1088.3 207.887 1095.27 205.497 1103.89 205.497C1136.93 205.497 1187.76 239.982 1217 260.76V259.786C1187.61 238.922 1137 204.71 1103.89 204.71C1095.06 204.71 1087.9 207.17 1082.63 212.025C1080.29 214.179 1077.91 216.33 1075.52 218.492C1062.22 230.524 1048.46 242.97 1039.24 258.227C1026.85 278.749 1035.87 296.097 1045.42 314.463C1047.31 318.108 1049.28 321.879 1051.11 325.74C1066.41 357.998 1082.24 391.358 1085.42 431.645C1085.94 438.18 1084.5 446.052 1083.1 453.664C1079.82 471.561 1076.42 490.066 1096.82 495.087Z" fill="#E0E0E0"/>
<path d="M537.435 846.484C534.635 841.213 531.987 836.237 533.9 832.2C536.767 826.153 542.155 825.238 547.364 824.349C551.538 823.636 555.854 822.902 558.423 819.41C562.594 813.739 564.606 806.949 566.553 800.384C569.238 791.321 571.775 782.76 579.61 777.886C590.245 771.274 599.378 770.173 608.211 769.107C620.323 767.645 631.763 766.267 644.759 750.678C661.557 730.527 673.906 698.743 677.793 665.651C685.636 598.83 645.4 548.958 609.9 504.96C578.854 466.48 552.042 433.249 563.219 397.125C575.12 358.656 608.034 338.528 634.394 338.528C648.157 338.528 660.034 343.559 668.74 353.085C681.188 366.701 686.143 388.491 683.061 416.096C674.95 488.683 677.715 578.315 771.864 627.552C802.361 643.498 833.852 651.252 868.145 651.249C912.096 651.249 952.847 638.372 988.802 627.008C1017.8 617.842 1042.85 609.926 1064.67 609.926C1093.33 609.926 1111.97 623.884 1125.12 655.173C1157.86 733.149 1126.36 798.075 1104.66 829.838C1069.72 880.998 1017.53 911.57 987.249 911.57C977.987 911.57 970.809 908.94 965.92 903.75C919.268 854.269 859.57 829.18 788.48 829.18C766.797 829.18 743.649 831.513 719.681 836.116C709.242 838.123 697.912 839.861 685.92 841.702C655.404 846.386 620.82 851.694 595.618 862.9C590.138 865.336 581.75 873.36 572.033 882.652C557.769 896.297 541.6 911.759 531.866 911.759C531.003 911.759 530.198 911.63 529.477 911.378C525.174 909.86 522.575 907.617 521.527 904.518C518.85 896.594 527.06 884.446 533.655 874.686C537.612 868.831 541.029 863.776 541.675 860.397C542.51 856.033 539.929 851.178 537.435 846.484ZM532.365 873.847C525.585 883.88 517.144 896.37 520.059 904.997C521.248 908.516 524.241 911.143 528.954 912.806C529.844 913.119 530.826 913.276 531.866 913.276C542.231 913.276 558.638 897.583 573.114 883.738C582.324 874.928 591.026 866.606 596.256 864.281C621.265 853.161 655.742 847.867 686.161 843.201C698.167 841.355 709.51 839.616 719.979 837.607C743.851 833.018 766.896 830.695 788.48 830.695C859.122 830.695 918.436 855.62 964.783 904.779C969.978 910.289 977.536 913.084 987.249 913.084C1017.51 913.084 1069.39 884.204 1105.95 830.682C1127.81 798.669 1159.56 733.223 1126.54 654.6C1113.31 623.087 1093.65 608.411 1064.67 608.411C1042.6 608.411 1017.45 616.362 988.324 625.567C952.482 636.894 911.852 649.734 868.145 649.734C834.115 649.734 802.859 642.039 772.593 626.214C679.263 577.405 676.54 488.375 684.595 416.262C687.728 388.217 682.642 366.02 669.888 352.07C660.884 342.218 648.61 337.01 634.394 337.01C607.462 337.01 573.859 357.509 561.738 396.686C550.328 433.567 577.373 467.087 608.688 505.902C643.999 549.669 684.024 599.279 676.256 665.475C672.404 698.29 660.181 729.785 643.56 749.719C630.958 764.836 619.817 766.18 608.023 767.603C599.019 768.689 589.709 769.81 578.784 776.606C570.453 781.787 567.838 790.616 565.067 799.961C563.157 806.402 561.183 813.066 557.168 818.521C554.968 821.514 551.146 822.166 547.101 822.853C541.758 823.765 535.707 824.796 532.499 831.563C530.265 836.276 533.21 841.821 536.061 847.183C538.438 851.652 540.892 856.27 540.157 860.118C539.567 863.192 536.23 868.132 532.365 873.847Z" fill="#E0E0E0"/>
<path d="M1180.64 694.351C1184.09 696.51 1189.68 697.699 1196.4 697.699C1202.38 697.699 1209.46 696.72 1217 694.469V692.546C1209.46 694.855 1202.37 695.858 1196.4 695.858C1190.13 695.858 1184.75 694.742 1181.65 692.799C1165.89 682.928 1158.93 665.507 1151.56 647.065C1145.19 631.148 1138.61 614.691 1125.84 603.088L1125.8 602.546L1125.25 602.559C1110.56 589.856 1090.77 583.68 1064.75 583.68C1039.39 583.68 1012.7 589.651 991.253 594.45C976.603 597.728 963.948 600.56 955.805 600.56C951.022 600.56 948.112 599.595 946.913 597.609C945.315 594.966 946.519 590.016 950.494 582.899C969.028 549.716 1006.46 470.601 1003.86 437.862C1001.82 412.027 989.161 385.348 976.917 359.547C959.19 322.185 940.857 283.552 954.201 246.647C969.431 204.539 1036.51 129.275 1084.25 122.892C1087.03 122.521 1090.04 122.332 1093.18 122.332C1124.23 122.332 1169.65 140.477 1217 166.751V164.784C1169.64 138.57 1124.25 120.491 1093.18 120.491C1089.95 120.491 1086.86 120.685 1084 121.069C1035.66 127.534 967.805 203.527 952.431 246.031C938.829 283.646 957.328 322.626 975.213 360.326C987.388 385.976 999.976 412.503 1002 438.004C1004.3 467.193 971.646 541.194 948.847 582.016C944.411 589.961 943.282 595.213 945.299 598.548C946.865 601.141 950.301 602.398 955.805 602.398C964.16 602.398 976.909 599.548 991.672 596.244C1013.03 591.468 1039.61 585.521 1064.75 585.521C1090.46 585.521 1109.93 591.623 1124.28 604.182L1124.29 604.184C1136.92 615.512 1143.47 631.895 1149.81 647.735C1157.3 666.467 1164.37 684.159 1180.64 694.351Z" fill="#E0E0E0"/>
<path d="M582.032 831.395C593.04 824.694 608.114 815.509 623.156 802.362C645.958 782.429 664.706 757.33 678.882 727.763C687.8 709.163 693.586 688.954 696.08 667.706C704.787 593.475 660.179 538.188 624.328 493.759C596.492 459.253 572.449 429.454 580.831 402.364C590.13 372.303 614.817 356.575 634.394 356.575C642.9 356.575 649.844 359.452 655.034 365.131C663.767 374.683 667.225 392.086 664.763 414.131C656.703 486.271 658.143 588.533 763.206 643.475C796.433 660.852 830.76 669.297 868.145 669.297C914.998 669.297 957.208 655.954 994.485 644.174C1021.99 635.479 1045.75 627.976 1064.67 627.976C1079.79 627.976 1095.52 632.103 1108.1 662.046C1137.59 732.268 1109.02 791.024 1089.37 819.796C1064.66 855.981 1023.02 885.422 996.559 885.422C989.488 885.422 983.732 883.386 979.452 879.37C949.175 850.952 921.003 832.886 890.788 822.516C864.784 813.595 836.108 809.786 794.912 809.786C750.473 809.786 704.21 816.843 664.645 829.654C617.534 844.911 587.359 846.097 579.232 846.097C575.396 846.097 572.379 845.868 570.729 845.45C568.259 844.827 566.934 844.059 566.794 843.167C566.44 840.889 572.982 836.908 582.032 831.395ZM570.528 846.215C572.242 846.649 575.332 846.886 579.232 846.886C587.389 846.886 617.674 845.697 664.897 830.403C704.387 817.616 750.559 810.575 794.912 810.575C867.919 810.575 916.425 821.301 978.896 879.938C983.333 884.099 989.277 886.211 996.559 886.211C1023.71 886.211 1064.77 857.233 1090.04 820.233C1109.78 791.331 1138.47 732.308 1108.84 661.748C1096.09 631.374 1080.07 627.184 1064.67 627.184C1045.62 627.184 1021.81 634.709 994.201 643.435C957.015 655.186 914.872 668.508 868.145 668.508C830.894 668.508 796.693 660.091 763.581 642.778C658.95 588.06 657.529 486.129 665.565 414.218C668.051 391.944 664.521 374.325 655.632 364.605C650.284 358.753 643.138 355.786 634.394 355.786C614.519 355.786 589.473 371.706 580.061 402.136C571.558 429.622 595.719 459.568 623.706 494.253C659.457 538.565 703.947 593.709 695.278 667.614C692.794 688.78 687.033 708.903 678.152 727.429C664.022 756.899 645.338 781.913 622.619 801.773C607.631 814.876 592.589 824.039 581.606 830.727C571.604 836.816 565.566 840.492 566 843.288C566.196 844.551 567.637 845.484 570.528 846.215Z" fill="#E0E0E0"/>
<path d="M645.558 414.768C643.954 429.112 644.349 439.53 644.633 447.139C645.1 459.479 645.277 464.097 636.868 466.966C634.913 467.635 632.877 467.666 630.817 467.061C623.921 465.028 614.442 453.85 607.235 439.243C599.588 423.747 596.986 409.631 600.28 401.483C605.298 389.075 620.544 375.249 634.395 375.249C638.188 375.249 639.741 376.377 640.854 377.595C644.778 381.887 647.653 396.034 645.558 414.768ZM634.395 373.934C620.007 373.934 604.212 388.199 599.033 400.997C595.605 409.481 598.217 423.994 606.028 439.816C613.388 454.734 623.194 466.188 630.428 468.321C631.533 468.647 632.643 468.81 633.73 468.81C634.937 468.81 636.141 468.608 637.308 468.208C646.65 465.02 646.438 459.4 645.974 447.089C645.69 439.522 645.295 429.159 646.889 414.912C649.029 395.795 645.974 381.227 641.854 376.716C640.532 375.272 638.713 373.934 634.395 373.934Z" fill="#E0E0E0"/>
<path d="M401.797 266.725C384.797 257.532 376.238 249.195 375.627 241.231C374.825 230.766 387.437 221.29 402.041 210.315C406.826 206.72 411.772 203.001 416.617 198.99C446.987 173.82 459.967 169.391 476.009 169.391C480.628 169.391 485.461 169.783 491.056 170.233L493.682 170.443C554.515 175.256 598.729 198.93 601.011 203.032C601.473 203.861 601.376 204.279 601.263 204.518C600.684 205.765 597.318 206.483 591.744 207.669C579.186 210.347 555.816 215.325 520.767 234.506C486.03 253.519 463.644 289.28 456.869 316.288C455.219 322.868 453.529 326.066 451.705 326.066C449.085 326.066 445.558 319.862 441.097 312.009C433.241 298.191 421.375 277.305 401.797 266.725ZM451.703 326.855H451.705C454.017 326.855 455.852 323.655 457.649 316.477C464.384 289.635 486.631 254.092 521.159 235.195C556.103 216.072 579.398 211.109 591.913 208.44C598.128 207.117 601.247 206.452 601.996 204.845C602.285 204.226 602.194 203.511 601.717 202.654C599.313 198.335 556.012 174.583 493.749 169.657L491.121 169.447C485.509 168.994 480.663 168.602 476.009 168.602C459.768 168.602 446.66 173.06 416.096 198.385C411.271 202.385 406.328 206.099 401.55 209.689C386.761 220.801 373.991 230.401 374.825 241.289C375.466 249.655 383.915 257.956 401.411 267.414C420.782 277.886 432.584 298.653 440.392 312.395C445.343 321.101 448.61 326.853 451.703 326.855Z" fill="#E0E0E0"/>
<path d="M373.618 274.018C354.491 260.886 345.463 250.092 345.211 240.048C344.892 227.371 358.402 217.09 375.507 204.071C383.237 198.188 391.232 192.105 399.014 185.009C430.444 156.352 446.197 147.615 466.434 147.615C470.068 147.615 474.094 147.899 478.743 148.48C520.263 153.669 563.52 166.091 610.987 186.453C622.247 191.284 635.559 197.157 648.892 204.082C650.394 204.86 652.693 205.844 655.356 206.983C664.191 210.754 677.541 216.456 679.196 222.295C679.663 223.936 679.566 225.193 678.914 226.035C678.051 227.147 676.323 227.382 675.025 227.382C672.225 227.382 668.824 226.33 666.917 225.291C664.433 223.939 662.62 221.422 660.863 218.989C658.285 215.415 655.622 211.722 650.727 211.315C645.679 210.881 643.984 213.408 642.326 215.83C641.213 217.456 640.159 218.992 638.136 219.775C636.913 220.249 635.792 220.478 634.703 220.478C631.828 220.478 629.647 218.823 627.338 217.072C625.112 215.386 622.813 213.639 619.642 213.09C619.015 212.979 618.358 212.924 617.698 212.924C612.143 212.924 606.29 216.79 600.631 220.53C596.194 223.46 592.005 226.227 587.987 227.266C567.291 232.613 549.626 239.34 533.975 247.828C483.222 275.348 468.049 326.871 461.053 363.234C460.018 368.608 458.618 371.222 456.773 371.222C453.165 371.222 447.387 362.153 439.389 349.605C425.661 328.057 404.912 295.497 373.618 274.018ZM456.773 372.011C459.101 372.011 460.713 369.268 461.845 363.379C468.81 327.176 483.909 275.88 534.364 248.519C549.956 240.061 567.562 233.36 588.191 228.029C592.34 226.955 596.785 224.02 601.079 221.182C606.639 217.511 612.39 213.713 617.698 213.713C618.312 213.713 618.918 213.763 619.5 213.863C622.478 214.381 624.698 216.067 626.847 217.695C629.266 219.533 631.552 221.267 634.703 221.267C635.897 221.267 637.114 221.019 638.429 220.509C640.687 219.636 641.859 217.924 642.994 216.27C644.601 213.924 646.103 211.722 650.66 212.101C655.179 212.477 657.62 215.862 660.206 219.444C662.014 221.95 663.88 224.541 666.525 225.98C668.462 227.034 671.948 228.171 675.025 228.171C677.179 228.171 678.702 227.613 679.555 226.514C680.368 225.464 680.507 223.976 679.971 222.082C678.214 215.883 664.653 210.092 655.681 206.257C653.031 205.126 650.743 204.15 649.27 203.385C635.91 196.447 622.585 190.569 611.309 185.732C563.772 165.339 520.443 152.896 478.845 147.696C474.164 147.11 470.103 146.826 466.434 146.826C445.955 146.826 430.074 155.613 398.466 184.43C390.709 191.502 382.73 197.575 375.013 203.448C357.729 216.601 344.076 226.992 344.406 240.069C344.664 250.384 353.799 261.378 373.157 274.665C404.316 296.052 425.012 328.531 438.708 350.024C447.146 363.263 452.717 372.011 456.773 372.011Z" fill="#E0E0E0"/>
<path d="M474.639 662.109C463.693 657.225 450.679 654.847 434.851 654.847C405.526 654.847 372.39 663.321 345.764 670.13C326.862 674.964 310.535 679.138 300.34 679.141H300.332C294.852 679.141 291.467 677.942 289.992 675.469C287.916 672 289.445 665.862 294.665 656.707C307.086 634.93 328.868 615.37 349.935 596.449C367.232 580.916 383.57 566.246 394.787 550.665C417.685 518.857 431.198 482.594 433.867 445.787C436.916 403.706 425.89 363.689 401.093 326.85C392.271 313.745 375.885 302.733 360.038 292.081C330.51 272.234 302.617 253.49 323.26 223.234C333.785 207.809 343.368 202.033 354.459 195.345C361.455 191.129 369.378 186.353 378.492 178.494C386.397 171.677 392.751 165.012 398.896 158.566C414.729 141.957 427.236 128.839 453.38 128.839C457.494 128.839 461.96 129.167 466.654 129.82C530.022 138.625 600.092 153.343 683.034 200.999C792.222 263.739 866.058 322.324 896.759 420.385C911.037 465.98 905.742 516.361 883.589 545.755C870.637 562.94 852.575 572.024 831.35 572.024C819.635 572.024 806.851 569.291 793.362 563.9C768.257 553.866 752.895 530.914 746.396 493.738C740.715 461.228 742.55 422.106 744.173 387.591C744.629 377.868 745.061 368.686 745.332 359.789C746.509 321.298 735.716 289.419 714.127 267.606C694.466 247.741 666.193 236.802 634.51 236.802C592.423 236.802 549.792 255.323 517.547 287.612C497.856 307.333 485.698 327.676 480.376 349.813C475.623 369.581 476.468 390.355 482.959 413.326C495.027 456.002 524.193 498.467 555.076 543.427C565.859 559.126 577.009 575.362 587.231 591.431C610.861 628.589 606.768 654.766 599.175 670.183C590.879 687.026 573.841 699.213 555.771 701.228C553.727 701.457 551.689 701.573 549.706 701.573C530.85 701.573 517.415 691.326 503.189 680.482C494.434 673.804 485.379 666.901 474.639 662.109ZM555.862 702.014C574.2 699.968 591.485 687.607 599.899 670.525C607.581 654.931 611.738 628.475 587.915 591.016C577.685 574.933 566.529 558.692 555.744 542.986C524.899 498.083 495.764 455.668 483.737 413.116C470.13 364.986 481.058 325.283 518.123 288.165C550.216 256.025 592.638 237.591 634.51 237.591C665.973 237.591 694.042 248.446 713.55 268.155C734.986 289.814 745.696 321.49 744.527 359.768C744.256 368.658 743.824 377.836 743.368 387.555C741.748 422.111 739.908 461.278 745.603 493.867C752.15 531.337 767.672 554.484 793.056 564.631C806.644 570.062 819.53 572.813 831.35 572.813C852.838 572.813 871.128 563.618 884.238 546.223C906.533 516.64 911.876 465.977 897.532 420.154C866.753 321.848 792.796 263.156 683.442 200.321C600.379 152.593 530.215 137.857 466.767 129.041C462.038 128.384 457.535 128.05 453.38 128.05C426.885 128.05 414.276 141.279 398.308 158.027C392.177 164.46 385.836 171.111 377.961 177.9C368.898 185.716 361.004 190.474 354.041 194.674C342.867 201.41 333.214 207.227 322.592 222.797C301.507 253.7 329.716 272.661 359.58 292.733C375.365 303.34 391.686 314.307 400.422 327.284C455.357 408.895 433.191 495.95 394.129 550.208C382.963 565.722 366.655 580.364 349.393 595.871C328.278 614.831 306.448 634.435 293.965 656.323C288.592 665.743 287.063 672.137 289.298 675.872C290.931 678.602 294.541 679.93 300.332 679.93H300.34C310.64 679.927 327.01 675.743 345.965 670.893C372.548 664.097 405.631 655.636 434.851 655.636C450.341 655.636 463.618 658.056 474.306 662.829C484.96 667.582 493.975 674.457 502.692 681.103C517.032 692.036 530.574 702.362 549.706 702.362C551.718 702.362 553.789 702.246 555.862 702.014Z" fill="#E0E0E0"/>
<path d="M793.254 343.425C793.388 343.278 793.533 343.217 793.729 343.217C794.099 343.217 794.818 343.441 796.135 344.506C803.726 350.652 865.57 424.223 847.411 494.009C844.732 504.3 839.324 509.968 832.184 509.968H832.181C827.018 509.965 821.243 506.893 815.919 501.315C803.911 488.738 792.055 460.786 794.789 420.073C796.406 395.984 794.59 375.546 793.383 362.019C792.501 352.088 791.862 344.913 793.254 343.425ZM793.453 419.986C790.688 461.12 802.741 489.432 814.94 502.212C820.522 508.061 826.645 511.28 832.181 511.283H832.184C839.995 511.283 845.866 505.263 848.709 494.33C867.034 423.915 804.648 349.692 796.988 343.491C794.778 341.705 793.254 341.473 792.262 342.536C790.473 344.451 791.033 350.731 792.047 362.132C793.249 375.619 795.062 395.997 793.453 419.986Z" fill="#E0E0E0"/>
<path d="M1120.57 -42.528C1099.6 -42.528 1076.35 -38.6407 1051.74 -34.5247C1022.35 -29.6091 991.954 -24.5252 958.831 -24.5226C956.385 -24.5226 953.984 -24.5515 951.699 -24.6041C949.722 -24.6515 947.775 -24.7041 945.86 -24.754C940.852 -24.8882 936.121 -25.0144 931.564 -25.0144C903.03 -25.0144 885.357 -19.3125 873.711 10.7622C866.351 29.7775 858.004 51.3308 837.978 65.2254C832.313 69.1574 826.651 72.5133 821.649 75.4748C810.062 82.3392 800.91 87.7624 800.567 95.2502C800.253 102.136 807.353 110.415 823.588 122.098C839.164 133.302 851.977 138.749 862.759 138.749C863.733 138.749 864.709 138.701 865.661 138.617C881.326 137.189 891.832 124.496 905.13 108.429C911.179 101.123 918.032 92.8463 926.068 84.9666C960.902 50.8101 1003.7 25.8956 1049.85 12.9162C1069.32 7.4431 1088.55 4.66576 1107.03 4.66576C1152.68 4.66576 1187.88 20.8538 1217 39.5614V38.6172C1187.87 19.9674 1152.66 3.87938 1107.03 3.87938C1088.48 3.87938 1069.17 6.66462 1049.64 12.1588C1003.35 25.1723 960.427 50.1579 925.496 84.4091C917.431 92.3177 910.567 100.613 904.508 107.932C891.325 123.855 880.913 136.434 865.586 137.831C864.661 137.915 863.709 137.957 862.759 137.957C852.156 137.957 839.496 132.56 824.066 121.461C808.069 109.95 801.071 101.878 801.371 95.287C801.696 88.22 810.687 82.8941 822.067 76.1507C827.078 73.1814 832.756 69.8175 838.445 65.8698C858.669 51.8358 867.059 30.1642 874.464 11.0437C885.944 -18.605 903.39 -24.2228 931.564 -24.2228C936.11 -24.2228 940.836 -24.0991 945.836 -23.965C947.754 -23.915 949.701 -23.8624 951.678 -23.8177C953.971 -23.7625 956.38 -23.7336 958.831 -23.7336C992.021 -23.7362 1022.45 -28.8254 1051.88 -33.7488C1076.45 -37.857 1099.67 -41.7389 1120.57 -41.7389C1132.68 -41.7389 1143.27 -40.4239 1152.95 -37.7149C1173.74 -31.8894 1195.02 -22.3423 1217 -11.2014V-12.0903C1195.11 -23.1707 1173.91 -32.6626 1153.17 -38.4724C1143.42 -41.1998 1132.76 -42.528 1120.57 -42.528Z" fill="#E0E0E0"/>
<path d="M770.526 301.991C770.78 301.709 771.11 301.578 771.572 301.578C773.248 301.578 776.362 303.39 780.525 306.11C807.744 323.904 880.073 405.036 859.685 495.371C855.903 512.13 843.214 522.955 827.354 522.955C816.182 522.955 805.016 517.645 795.91 508.008C778.363 489.435 770.399 457.354 773.492 417.671C777.456 366.851 773.299 334.848 771.065 317.658C769.914 308.795 769.219 303.445 770.526 301.991ZM772.693 417.608C769.579 457.514 777.615 489.808 795.32 508.548C804.579 518.347 815.957 523.744 827.354 523.744C843.603 523.744 856.606 512.674 860.471 495.539C871.769 445.474 854.286 400.431 837.635 371.459C818.063 337.415 793.024 313.332 780.967 305.452C776.566 302.572 773.457 300.789 771.572 300.789C770.882 300.789 770.33 301.018 769.922 301.47C768.374 303.193 769.007 308.061 770.265 317.758C772.497 334.922 776.646 366.869 772.693 417.608Z" fill="#E0E0E0"/>
<path d="M748.856 267.4C749.076 267.14 749.376 267.019 749.808 267.019C751.972 267.019 756.672 270.012 764.456 274.967C832.906 318.531 898.494 399.253 877.305 495.142C870.462 526.122 848.283 546.933 822.123 546.931C808.476 546.931 795.69 541.118 785.141 530.127C764.6 508.716 754.985 469.691 758.061 420.241C762.653 346.415 754.36 303.403 750.371 282.734C748.692 274.036 747.681 268.787 748.856 267.4ZM757.259 420.196C754.166 469.862 763.863 509.095 784.553 530.666C795.261 541.823 808.248 547.72 822.123 547.72H822.126C848.675 547.72 871.165 526.658 878.091 495.313C888.312 449.061 879.526 403.54 851.976 360.005C824.068 315.901 785.436 287.381 764.895 274.304C754.435 267.645 749.953 264.873 748.233 266.896C746.82 268.571 747.743 273.352 749.58 282.881C753.563 303.519 761.846 346.465 757.259 420.196Z" fill="#E0E0E0"/>
<path d="M426.847 235.038C432.461 219.749 482.012 198.803 505.769 198.803C506.6 198.803 507.405 198.827 508.175 198.877C512.828 199.187 514.875 199.516 515.722 199.779C514.717 200.463 512.072 201.596 509.5 202.698C497.883 207.682 476.256 216.959 465.777 236.366C459.184 248.58 454.364 253.338 448.584 253.338C443.879 253.338 438.118 250.292 429.323 243.157C426.493 240.861 425.683 238.204 426.847 235.038ZM448.586 255.179C456.188 255.179 461.619 248.004 467.437 237.226C477.608 218.387 498.843 209.279 510.251 204.387C516.028 201.909 518.19 200.981 517.914 199.429C517.683 198.125 516.197 197.57 508.303 197.041C484.544 195.46 431.227 217.677 425.079 234.412C423.658 238.288 424.709 241.802 428.126 244.574C437.286 252.007 443.404 255.179 448.584 255.179H448.586Z" fill="#E0E0E0"/>
<path d="M437.09 272.074C432.442 261.204 423.051 256.615 414.766 252.57C407.47 249.006 401.17 245.929 400.258 239.364C399.909 236.868 401.577 233.336 405.083 229.151C419.551 211.869 459.736 188.52 476.747 187.507C481.06 187.252 485.391 187.121 489.632 187.121C526.775 187.121 551.535 197.199 552.042 201.452C552.125 202.128 550.993 202.493 550.312 202.651C523.004 208.995 489.281 220.514 470.755 253.603C455.359 281.098 443.798 287.754 437.09 272.074ZM471.929 254.234C490.201 221.603 523.584 210.21 550.623 203.929C553.219 203.327 553.461 202.022 553.375 201.299C552.742 195.981 527.425 185.806 489.632 185.806C485.367 185.806 481.003 185.937 476.666 186.197C459.398 187.223 418.676 210.841 404.048 228.318C400.247 232.857 398.525 236.634 398.927 239.543C399.936 246.797 406.531 250.018 414.168 253.748C422.244 257.69 431.398 262.161 435.856 272.584C438.45 278.652 441.856 281.729 445.982 281.729C452.985 281.729 461.715 272.479 471.929 254.234Z" fill="#E0E0E0"/>
<path d="M999.311 560.475C1001.23 563.179 1005.9 564.334 1014.94 564.334C1020.59 564.331 1027.33 563.892 1035.14 563.382C1044.81 562.75 1055.77 562.032 1067.1 562.032C1102.97 562.032 1127.15 569.504 1143.28 585.608C1158.27 596.917 1166.54 615.357 1173.84 631.624C1182.71 651.396 1190.37 668.473 1207.28 668.473C1209.07 668.473 1210.97 668.273 1212.91 667.882C1214.21 667.619 1215.58 667.274 1217 666.851V665.47C1215.48 665.938 1214.02 666.314 1212.64 666.59C1210.79 666.966 1208.98 667.158 1207.28 667.158C1191.24 667.158 1183.75 650.447 1175.07 631.095C1167.7 614.684 1159.36 596.081 1144.17 584.627C1127.84 568.316 1103.35 560.717 1067.1 560.717C1055.72 560.717 1044.74 561.435 1035.05 562.069C1027.27 562.577 1020.55 563.016 1014.94 563.019C1006.62 563.019 1002 561.972 1000.41 559.726C999.544 558.498 999.531 556.833 1000.37 554.634C1017.44 509.905 1031.72 453.285 1030.34 435.845C1027.92 405.313 1014.23 376.461 1001 348.564C984.805 314.447 969.511 282.223 979.226 255.35C992.737 217.997 1054.43 153.159 1087.84 148.69C1089.44 148.477 1091.23 148.369 1093.18 148.369C1119.2 148.369 1165.04 166.635 1217 196.839V195.313C1165.1 165.233 1119.29 147.054 1093.18 147.054C1091.17 147.054 1089.32 147.167 1087.66 147.388C1053.88 151.907 991.578 217.266 977.966 254.908C968.063 282.289 983.47 314.752 999.78 349.119C1012.97 376.911 1026.61 405.649 1029 435.948C1030.21 451.223 1017.42 506.194 999.112 554.171C998.109 556.804 998.173 558.866 999.311 560.475Z" fill="#E0E0E0"/>
<path d="M1120.57 -24.3806C1101.17 -24.3806 1078.68 -20.6196 1054.85 -16.6377C1024.7 -11.5933 993.523 -6.37786 958.831 -6.37523C956.294 -6.37523 953.767 -6.40415 951.264 -6.46202L945.358 -6.61455C940.487 -6.74343 935.887 -6.86441 931.563 -6.86441C893.986 -6.86441 892.127 13.387 890.158 34.8299C889.074 46.5915 887.959 58.7528 881.35 69.089C878.989 72.7763 872.651 77.4473 865.94 82.3918C851.649 92.9173 835.454 104.85 843.224 116.02C846.569 120.827 850.595 123.265 855.193 123.265C857.708 123.265 860.436 122.532 863.306 121.08C875.98 114.67 889.536 95.6841 900.428 80.4298C906.608 71.7716 911.948 64.297 914.864 62.5848C917.924 60.7938 921.342 60.5518 924.281 60.5518C925.419 60.5518 926.566 60.5913 927.714 60.6307C928.889 60.6702 930.067 60.7122 931.242 60.7122C935.657 60.7122 940.326 60.1941 944.537 56.4331C949.618 51.8989 950.259 46.0286 950.873 40.3477C951.431 35.2428 951.956 30.4192 955.416 26.3611C965.872 14.1076 1002.56 5.54155 1026.84 -0.12359C1033.98 -1.79105 1040.15 -3.23231 1044.75 -4.52629C1065.87 -10.4676 1086.83 -13.479 1107.03 -13.479C1151.88 -13.479 1187.74 0.933691 1217 18.179V16.6351C1187.72 -0.523355 1151.85 -14.794 1107.03 -14.794C1086.7 -14.794 1065.62 -11.7668 1044.38 -5.79136C1039.81 -4.50526 1033.65 -3.06662 1026.52 -1.4018C1000.61 4.6447 965.132 12.9294 954.389 25.5168C950.664 29.8827 950.092 35.1323 949.54 40.2083C948.923 45.8945 948.338 51.2625 943.636 55.46C939.76 58.9185 935.388 59.3972 931.242 59.3972C930.083 59.3972 928.922 59.3551 927.763 59.3157C926.596 59.2762 925.435 59.2368 924.281 59.2368C921.159 59.2368 917.517 59.4998 914.18 61.4565C911.012 63.3107 905.857 70.5302 899.328 79.6749C889.093 94.014 875.07 113.65 862.692 119.91C855.142 123.726 849.168 122.235 844.332 115.281C837.283 105.147 852.937 93.6142 866.745 83.4438C873.855 78.2047 879.995 73.681 882.487 69.7859C889.268 59.1868 890.397 46.865 891.494 34.9482C893.489 13.2161 895.211 -5.54939 931.563 -5.54939C935.871 -5.54939 940.46 -5.4284 945.321 -5.29953L951.23 -5.14699C953.745 -5.08912 956.283 -5.0602 958.831 -5.0602C993.635 -5.06283 1024.87 -10.2887 1055.1 -15.3411C1078.85 -19.3151 1101.28 -23.0656 1120.57 -23.0656C1130.89 -23.0656 1139.77 -21.9846 1147.72 -19.7596C1169.64 -13.6184 1192.79 -2.71419 1217 9.88115V8.39255C1192.95 -4.09759 1169.94 -14.9019 1148.09 -21.022C1140.02 -23.2812 1131.01 -24.3806 1120.57 -24.3806Z" fill="#E0E0E0"/>
<path d="M1039.82 526.216C1044.81 533.249 1055.34 534.041 1069.92 535.135C1071.51 535.253 1073.13 535.377 1074.81 535.508C1079.42 535.879 1084.25 536.042 1089.36 536.213C1113.07 537.01 1139.95 537.91 1164.21 559.584L1164.51 559.842C1177.97 571.398 1185.98 591.755 1193.04 609.713C1200.16 627.805 1206.31 643.433 1216.08 643.433C1216.38 643.433 1216.69 643.37 1217 643.341V642.546C1216.69 642.581 1216.38 642.644 1216.08 642.644C1206.86 642.644 1200.8 627.25 1193.79 609.431C1186.69 591.384 1178.65 570.933 1165.04 559.253L1164.75 558.997C1140.27 537.131 1113.24 536.224 1089.39 535.424C1084.28 535.253 1079.47 535.09 1074.88 534.725C1073.2 534.59 1071.57 534.467 1069.98 534.349C1055.62 533.27 1045.25 532.492 1040.48 525.764C1035.96 519.394 1036.6 507.467 1042.55 487.1C1048.07 468.25 1050.1 451.026 1048.79 434.441C1046.12 400.639 1031.71 370.283 1017.78 340.908C1003.23 310.252 989.486 281.295 996.672 261.412C1008.64 228.307 1066.42 169.873 1090.34 166.672C1090.87 166.601 1091.8 166.517 1093.18 166.517C1113.16 166.517 1158.37 182.826 1217 218.032V217.106C1158.43 181.995 1113.22 165.728 1093.18 165.728C1091.75 165.728 1090.79 165.817 1090.23 165.891C1066.13 169.113 1007.95 227.871 995.913 261.149C988.614 281.335 1002.42 310.433 1017.05 341.258C1030.95 370.551 1045.32 400.842 1047.99 434.501C1049.3 450.992 1047.27 468.126 1041.78 486.884C1035.67 507.777 1035.08 519.541 1039.82 526.216Z" fill="#E0E0E0"/>
<path d="M452.095 714.694C449.421 713.916 446.223 713.537 442.323 713.537C425.852 713.537 400.373 720.388 370.872 728.326C333.675 738.33 291.515 749.669 257.368 749.671C234.167 749.671 217.644 744.506 206.856 733.878C196.978 724.149 192.018 709.513 192.11 690.377C192.271 656.835 238.413 619.978 279.124 587.455C303.39 568.071 326.312 549.761 337.566 533.888C360.695 501.262 381.147 465.938 374.19 428.697C370.142 407.035 357.562 394.195 344.251 380.606C336.909 373.11 329.316 365.362 322.895 355.799C316.913 346.896 313.735 338.93 310.932 331.903C305.407 318.053 301.043 307.117 279.655 297.441C273.314 294.574 268.338 292.491 264.342 290.818C248.841 284.325 248.841 284.325 242.737 268.655C241.446 265.344 239.891 261.351 237.874 256.475C230.079 237.626 223.993 233.938 216.113 233.938C214.439 233.938 212.725 234.101 210.909 234.272C208.89 234.462 206.8 234.661 204.528 234.661C199.547 234.661 192.614 233.836 183.119 227.395C175.863 222.474 172.814 218 174.056 214.102C178.94 198.756 247.2 193.012 260.772 193.012C261.099 193.012 261.322 193.015 261.429 193.03L261.641 192.181L262.057 192.988C270.972 188.57 275.808 182.905 280.486 177.426C286.706 170.138 292.583 163.253 307.499 158.592C312.804 156.933 317.294 155.66 320.902 154.637C340.388 149.111 340.651 148.832 349.014 124.712L350.071 121.664C351.632 117.174 350.371 114.002 349.258 111.204C347.818 107.58 346.573 104.45 351.557 98.7165C354.215 95.663 363.764 92.0467 372.189 88.8538C377.867 86.7024 383.234 84.6694 386.096 82.9625C390.554 80.3035 393.585 76.6924 396.514 73.1997C400.317 68.6708 403.906 64.3916 410.386 62.1166C414.758 60.5807 420.144 59.7996 426.391 59.7996C442.286 59.7996 460.973 64.6678 475.988 68.5787C479.427 69.4755 482.645 70.3145 485.561 71.022C534.321 82.8625 580.718 104.384 625.589 125.196L630.21 127.342C736.837 176.766 817.419 232.026 876.562 296.273C916.272 339.409 941.901 381.424 954.915 424.717C970.195 475.567 959.222 537.581 927.607 579.036C911.203 600.55 882.076 626.193 836.489 626.195C824.698 626.198 812.395 624.404 799.928 620.869C691.209 590.037 694.796 484.909 706.689 388.791C710.243 360.063 704.747 336.713 690.786 321.264C678.981 308.2 661.136 301.005 640.537 301.005C602.659 301.005 554.328 326.543 539.361 373.87C522.203 428.136 558.82 474.389 594.228 519.118C631.978 566.801 671.01 616.104 649.211 676.892C636.634 711.956 589.811 757.84 550.532 762.227C548.344 762.469 546.16 762.593 544.036 762.593C523.195 762.593 508.413 750.999 492.765 738.722C480.631 729.204 468.081 719.36 452.095 714.694ZM550.744 764.055C590.669 759.597 638.228 713.061 650.984 677.505C673.123 615.767 633.77 566.062 595.714 517.99C558.981 471.593 524.287 427.768 541.155 374.415C555.854 327.929 603.329 302.843 640.537 302.843C660.592 302.843 677.935 309.821 689.38 322.487C702.971 337.528 708.314 360.378 704.824 388.57C692.835 485.44 689.27 591.402 799.405 622.634C812.044 626.222 824.521 628.036 836.489 628.036C882.854 628.034 912.45 601.988 929.115 580.138C961.062 538.244 972.156 475.575 956.717 424.199C943.623 380.632 917.86 338.386 877.957 295.04C818.642 230.609 737.867 175.209 631.012 125.677L626.391 123.531C581.437 102.683 534.954 81.1188 486.011 69.2336C483.107 68.5287 479.896 67.6924 476.471 66.8008C461.351 62.8609 442.533 57.9612 426.391 57.9612C419.927 57.9612 414.329 58.7765 409.753 60.3834C402.785 62.8294 398.861 67.5083 395.063 72.0293C392.233 75.4037 389.307 78.8911 385.12 81.3897C382.4 83.0124 377.11 85.0165 371.51 87.1364C362.458 90.566 353.097 94.1113 350.13 97.5225C344.417 104.092 345.989 108.048 347.509 111.872C348.601 114.62 349.634 117.216 348.293 121.072L347.236 124.118C339.109 147.559 339.109 147.559 320.379 152.869C316.76 153.895 312.257 155.173 306.927 156.838C291.491 161.659 285.164 169.076 279.046 176.245C274.338 181.761 269.889 186.971 261.515 191.192C261.289 191.171 261.04 191.171 260.772 191.171C251.108 191.171 177.883 195.897 172.264 213.553C170.748 218.31 174.042 223.476 182.049 228.91C192.083 235.716 199.684 236.503 204.528 236.503C206.891 236.503 209.026 236.3 211.092 236.105C212.859 235.937 214.528 235.779 216.113 235.779C222.003 235.779 227.966 237.415 236.136 257.167C238.145 262.027 239.695 266.012 240.982 269.312C247.312 285.558 247.522 285.777 263.604 292.51C267.59 294.18 272.552 296.257 278.869 299.114C299.57 308.477 303.811 319.11 309.181 332.573C312.021 339.685 315.237 347.749 321.326 356.812C327.843 366.514 335.496 374.325 342.896 381.879C356.012 395.266 368.399 407.911 372.344 429.031C379.176 465.607 358.925 500.539 336.024 532.836C324.92 548.498 302.099 566.727 277.935 586.029C236.905 618.805 190.398 655.957 190.232 690.366C190.138 710.013 195.283 725.088 205.526 735.177C216.684 746.171 233.641 751.512 257.368 751.512C291.77 751.51 334.058 740.135 371.368 730.101C400.738 722.2 426.104 715.378 442.323 715.378C445.987 715.378 449.096 715.743 451.558 716.462C467.196 721.022 479.598 730.751 491.593 740.161C507.507 752.643 522.538 764.434 544.036 764.434C546.23 764.434 548.488 764.307 550.744 764.055Z" fill="#E0E0E0"/>
<path d="M795.83 6.8329C786.737 13.1319 774.286 16.1933 757.772 16.1933C738.368 16.1933 716.667 11.9326 697.518 8.17159C686.231 5.95445 675.572 3.86095 666.866 2.95357C662.601 2.50645 651.156 1.47021 637.05 1.47021C610.92 1.47021 577.408 4.94189 566.148 21.4823C561.25 28.6729 561.049 37.7097 565.55 48.3431C567.666 53.3349 573.133 56.0491 578.419 58.6713C582.601 60.7464 586.927 62.8925 589.325 66.0907C592.171 69.8858 593.85 75.2012 595.473 80.343C597.635 87.189 599.869 94.2691 604.947 98.4509C611.242 103.637 618.149 106.052 626.689 106.052C632.614 106.052 638.676 104.876 644.534 103.743C650.324 102.62 656.311 101.46 662.094 101.46C667.644 101.46 672.474 102.538 676.865 104.755C687.527 110.144 692.012 117.398 696.351 124.412C702.006 133.56 707.346 142.199 724.952 146.239C761.787 154.692 771.883 163.521 796.272 184.856C799.416 187.607 802.795 190.561 806.497 193.746C815.276 201.302 821.761 209.926 828.027 218.266C833.619 225.706 839.405 233.402 846.846 240.427C856.003 249.069 864.626 252.914 872.965 256.633C884.083 261.588 894.578 266.27 904.103 282.305L905.589 284.819C917.57 305.136 929.683 323.936 937.126 323.936C938.323 323.936 939.355 323.476 940.2 322.569C942.885 319.689 943.609 312.033 942.421 299.164C941.724 291.621 936.166 284.882 930.791 278.363C924.995 271.335 919.52 264.694 919.848 257.359C920.239 248.561 925.665 244.232 931.405 239.651C935.611 236.297 939.956 232.828 942.502 227.458C948.614 214.555 950.098 202.996 951.527 191.821C953.523 176.264 955.403 161.57 969.605 144.945C995.017 115.202 1030.66 92.7332 1069.98 81.6764C1083.07 77.9943 1095.2 76.2032 1107.03 76.2032C1147.2 76.2032 1176.02 97.6277 1206.53 120.309C1209.99 122.879 1213.48 125.462 1217 128.039V125.74C1213.86 123.439 1210.75 121.135 1207.67 118.844C1176.9 95.9681 1147.83 74.3622 1107.03 74.3622C1095.02 74.3622 1082.73 76.1769 1069.46 79.9064C1029.79 91.0631 993.815 113.742 968.162 143.764C953.609 160.802 951.694 175.756 949.666 191.589C948.252 202.627 946.79 214.039 940.798 226.682C938.438 231.668 934.262 235.001 930.222 238.223C924.41 242.859 918.402 247.654 917.973 257.277C917.613 265.31 923.57 272.534 929.329 279.52C934.53 285.824 939.903 292.344 940.552 299.329C941.949 314.468 940.377 319.647 938.814 321.327C938.325 321.85 937.789 322.095 937.126 322.095C929.74 322.095 913.957 295.329 907.217 283.899L905.726 281.377C895.901 264.836 885.137 260.039 873.743 254.958C865.549 251.302 857.073 247.522 848.149 239.101C840.821 232.184 835.084 224.554 829.54 217.174C823.21 208.755 816.668 200.05 807.733 192.362C804.04 189.183 800.663 186.229 797.522 183.481C772.881 161.927 762.68 153.006 725.381 144.445C708.545 140.582 703.4 132.266 697.955 123.457C693.481 116.225 688.86 108.745 677.723 103.119C673.062 100.763 667.949 99.6186 662.094 99.6186C656.129 99.6186 650.048 100.797 644.171 101.936C638.397 103.056 632.431 104.211 626.689 104.211C618.615 104.211 612.092 101.933 606.154 97.0412C601.5 93.2066 599.349 86.3921 597.267 79.7985C595.599 74.5121 593.872 69.0442 590.838 64.9992C588.177 61.446 583.647 59.1999 579.267 57.0275C574.055 54.4422 569.134 52.0015 567.286 47.6356C563.04 37.6072 563.182 29.1542 567.709 22.5054C578.508 6.6409 611.379 3.31125 637.05 3.31125C651.067 3.31125 662.432 4.33961 666.667 4.78409C675.285 5.68356 685.907 7.7692 697.148 9.97581C716.382 13.7552 738.181 18.0343 757.772 18.0343C774.688 18.0317 787.491 14.8625 796.916 8.3373C820.388 -7.93487 813.656 -32.4785 807.143 -56.2122C800.188 -81.5659 793 -107.782 821.912 -124.891C825.377 -126.942 830.012 -127.981 835.682 -127.981C852.969 -127.981 877.326 -118.713 900.882 -109.75C921.393 -101.946 940.769 -94.5715 953.373 -94.2822C955.189 -94.2402 956.994 -94.2191 958.812 -94.2191H958.831C985.924 -94.2217 1013.31 -98.8007 1039.8 -103.23C1066.24 -107.653 1093.58 -112.224 1120.57 -112.224C1139.45 -112.224 1156.5 -110.02 1172.68 -105.492C1187.65 -101.302 1202.42 -95.7708 1217 -89.4429V-91.447C1202.59 -97.6697 1188 -103.117 1173.2 -107.262C1156.85 -111.84 1139.63 -114.066 1120.57 -114.066C1093.42 -114.066 1066 -109.479 1039.48 -105.044C1013.07 -100.629 985.763 -96.0601 958.831 -96.0601C956.994 -96.0023 955.223 -96.0812 953.413 -96.1233C941.139 -96.4047 921.913 -103.721 901.557 -111.467C877.844 -120.491 853.323 -129.822 835.682 -129.822C829.58 -129.822 824.757 -128.725 820.943 -126.466C790.817 -108.642 798.195 -81.7448 805.333 -55.7335C811.966 -31.5449 818.234 -8.69758 795.83 6.8329Z" fill="#E0E0E0"/>
</g>
</svg>
