<svg width="558" height="413" viewBox="0 0 558 413" fill="none" xmlns="http://www.w3.org/2000/svg">
<g filter="url(#filter0_d_31_166)">
<path d="M514.949 404.352V358.437C514.949 358.437 532.843 390.989 514.949 404.352Z" fill="#F1F1F1"/>
<path d="M516.055 404.344L482.231 373.293C482.231 373.293 518.312 382.126 516.055 404.344Z" fill="#F1F1F1"/>
<path d="M369.934 283.067C369.859 282.226 369.969 281.379 370.256 280.586C370.544 279.792 371.002 279.071 371.598 278.474C372.194 277.876 372.914 277.417 373.707 277.128C374.5 276.839 375.346 276.727 376.187 276.801L382.285 265.102L390.297 267.074L381.455 283.473C381.237 284.877 380.513 286.153 379.418 287.059C378.323 287.965 376.934 288.437 375.514 288.387C374.094 288.337 372.741 287.767 371.713 286.787C370.685 285.806 370.052 284.483 369.934 283.067Z" fill="#FFB7B7"/>
<path d="M406.331 397.034L399.569 397.034L396.352 370.954L406.332 370.954L406.331 397.034Z" fill="#FFB7B7"/>
<path d="M408.055 403.589L386.253 403.588V403.312C386.253 401.061 387.147 398.903 388.739 397.312C390.33 395.72 392.488 394.826 394.739 394.826L408.055 394.827L408.055 403.589Z" fill="#2F2E41"/>
<path d="M460.713 391.984L454.189 393.762L444.223 369.447L453.851 366.822L460.713 391.984Z" fill="#FFB7B7"/>
<path d="M464.1 397.853L443.067 403.589L442.994 403.323C442.402 401.152 442.697 398.834 443.813 396.88C444.93 394.926 446.777 393.496 448.948 392.903L461.795 389.4L464.1 397.853Z" fill="#2F2E41"/>
<path d="M393.987 284.376L390.614 335.594L397.859 393.057L409.726 389.435L410.227 338.092L419.72 308.485L447.828 387.561L460.694 382.814L450.076 331.471L444.08 283.251L393.987 284.376Z" fill="#2F2E41"/>
<path d="M426.777 194.437L406.793 197.383L399.593 204.504L397.358 230.087L398.746 252.748L392.958 292.709C392.958 292.709 407.513 284.63 418.792 294.744C430.071 304.858 445.854 296.531 446.178 289.803L426.777 194.437Z" fill="#CBCBCB"/>
<path d="M416.629 226.522L416.629 226.494L426.557 194.133L426.685 194.125C427.392 194.079 444.036 193.098 447.759 201.316L447.777 201.356L446.646 234.985L448.204 287.654L417.42 294.321L417.196 294.37L416.629 226.522Z" fill="#2F2E41"/>
<path d="M405.627 224.285L407.448 196.852C394.496 197.658 394.691 206.841 394.706 207.242L394.564 248.276L391.97 292.176L401.402 291.469L405.627 224.285Z" fill="#2F2E41"/>
<path d="M376.42 274.202L387.92 247.514L395.946 232.775L400.137 259.363L385.587 281.187L376.42 274.202Z" fill="#2F2E41"/>
<path d="M423.945 264.383C424.121 263.557 424.476 262.781 424.984 262.107C425.493 261.434 426.143 260.88 426.889 260.485C427.635 260.09 428.459 259.864 429.301 259.821C430.144 259.779 430.986 259.922 431.768 260.24L441.045 250.861L448.12 255.109L434.833 268.17C434.211 269.448 433.142 270.453 431.829 270.995C430.515 271.538 429.049 271.579 427.706 271.113C426.364 270.646 425.24 269.703 424.547 268.462C423.854 267.222 423.639 265.771 423.945 264.383Z" fill="#FFB7B7"/>
<path d="M431.746 256.816L450.662 236.066L438.141 218.199L439.429 209.464L446.809 200.348L446.953 200.534C447.74 201.552 466.225 225.567 466.755 234.659C467.287 243.783 440.718 266.865 439.587 267.843L439.43 267.979L431.746 256.816Z" fill="#2F2E41"/>
<path d="M415.246 192.189C422.671 192.189 428.69 186.17 428.69 178.745C428.69 171.32 422.671 165.301 415.246 165.301C407.821 165.301 401.802 171.32 401.802 178.745C401.802 186.17 407.821 192.189 415.246 192.189Z" fill="#FFB7B7"/>
<path d="M427.89 167.997L428.542 166.685L425.263 165.056C425.263 165.056 421.645 159.169 415.098 160.823C408.551 162.477 405.606 163.467 405.606 163.467L402.335 165.113L403.977 166.747L401.031 167.737L402.999 168.715L400.709 170.031L401.942 176.777C401.942 176.777 403.989 171.66 407.924 173.615C411.86 175.571 419.058 172.605 419.058 172.605L425.312 184.708C425.312 184.708 426.602 180.465 428.903 181.596C428.903 181.596 434.779 172.237 427.89 167.997Z" fill="#2F2E41"/>
<path d="M275.768 244.112L71.3227 300.495L4 56.383L208.445 0L275.768 244.112Z" fill="white"/>
<path d="M275.768 244.112L71.3227 300.495L4 56.383L208.445 0L275.768 244.112ZM73.9347 295.894L271.166 241.5L205.833 4.60139L8.60142 58.9951L73.9347 295.894Z" fill="#F1F1F1"/>
<path d="M163.953 109.358L112.705 123.492C111.982 123.69 111.21 123.594 110.558 123.224C109.906 122.853 109.428 122.24 109.228 121.517L95.0942 70.2694C94.8957 69.5464 94.9921 68.7743 95.3622 68.1223C95.7323 67.4703 96.3459 66.9918 97.0684 66.7916L148.316 52.6582C149.039 52.4597 149.811 52.556 150.463 52.9261C151.115 53.2962 151.594 53.9098 151.794 54.6323L165.928 105.88C166.126 106.603 166.03 107.375 165.66 108.027C165.289 108.679 164.676 109.158 163.953 109.358ZM97.369 67.8821C96.9355 68.0021 96.5674 68.2893 96.3453 68.6804C96.1232 69.0716 96.0654 69.5349 96.1845 69.9687L110.318 121.217C110.438 121.65 110.725 122.018 111.116 122.24C111.508 122.462 111.971 122.52 112.405 122.401L163.653 108.268C164.086 108.148 164.454 107.861 164.676 107.469C164.898 107.078 164.956 106.615 164.837 106.181L150.704 54.9331C150.584 54.4996 150.296 54.1314 149.905 53.9094C149.514 53.6873 149.051 53.6295 148.617 53.7486L97.369 67.8821Z" fill="#E5E5E5"/>
<path d="M150.962 119.688L99.7143 133.821C99.0637 134 98.3687 133.913 97.7819 133.58C97.1951 133.247 96.7644 132.694 96.5843 132.044L82.4508 80.7963C82.2721 80.1456 82.3589 79.4507 82.692 78.8639C83.0251 78.2771 83.5773 77.8464 84.2276 77.6663L135.476 63.5328C136.126 63.3542 136.821 63.4409 137.408 63.774C137.995 64.1071 138.425 64.6593 138.605 65.3096L152.739 116.558C152.918 117.208 152.831 117.903 152.498 118.49C152.165 119.077 151.612 119.507 150.962 119.688Z" fill="#16B198"/>
<path d="M210.33 126.684L67.3174 166.125L68.8415 171.651L211.855 132.21L210.33 126.684Z" fill="#F1F1F1"/>
<path d="M214.304 141.093L71.2911 180.534L72.8153 186.06L215.828 146.619L214.304 141.093Z" fill="#F1F1F1"/>
<path d="M218.278 155.502L75.2654 194.943L76.7895 200.47L219.803 161.029L218.278 155.502Z" fill="#F1F1F1"/>
<path d="M225.272 180.863L82.259 220.304L83.7832 225.83L226.796 186.39L225.272 180.863Z" fill="#F1F1F1"/>
<path d="M229.246 195.272L86.2328 234.713L87.7569 240.24L230.77 200.799L229.246 195.272Z" fill="#F1F1F1"/>
<path d="M233.22 209.682L90.207 249.123L91.7312 254.649L234.744 215.208L233.22 209.682Z" fill="#F1F1F1"/>
<path d="M341.212 299.68H129.134V46.4543H341.212V299.68Z" fill="white"/>
<path d="M341.212 299.68H129.134V46.4543H341.212V299.68ZM132.876 295.938H337.47V50.1957H132.876V295.938Z" fill="#E5E5E5"/>
<path d="M302.599 155.312H181.346V161.045H302.599V155.312Z" fill="#16B198"/>
<path d="M302.599 170.218H181.346V175.951H302.599V170.218Z" fill="#16B198"/>
<path d="M302.599 185.123H181.346V190.856H302.599V185.123Z" fill="#16B198"/>
<path d="M171.488 162.76C173.555 162.76 175.23 161.085 175.23 159.019C175.23 156.953 173.555 155.278 171.488 155.278C169.422 155.278 167.747 156.953 167.747 159.019C167.747 161.085 169.422 162.76 171.488 162.76Z" fill="#16B198"/>
<path d="M302.599 91.0854H181.346V96.8183H302.599V91.0854Z" fill="#E5E5E5"/>
<path d="M302.599 105.991H181.346V111.724H302.599V105.991Z" fill="#E5E5E5"/>
<path d="M302.599 120.896H181.346V126.629H302.599V120.896Z" fill="#E5E5E5"/>
<path d="M171.488 97.9098C173.555 97.9098 175.23 96.2347 175.23 94.1684C175.23 92.1021 173.555 90.427 171.488 90.427C169.422 90.427 167.747 92.1021 167.747 94.1684C167.747 96.2347 169.422 97.9098 171.488 97.9098Z" fill="#E5E5E5"/>
<path d="M302.599 220.163H181.346V225.896H302.599V220.163Z" fill="#E5E5E5"/>
<path d="M302.599 235.069H181.346V240.802H302.599V235.069Z" fill="#E5E5E5"/>
<path d="M302.599 249.974H181.346V255.707H302.599V249.974Z" fill="#E5E5E5"/>
<path d="M171.488 226.987C173.555 226.987 175.23 225.312 175.23 223.246C175.23 221.18 173.555 219.505 171.488 219.505C169.422 219.505 167.747 221.18 167.747 223.246C167.747 225.312 169.422 226.987 171.488 226.987Z" fill="#E5E5E5"/>
<path d="M331.311 321.485C355.251 321.485 374.658 302.077 374.658 278.137C374.658 254.197 355.251 234.79 331.311 234.79C307.371 234.79 287.964 254.197 287.964 278.137C287.964 302.077 307.371 321.485 331.311 321.485Z" fill="#16B198"/>
<path d="M343.32 275.372V267.078C343.321 265.5 343.012 263.938 342.409 262.48C341.806 261.022 340.921 259.697 339.806 258.58C338.691 257.464 337.366 256.579 335.909 255.975C334.451 255.371 332.888 255.06 331.311 255.06C329.733 255.06 328.17 255.371 326.713 255.975C325.255 256.579 323.931 257.464 322.815 258.58C321.7 259.697 320.816 261.022 320.213 262.48C319.61 263.938 319.3 265.5 319.301 267.078V275.372C317.696 275.445 316.18 276.133 315.069 277.294C313.958 278.456 313.338 280 313.337 281.607V301.207H349.284V281.607C349.283 280 348.663 278.456 347.552 277.294C346.441 276.133 344.926 275.445 343.32 275.372ZM331.311 259.297C333.374 259.299 335.351 260.12 336.81 261.579C338.269 263.038 339.089 265.015 339.091 267.078V275.358H323.53V267.078C323.532 265.015 324.353 263.038 325.811 261.579C327.27 260.12 329.248 259.299 331.311 259.297Z" fill="white"/>
<path d="M334.542 285.051C334.542 284.494 334.398 283.946 334.124 283.461C333.85 282.976 333.455 282.57 332.978 282.283C332.501 281.995 331.958 281.836 331.401 281.82C330.844 281.805 330.292 281.933 329.8 282.194C329.307 282.454 328.891 282.838 328.59 283.307C328.289 283.776 328.115 284.315 328.084 284.871C328.053 285.427 328.167 285.982 328.414 286.482C328.66 286.981 329.032 287.408 329.493 287.722V294.745H333.128V287.722C333.563 287.426 333.92 287.028 334.166 286.562C334.413 286.097 334.542 285.578 334.542 285.051Z" fill="#16B198"/>
<path d="M553.365 404.095H311.537C311.368 404.095 311.207 404.028 311.088 403.909C310.969 403.79 310.902 403.628 310.902 403.46C310.902 403.292 310.969 403.13 311.088 403.011C311.207 402.892 311.368 402.825 311.537 402.825H553.365C553.534 402.825 553.695 402.892 553.814 403.011C553.933 403.13 554 403.292 554 403.46C554 403.628 553.933 403.79 553.814 403.909C553.695 404.028 553.534 404.095 553.365 404.095Z" fill="#CBCBCB"/>
</g>
<defs>
<filter id="filter0_d_31_166" x="0" y="0" width="558" height="412.353" filterUnits="userSpaceOnUse" color-interpolation-filters="sRGB">
<feFlood flood-opacity="0" result="BackgroundImageFix"/>
<feColorMatrix in="SourceAlpha" type="matrix" values="0 0 0 0 0 0 0 0 0 0 0 0 0 0 0 0 0 0 127 0" result="hardAlpha"/>
<feOffset dy="4"/>
<feGaussianBlur stdDeviation="2"/>
<feComposite in2="hardAlpha" operator="out"/>
<feColorMatrix type="matrix" values="0 0 0 0 0 0 0 0 0 0 0 0 0 0 0 0 0 0 0.25 0"/>
<feBlend mode="normal" in2="BackgroundImageFix" result="effect1_dropShadow_31_166"/>
<feBlend mode="normal" in="SourceGraphic" in2="effect1_dropShadow_31_166" result="shape"/>
</filter>
</defs>
</svg>
