<svg width="1200" height="394" viewBox="0 0 1200 394" fill="none" xmlns="http://www.w3.org/2000/svg">
<mask id="mask0_118_5" style="mask-type:alpha" maskUnits="userSpaceOnUse" x="0" y="0" width="1200" height="394">
<rect width="1200" height="394" rx="10" fill="#F5F5F5"/>
</mask>
<g mask="url(#mask0_118_5)">
<rect x="-5" y="-157.467" width="1207" height="1207" fill="#F5F5F5"/>
<path d="M3.51874 609.716C7.33018 528.6 60.068 469.46 102.447 421.94L105.457 418.569C110.373 413.495 121.714 399.922 120.823 383.526C120.281 373.547 115.239 364.513 105.843 356.683C100.207 351.989 94.9959 347.602 90.0392 343.428C68.1174 324.976 50.8036 310.4 23.9224 292.121C14.1028 285.446 4.43606 279.126 -5 273.187V274.121C4.28854 279.975 13.8024 286.201 23.4637 292.77C50.3128 311.026 67.6104 325.588 89.5135 344.028C94.4729 348.202 99.6844 352.591 105.32 357.286C114.544 364.971 119.49 373.813 120.018 383.568C120.893 399.659 109.719 413.025 104.861 418.035L101.838 421.425C59.3787 469.032 6.53892 528.287 2.71407 609.682C2.30637 618.35 -1.13224 623.653 -5 625.454V626.393C-0.815733 624.705 3.06544 619.334 3.51874 609.716Z" fill="#E0E0E0"/>
<path d="M22.2728 610.565C25.7839 535.869 76.1292 479.418 116.582 434.057L119.605 430.667C128.1 421.136 134.982 412.691 140.06 405.566C146.352 396.737 158.066 380.304 130.404 354.117C100.578 325.875 68.3507 299.927 34.6218 276.993C20.8647 267.64 7.6279 259.211 -5 251.642V252.562C7.48574 260.061 20.5696 268.4 34.1631 277.64C67.8572 300.55 100.049 326.472 129.846 354.685C157.014 380.404 145.556 396.479 139.4 405.113C134.339 412.215 127.475 420.639 119.002 430.149L115.976 433.542C75.4398 478.992 24.9926 535.559 21.4682 610.529C19.832 645.301 13.5395 665.534 1.65728 674.208C-0.695033 675.922 -2.92128 676.856 -5 677.08V677.871C-2.73889 677.656 -0.399989 676.69 2.13739 674.839C14.2262 666.018 20.6259 645.593 22.2728 610.565Z" fill="#E0E0E0"/>
<path d="M349.659 76.3011C344.448 56.1181 302.391 50.7186 253.692 44.4696C241.66 42.9258 229.217 41.3293 217.131 39.4593C163.739 31.1957 114.863 4.91354 67.5943 -20.5033C43.9237 -33.2302 19.7435 -46.2279 -5 -56.9164V-54.9097C19.4136 -44.3106 43.3015 -31.4654 66.6931 -18.8885C114.099 6.60468 163.122 32.9657 216.839 41.2767C228.949 43.1519 241.402 44.751 253.448 46.2975C299.472 52.202 342.938 57.7803 347.838 76.7535C351.658 91.5371 332.021 113.964 287.807 145.316C225.776 189.307 173.722 209.795 123.996 209.795C95.7389 209.792 67.7204 202.915 40.7158 189.349C23.9117 180.906 9.11922 170.636 -5 160.274V162.572C8.84563 172.701 23.3699 182.703 39.8602 190.987C67.133 204.687 95.4385 211.633 123.996 211.633H124.001C174.14 211.633 226.543 191.035 288.91 146.808C334.441 114.521 353.742 92.1183 349.659 76.3011Z" fill="#E0E0E0"/>
<path d="M1.955 491.442C9.18359 478.973 18.5526 467.667 27.6158 456.731C40.6863 440.956 54.2047 424.647 61.4789 404.606C74.3053 369.268 49.1621 352.941 22.5437 335.656C20.0895 334.062 17.6192 332.458 15.1381 330.812C10.7527 327.903 6.60866 325.154 2.529 322.382C0.522695 321.017 -1.94763 319.271 -5 317.093V318.066C-2.17294 320.084 0.168642 321.738 2.07034 323.029C6.15536 325.807 10.2994 328.555 14.7143 331.482C17.1712 333.113 19.6416 334.717 22.1012 336.314C48.4486 353.425 73.337 369.587 60.7198 404.343C53.4912 424.255 40.0184 440.511 26.9909 456.234C17.9089 467.193 8.5184 478.526 1.25494 491.05C-0.917658 494.801 -2.90518 499.677 -5 504.845V506.975C-4.78274 506.439 -4.5628 505.902 -4.34822 505.371C-2.22658 500.137 -0.222962 495.198 1.955 491.442Z" fill="#E0E0E0"/>
<path d="M437.773 42.6154C435.627 45.9503 430.212 45.9372 421.824 42.6312C419.866 41.8606 417.863 41.1662 415.923 40.4956C405.133 36.7583 395.812 33.5338 400.769 19.3052C404.36 9.00329 409.427 3.55908 415.424 3.55908C421.291 3.55908 427.567 8.82444 432.215 17.6404C438.288 29.2495 440.364 38.5862 437.773 42.6154ZM415.424 2.24405C410.803 2.24405 404.291 5.12921 399.5 18.8791C394.114 34.3386 404.492 37.9313 415.475 41.7343C417.401 42.4024 419.394 43.0888 421.325 43.8515C425.655 45.5584 429.294 46.4237 432.145 46.4237C435.308 46.4237 437.58 45.3796 438.905 43.3176C443.011 36.9345 436.429 22.8137 433.409 17.0381C428.524 7.77506 421.803 2.24405 415.424 2.24405Z" fill="#E0E0E0"/>
<path d="M67.4871 433.539C68.6887 432.137 69.9064 430.733 71.1322 429.318C88.3977 409.403 106.251 388.81 85.9595 364.184C70.2658 345.138 46.5765 329.431 25.6766 315.576C21.3448 312.704 17.2544 309.99 13.2257 307.252C10.522 305.413 6.8581 302.791 2.61751 299.756C0.28666 298.089 -2.27486 296.255 -5 294.32V295.293C-2.45457 297.105 -0.0513 298.822 2.14276 300.392C6.38872 303.43 10.0553 306.055 12.767 307.899C16.7984 310.642 20.8942 313.356 25.226 316.228C46.0776 330.054 69.716 345.724 85.3346 364.679C105.204 388.797 87.5715 409.137 70.5206 428.805C69.2922 430.223 68.0718 431.63 66.8728 433.034C51.8792 450.556 32.7255 474.018 17.5763 500.148C8.38161 516.015 0.807011 532.682 -5 549.785V552.376C0.884795 534.502 8.68738 517.08 18.2763 500.54C33.3933 474.465 52.5176 451.034 67.4871 433.539Z" fill="#E0E0E0"/>
<path d="M52.2118 167.346C72.5967 177.587 89.9185 182.358 106.72 182.358C124.31 182.358 139.95 177.177 158.06 171.178C168.333 167.775 179.977 163.916 193.176 160.668C199.871 159.022 205.71 158.83 209.519 158.83C212.078 158.83 214.532 158.927 216.903 159.022C219.151 159.108 221.275 159.195 223.378 159.195C234.252 159.193 242.894 156.673 252.37 144.122C258.762 135.654 261.157 129.113 263.271 123.345C266.43 114.713 268.925 107.899 282.835 98.149C286.402 95.6452 291.506 93.6753 296.447 91.7711C304.397 88.7045 311.264 86.056 311.548 81.5691C311.776 77.9344 307.46 73.8789 297.957 68.8055C286.571 62.7485 270.325 61.9305 255.935 61.9305C249.516 61.9305 242.776 62.1225 236.258 62.3119C229.711 62.4986 222.938 62.6932 216.455 62.6932C202.009 62.6932 191.883 61.7149 183.622 59.5135C136.943 47.0865 93.1801 23.5501 54.5668 2.78845C34.2972 -8.1105 14.6312 -18.6728 -5 -27.7465V-26.2921C14.4112 -17.292 33.8708 -6.84281 53.9204 3.94042C92.6007 24.7389 136.439 48.3121 183.271 60.7838C191.65 63.0141 201.885 64.0083 216.455 64.0083C222.957 64.0083 229.74 63.8136 236.298 63.6269C242.805 63.4375 249.535 63.2456 255.935 63.2456C270.156 63.2456 286.195 64.0425 297.316 69.9601C306.06 74.6284 310.397 78.5078 310.209 81.4876C309.979 85.1381 303.166 87.7656 295.956 90.5482C290.94 92.4812 285.756 94.4801 282.054 97.0786C267.803 107.068 265.119 114.405 262.004 122.9C259.926 128.584 257.565 135.028 251.289 143.339C242.151 155.445 233.833 157.878 223.378 157.88C221.304 157.88 219.194 157.796 216.959 157.707C214.572 157.612 212.104 157.515 209.519 157.515C205.638 157.515 199.691 157.709 192.849 159.393C179.599 162.654 167.928 166.52 157.629 169.931C139.631 175.893 124.087 181.043 106.72 181.043C90.1384 181.043 73.0124 176.32 52.8207 166.175C34.3616 156.899 17.7613 144.562 1.70556 132.626C-0.523371 130.969 -2.75766 129.31 -5 127.656V129.299C-3.02857 130.756 -1.0625 132.219 0.898207 133.676C16.9969 145.643 33.6455 158.017 52.2118 167.346Z" fill="#E0E0E0"/>
<path d="M64.5634 143.704C84.3824 153.659 103.815 158.504 123.983 158.509C135.269 158.506 159.646 153.99 180.897 146.432C199.514 139.812 221.715 128.815 221.766 114.024C221.827 96.6104 187.53 86.9344 167.038 81.1536C162.583 79.8964 158.734 78.8102 156.164 77.8976C119.469 64.863 83.0493 48.3989 41.5446 26.0828C25.7007 17.5615 10.2404 9.25049 -5 1.78113V2.66746C10.1116 10.0816 25.4459 18.3242 41.1584 26.7719C82.6979 49.1116 119.155 65.5915 155.888 78.6392C158.484 79.5624 162.347 80.6512 166.815 81.911C187.09 87.6314 221.023 97.2048 220.964 114.021C220.873 139.583 147.385 157.717 123.972 157.72C103.946 157.714 84.6345 152.899 64.9309 143.002C48.5425 134.767 32.8891 123.132 17.7479 111.878C10.4174 106.428 2.87769 100.832 -5 95.3822V96.3527C2.70334 101.692 10.0821 107.173 17.2598 112.506C32.4304 123.782 48.1134 135.438 64.5634 143.704Z" fill="#E0E0E0"/>
<path d="M73.1251 127.319C90.2189 135.906 106.838 140.085 123.98 140.098C138.858 140.098 158.28 135.769 165.761 126.272C169.015 122.143 169.935 117.298 168.492 111.878C165.096 99.1274 137.858 90.109 117.969 83.5233C111.54 81.393 105.988 79.5572 102.579 78.0054C79.6 67.5483 56.8601 55.3159 34.8659 43.4886L32.4143 42.1683C19.7006 35.3328 7.24435 28.6419 -5 22.4402V23.3292C7.11828 29.473 19.4458 36.0955 32.0254 42.86L34.4796 44.1803C56.4819 56.0155 79.2352 68.2532 102.241 78.7208C105.69 80.2909 111.261 82.1346 117.712 84.2702C136.316 90.4298 164.428 99.7402 167.714 112.078C169.09 117.249 168.218 121.864 165.125 125.788C157.808 135.078 138.668 139.309 123.934 139.309C106.969 139.299 90.4683 135.146 73.4899 126.617C58.5714 119.121 43.5831 107.98 29.083 97.2022C18.5955 89.4067 7.33822 81.051 -5 73.1504V74.0945C7.15315 81.9006 18.2549 90.1432 28.6029 97.8361C43.1244 108.627 58.1422 119.792 73.1251 127.319Z" fill="#E0E0E0"/>
<path d="M471.03 -142.246C472.368 -147.551 473.685 -152.785 474.924 -158H473.546C472.33 -152.89 471.04 -147.761 469.729 -142.562C467.264 -132.809 464.718 -122.723 462.656 -112.429C455.784 -78.1094 449.859 -33.1144 465.182 10.5603C471.41 28.3079 486.924 42.8074 500.612 55.5974C512.792 66.9829 523.311 76.814 522.365 85.0777C521.927 88.8781 519.095 92.2551 513.709 95.4033C511.22 96.8577 506.969 97.5941 501.07 97.5941C480.482 97.5941 444.154 88.6808 417.286 79.8491C388.06 70.2415 352.052 54.9372 346.465 36.5847C344.689 30.7407 346.148 24.8362 350.81 19.0343C356.786 11.5992 363.202 5.05823 369.406 -1.26443C381.615 -13.7099 393.146 -25.4636 400.78 -42.9087C411.664 -67.7943 412.986 -93.7425 404.704 -120.038C402.7 -126.41 400.678 -132.281 398.894 -137.459C396.26 -145.115 393.967 -151.798 392.406 -158H391.011C392.596 -151.672 394.935 -144.858 397.625 -137.038C399.404 -131.868 401.423 -126.005 403.424 -119.649C411.608 -93.6609 410.301 -68.0179 399.546 -43.4295C392.011 -26.2026 380.561 -14.5331 368.44 -2.17706C362.212 4.16927 355.775 10.7339 349.758 18.219C344.81 24.376 343.267 30.6828 345.182 36.9608C350.93 55.8551 387.334 71.3909 416.859 81.0958C443.832 89.9617 480.332 98.9091 501.07 98.9091C507.215 98.9091 511.697 98.1096 514.396 96.5342C520.168 93.1598 523.21 89.462 523.695 85.2249C524.72 76.3117 513.977 66.2728 501.537 54.6479C487.96 41.9579 472.572 27.5768 466.451 10.1316C451.232 -33.2433 457.133 -78.0147 463.973 -112.174C466.027 -122.439 468.57 -132.509 471.03 -142.246Z" fill="#E0E0E0"/>
<path d="M81.5473 111.163C86.8956 113.85 101.924 118.653 112.835 118.65C116.73 118.65 119.699 118.019 121.66 116.77C125.911 114.063 127.786 111.525 127.392 109.016C126.525 103.475 114.236 100.127 104.36 97.4389C100.293 96.329 96.7823 95.3716 94.7894 94.4669C71.2448 83.7547 48.226 71.3724 25.9663 59.4004L23.504 58.0748C13.848 52.8831 4.34754 47.7808 -5 42.9257V44.4143C4.14101 49.1695 13.4295 54.1587 22.8683 59.2347L25.3225 60.5523C47.6011 72.5375 70.6387 84.9277 94.2261 95.6583C96.3183 96.613 99.8776 97.5809 104 98.7039C113.002 101.158 125.329 104.514 126.067 109.216C126.367 111.134 124.64 113.306 120.928 115.668C119.19 116.775 116.467 117.335 112.835 117.335C102.289 117.338 87.2604 112.556 82.1615 109.992C68.745 103.249 54.4515 92.6232 40.5924 82.3213C27.3744 72.5007 12.3379 61.3282 -5 51.1683V52.7121C12.008 62.7379 26.7977 73.721 39.8172 83.397C53.6843 93.7068 68.0289 104.366 81.5473 111.163Z" fill="#E0E0E0"/>
<path d="M41.2952 611.425C44.5004 543.254 92.413 489.525 130.914 446.355L133.947 442.952C179.73 391.563 177.871 373.618 156.392 352.836C132.839 330.051 95.7148 295.806 45.4714 261.646C28.3239 249.987 11.3616 239.333 -5 229.846V231.372C11.1175 240.74 27.8197 251.247 44.7069 262.727C94.8645 296.831 131.933 331.022 155.448 353.772C176.31 373.955 178.011 391.495 132.936 442.089L129.902 445.49C91.2676 488.815 43.1834 542.734 39.9567 611.362C36.9258 675.783 12.1823 694.696 -5 700.006V701.384C12.582 696.126 38.2052 677.119 41.2952 611.425Z" fill="#E0E0E0"/>
<path d="M279.61 402.065C283.537 408.112 288.518 411.828 293.791 415.76C299.491 420.01 305.384 424.407 309.995 432.114C320.554 449.766 328.7 481.611 323.438 502.27C309.351 557.525 276.486 578.879 241.692 601.484C201.743 627.44 160.431 654.282 145.269 735.059C141.61 754.553 135.556 764.858 127.767 764.858C115.576 764.858 100.762 739.988 96.1517 718.595C88.1587 681.527 90.798 637.337 104 587.25C112.752 554.035 137.823 529.807 162.067 506.376C174.674 494.193 187.709 481.593 198.213 467.932C200.758 464.618 204.811 460.168 209.5 455.013C224.941 438.047 246.091 414.81 242.397 400.926C241.069 395.94 237.915 390.972 234.573 385.714C231.153 380.33 227.618 374.76 226.352 369.329C224.751 362.441 227.245 361.223 229.445 360.153C230.66 359.558 231.918 358.945 232.223 357.499C232.634 355.571 231.384 352.625 223.906 343.915C219.663 338.97 207.652 332.65 196.038 326.535C183.836 320.115 170.012 312.835 168.859 308.646C166.244 299.135 167.064 295.385 168.215 293.912C168.829 293.126 169.728 292.744 170.962 292.744C182.686 292.744 216.718 325.478 244.656 356.11C245.004 356.492 245.2 356.681 245.211 356.689C250.441 360.584 255.049 361.549 259.113 362.399C264.861 363.601 269.823 364.639 275.788 373.064C278.629 377.074 278.149 381.898 277.644 387.003C277.137 392.134 276.609 397.439 279.61 402.065ZM277.33 372.014C270.941 362.99 265.386 361.828 259.507 360.6C255.443 359.748 251.243 358.869 246.455 355.318L246.056 354.885C232.368 339.875 186.497 290.903 170.962 290.903C169.13 290.903 167.705 291.537 166.724 292.792C164.65 295.448 164.755 300.792 167.045 309.127C168.408 314.084 181.398 320.92 195.15 328.158C206.608 334.189 218.458 340.427 222.471 345.103C226.073 349.298 230.813 355.111 230.386 357.123C230.271 357.67 229.667 357.988 228.611 358.503C226.213 359.671 222.592 361.439 224.523 369.736C225.856 375.473 229.477 381.172 232.98 386.687C236.241 391.824 239.323 396.674 240.579 401.392C244.02 414.319 222.404 438.073 208.1 453.788C203.382 458.972 199.307 463.451 196.714 466.822C186.293 480.38 173.308 492.928 160.75 505.063C136.323 528.671 111.065 553.08 102.181 586.79C88.907 637.153 86.2596 681.627 94.3144 718.974C98.6086 738.904 113.412 766.696 127.767 766.696C136.707 766.696 143.217 756.165 147.114 735.391C162.134 655.384 203.105 628.763 242.727 603.017C277.835 580.209 310.995 558.664 325.259 502.717C330.637 481.606 322.362 449.148 311.612 431.18C306.816 423.161 300.77 418.653 294.928 414.295C289.792 410.466 284.943 406.847 281.196 401.076C278.54 396.987 279.012 392.223 279.514 387.182C280.029 381.969 280.563 376.58 277.33 372.014Z" fill="#E0E0E0"/>
<path d="M-5 201.284C85.4472 251.476 182.922 331.324 200.67 371.012C211.327 394.848 185.491 423.329 152.784 459.387C115.614 500.361 69.3593 551.358 66.4812 612.562C62.9729 687.171 25.2635 717.814 -5 727.079V729.002C25.9582 719.755 64.7807 688.715 68.3561 612.648C71.2046 552.091 117.215 501.368 154.187 460.61C187.342 424.06 213.531 395.187 202.389 370.27C184.51 330.286 86.1017 249.743 -5 199.319V201.284Z" fill="#E0E0E0"/>
<path d="M450.621 -157.85C450.667 -157.9 450.715 -157.95 450.76 -158H449.663C447.979 -156.243 446.281 -154.386 445.112 -151.701C441.775 -144.027 442.725 -136.026 443.639 -128.291C444.151 -123.978 444.677 -119.522 444.465 -115.156C444.13 -108.305 442.706 -101.188 441.327 -94.3079C440.192 -88.627 439.015 -82.7541 438.452 -77.0311C435.013 -42.2486 438.119 -10.7932 447.684 16.4647C449.669 22.1194 457.445 30.8196 465.674 40.0327C476.196 51.8101 487.078 63.9925 487.512 71.3856C487.609 73.0346 487.177 74.3338 486.19 75.3596C483.347 78.3158 475.721 78.8575 463.533 76.9639C454.668 75.5831 446.152 71.9563 437.913 68.4452C433.103 66.3963 428.131 64.2765 423.166 62.6432C421.763 62.1804 420.309 61.7096 418.815 61.2256C400.981 55.4553 376.557 47.5494 373.056 33.7048C371.388 27.1007 374.66 19.5551 382.782 11.2756C395.587 -1.77469 408.827 -15.2695 417.788 -35.755C426.376 -55.391 436.26 -93.6083 432.476 -114.294C431.701 -118.533 429.898 -121.395 428.152 -124.159C425.816 -127.865 423.608 -131.36 424.62 -137.701C425.362 -142.37 427.216 -145.107 428.852 -147.522C430.81 -150.418 432.524 -153.042 432.049 -158H431.247C431.725 -153.287 430.134 -150.844 428.182 -147.958C426.5 -145.476 424.595 -142.662 423.823 -137.822C422.766 -131.194 425.049 -127.576 427.465 -123.746C429.174 -121.042 430.936 -118.247 431.684 -114.157C435.44 -93.6215 425.599 -55.6093 417.048 -36.0654C408.145 -15.7114 394.957 -2.27177 382.203 10.7286C373.875 19.2158 370.535 27.0113 372.276 33.8941C375.884 48.1622 400.552 56.147 418.563 61.9752C420.057 62.4592 421.511 62.9299 422.908 63.3902C427.841 65.0129 432.8 67.1249 437.593 69.1684C445.876 72.698 454.44 76.3485 463.407 77.7424C468.2 78.4867 472.342 78.8654 475.716 78.8654C481.236 78.8654 484.854 77.8949 486.777 75.8987C487.907 74.7257 488.424 73.1924 488.314 71.3409C487.864 63.6769 476.891 51.3919 466.28 39.5145C458.102 30.362 450.38 21.717 448.446 16.2096C438.918 -10.9404 435.826 -42.2854 439.251 -76.9548C439.812 -82.6384 440.984 -88.4929 442.118 -94.1554C443.5 -101.065 444.929 -108.208 445.27 -115.12C445.484 -119.549 444.953 -124.038 444.441 -128.38C443.494 -136.365 442.598 -143.911 445.855 -151.391C447.051 -154.144 448.867 -156.027 450.621 -157.85Z" fill="#E0E0E0"/>
<path d="M362.633 -143.209C379.607 -91.3807 397.159 -37.788 330.871 -0.217667C320.962 5.39751 309.85 9.51617 297.847 12.0226C288.164 14.0451 277.655 15.0682 266.613 15.0682C176.994 15.0682 64.896 -50.2808 -5 -91.9304V-89.7737C65.1294 -48.0005 176.898 16.9092 266.613 16.9092C277.787 16.9092 288.427 15.8704 298.236 13.8242C310.435 11.2757 321.73 7.08862 331.809 1.37877C399.409 -36.9359 381.621 -91.2492 364.42 -143.771C362.856 -148.55 361.306 -153.297 359.828 -158H357.862C359.393 -153.111 361.005 -148.177 362.633 -143.209Z" fill="#E0E0E0"/>
<path d="M20.06 389.53C18.7377 381.051 12.7697 373.474 1.81821 366.362C-0.424129 364.905 -2.68524 363.432 -5 361.902V362.848C-2.85422 364.261 -0.72722 365.655 1.37296 367.02C12.126 374 17.9786 381.403 19.2634 389.649C21.3904 403.288 10.8251 417.356 -2.1488 433.01C-3.02588 434.068 -3.99417 435.37 -5 436.766V438.139C-3.75277 436.377 -2.57795 434.778 -1.52652 433.507C11.5735 417.703 22.238 403.485 20.06 389.53Z" fill="#E0E0E0"/>
<path d="M43.7869 398.433C50.7607 379.226 43.7467 371.506 12.177 351.005C9.66907 349.377 7.15047 347.741 4.57285 346.032C1.26299 343.836 -1.88862 341.737 -5 339.643V340.601C-2.03078 342.594 0.981355 344.601 4.15174 346.705C6.70253 348.396 9.22382 350.035 11.7317 351.663C42.883 371.89 49.8166 379.473 43.0306 398.167C36.8856 415.097 25.0033 429.436 12.421 444.625C6.56574 451.686 0.595115 458.903 -5 466.609V467.974C0.76946 459.942 6.97076 452.449 13.0487 445.116C25.6739 429.881 37.5964 415.489 43.7869 398.433Z" fill="#E0E0E0"/>
<path d="M449.465 719.886C439.165 715.289 427.06 713.053 412.461 713.053C382.058 713.053 346.54 723.074 315.206 731.914C289.728 739.102 265.663 745.89 248.99 745.892C239.181 745.892 232.527 743.578 228.645 738.818C223.946 733.05 223.187 723.645 226.323 710.066C233.103 680.704 271.856 645.432 306.046 614.313C326.828 595.401 346.459 577.532 356.756 563.011C389.742 516.491 400.592 433.652 364.17 384.481C354.97 372.059 339.368 359.711 322.848 346.639C287.676 318.808 247.813 287.266 263.847 247.268C271.376 228.481 289.84 219.923 309.386 210.86C321.609 205.195 334.245 199.335 344.244 190.714C352.907 183.245 359.868 175.941 366.6 168.879C383.898 150.732 397.561 136.401 426.089 136.401C430.585 136.401 435.466 136.761 440.595 137.474C512.237 147.428 596.035 162.68 683.966 217.993C780.754 278.873 870.743 342.763 908.331 454.351C924.548 502.496 917.437 559.266 890.642 595.619C872.478 620.26 847.169 633.287 817.447 633.289C806.954 633.289 795.844 631.648 784.423 628.41C748.873 618.327 726.383 597.615 715.673 565.094C706.081 535.977 706.548 500.156 707.001 465.513C707.725 409.961 708.474 352.515 668.42 319.263C649.285 303.372 648.773 303.128 637.717 305.8C632.934 306.957 626.381 308.538 615.307 309.561C607.013 310.326 601.126 310.523 596.397 310.681C580.218 311.223 580.218 311.223 556.834 331.995L556.52 332.274C549.941 338.118 540.451 342.444 530.403 347.023C515.493 353.819 500.076 360.844 494.545 373.392C487.137 390.198 493.834 438.336 498.238 459.016C503.45 483.502 519.414 506.044 533.496 525.938L536.465 530.136C541.406 537.142 546.636 544.267 551.695 551.158C581.339 591.542 611.994 633.302 611.24 685.362C610.752 719.042 573.198 758.795 538.179 762.704C535.953 762.951 533.729 763.08 531.568 763.08C511 763.08 496.315 751.884 480.769 740.03C471.172 732.713 461.25 725.146 449.465 719.886ZM538.332 764.008C573.92 760.039 612.085 719.623 612.581 685.383C613.34 632.887 582.557 590.948 552.784 550.39C547.728 543.504 542.503 536.385 537.568 529.384L534.598 525.189C520.589 505.4 504.708 482.974 499.55 458.748C495.175 438.202 488.494 390.432 495.776 373.916C501.103 361.825 516.287 354.908 530.969 348.215C541.111 343.591 550.692 339.228 557.422 333.247L557.735 332.968C580.754 312.52 580.754 312.52 596.443 311.996C601.19 311.838 607.099 311.639 615.433 310.871C626.607 309.837 633.213 308.243 638.038 307.078C641.107 306.336 643.322 305.802 645.291 305.802C650.133 305.802 654.172 309.156 667.556 320.268C707.124 353.12 706.381 410.25 705.66 465.497C704.753 535.022 703.817 606.915 784.053 629.673C795.592 632.945 806.828 634.604 817.447 634.604C847.617 634.602 873.301 621.388 891.728 596.389C918.765 559.711 925.948 502.465 909.603 453.94C871.877 341.942 781.69 277.9 684.693 216.888C596.531 161.431 512.567 146.148 440.785 136.172C435.592 135.451 430.649 135.086 426.089 135.086C396.979 135.086 383.141 149.601 365.621 167.98C358.91 175.02 351.971 182.3 343.359 189.725C333.502 198.225 320.951 204.046 308.814 209.671C289.02 218.848 270.324 227.516 262.597 246.789C246.203 287.684 286.474 319.55 322.006 347.665C338.453 360.679 353.988 372.971 363.086 385.254C399.173 433.973 388.377 516.11 355.654 562.259C345.44 576.667 325.863 594.485 305.134 613.351C270.802 644.598 231.886 680.017 225.016 709.771C221.784 723.771 222.629 733.536 227.599 739.638C231.749 744.73 238.747 747.207 248.99 747.207C265.851 747.205 290.004 740.39 315.576 733.179C346.827 724.36 382.246 714.368 412.461 714.368C426.864 714.368 438.787 716.565 448.91 721.083C460.55 726.28 470.41 733.797 479.948 741.069C495.679 753.062 510.539 764.395 531.568 764.395C533.78 764.395 536.055 764.263 538.332 764.008Z" fill="#E0E0E0"/>
<path d="M1180.78 434.207L1179.7 435.825C1178.55 437.547 1177.4 439.412 1176.29 441.213C1171.63 448.762 1166.81 456.57 1160.27 456.57C1159.42 456.57 1158.55 456.436 1157.66 456.179C1155.65 455.589 1153.48 454.303 1151.23 452.357C1145.39 447.31 1142.95 436.658 1140.99 428.095C1140.52 426.03 1140.08 424.081 1139.62 422.359C1135.23 405.892 1129.33 390.748 1123.61 376.096C1122.76 373.916 1121.75 371.47 1120.65 368.813C1120.1 367.488 1119.23 365.681 1118.23 363.587C1114.51 355.831 1108.28 342.847 1110.79 337.881C1112.8 333.899 1115.83 331.964 1120.05 331.964C1131.58 331.964 1148.43 346.363 1158.49 354.966C1161.18 357.265 1163.3 359.079 1164.71 360.084C1169.19 363.293 1173.48 366.362 1176.8 368.621C1209.71 391.021 1198.82 407.278 1180.78 434.207ZM1165.5 359.022C1164.14 358.051 1162.04 356.252 1159.37 353.975C1149.17 345.251 1132.09 330.649 1120.05 330.649C1115.34 330.649 1111.82 332.884 1109.59 337.297C1106.79 342.834 1112.95 355.66 1117.01 364.148C1118.01 366.223 1118.87 368.016 1119.41 369.31C1120.5 371.954 1121.51 374.394 1122.36 376.567C1128.06 391.182 1133.95 406.294 1138.32 422.69C1138.78 424.4 1139.22 426.333 1139.69 428.384C1141.69 437.129 1144.17 448.015 1150.34 453.343C1152.74 455.416 1155.07 456.794 1157.28 457.438C1158.29 457.733 1159.29 457.885 1160.27 457.885C1167.57 457.885 1172.58 449.756 1177.43 441.895C1178.54 440.101 1179.68 438.249 1180.82 436.548L1181.91 434.93C1200.39 407.333 1211.55 390.674 1177.57 367.54C1174.26 365.289 1169.97 362.228 1165.5 359.022Z" fill="#E0E0E0"/>
<path d="M1187.48 329.494C1181.57 325.262 1175.66 320.531 1169.41 315.521C1150.29 300.216 1128.62 282.868 1109.15 282.868C1105.32 282.868 1101.67 283.529 1098 284.888C1063.61 297.634 1068.55 333.292 1074.55 353.412C1078.22 365.705 1082.95 377.863 1087.54 389.622C1092.88 403.328 1098.4 417.501 1102.25 431.94C1104.57 440.651 1105.73 449.824 1106.86 458.698C1110.32 485.911 1113.59 511.615 1150.6 511.615C1153.54 511.615 1156.7 511.452 1160 511.134C1164.2 510.726 1167.68 510.076 1170.62 509.148C1180.47 506.039 1183.41 500.187 1187.86 491.324C1189.21 488.644 1190.74 485.609 1192.64 482.342C1195.54 477.327 1198.7 472.564 1202 467.977V466.609C1198.45 471.496 1195.05 476.577 1191.93 481.951C1190.03 485.238 1188.5 488.286 1187.15 490.977C1182.78 499.656 1179.9 505.39 1170.37 508.398C1167.49 509.308 1164.07 509.945 1159.92 510.347C1156.65 510.663 1153.51 510.826 1150.6 510.826C1114.3 510.826 1111.22 486.624 1107.66 458.601C1106.53 449.703 1105.36 440.503 1103.03 431.74C1099.17 417.259 1093.64 403.067 1088.29 389.341C1083.71 377.598 1078.98 365.452 1075.32 353.191C1069.4 333.331 1064.5 298.146 1098.29 285.625C1101.86 284.302 1105.42 283.657 1109.15 283.657C1128.34 283.657 1149.88 300.911 1168.9 316.133C1175.16 321.151 1181.07 325.888 1187 330.133C1191.48 333.337 1195.42 336.153 1198.37 338.157C1199.57 338.973 1200.79 339.785 1202 340.601V339.643C1200.94 338.933 1199.88 338.221 1198.83 337.51C1195.89 335.509 1191.95 332.697 1187.48 329.494Z" fill="#E0E0E0"/>
<path d="M1105.57 -52.9687C1102.04 -52.9687 1098.61 -52.995 1095.24 -53.0213C1092 -53.0476 1088.82 -53.0739 1085.67 -53.0739C1067.39 -53.0739 1052.83 -52.1139 1036.78 -47.3351C1028.38 -44.8366 1020.52 -40.9099 1012.92 -37.1147C1000.22 -30.7737 988.23 -24.7877 973.874 -24.7877C971.498 -24.7877 969.087 -24.9586 966.705 -25.2953C956.118 -26.7944 948.192 -32.9145 940.524 -38.8348C931.908 -45.4862 923.768 -51.7694 912.347 -51.7694C911.312 -51.7694 910.247 -51.7142 909.19 -51.609C902.146 -50.9015 890.868 -44.6867 879.959 -38.6744C872.945 -34.8108 866.32 -31.1577 861.623 -29.4613C854.786 -26.9916 849.666 -25.795 845.927 -24.9218C834.654 -22.2917 833.232 -21.3213 827.752 -0.967251C826.237 4.66107 825.14 9.92117 824.078 15.0077C820.132 33.8836 817.018 48.796 796.494 63.0404C782.645 72.627 765.071 77.2874 742.771 77.2901C720.675 77.2901 697.579 72.7532 677.196 68.7503C666.54 66.6567 656.474 64.6816 648.996 63.9004C644.65 63.4454 637.956 63.1745 631.084 63.1745C611.399 63.1745 588.334 70.2415 586.722 80.3856C585.958 85.1881 589.783 92.3997 612.354 99.4746L614.872 100.264C700.891 127.316 760.884 162.62 821.945 222.119C838.787 238.534 851.651 246.179 862.425 246.179C864.957 246.179 867.43 245.742 869.783 244.885C881.236 240.693 889.586 226.519 899.258 210.108C904.252 201.634 909.911 192.031 916.601 182.787C948.994 138.018 995.482 105.308 1047.5 90.6797C1062.85 86.3638 1077.83 84.1756 1092.03 84.1756C1138.36 84.1756 1171.05 106.413 1202 129.299V127.656C1171.11 104.85 1138.39 82.8605 1092.03 82.8605C1077.71 82.8605 1062.6 85.0645 1047.13 89.4146C994.822 104.125 948.074 137.016 915.506 182.027C908.782 191.319 903.104 200.953 898.096 209.45C888.556 225.641 880.313 239.625 869.313 243.652C867.111 244.456 864.794 244.864 862.425 244.864C852.026 244.864 839.463 237.339 822.887 221.188C761.668 161.528 701.519 126.133 615.28 99.0117L612.759 98.22C595.858 92.9231 587.082 86.6583 588.047 80.5882C589.389 72.1615 609.902 64.4896 631.084 64.4896C637.91 64.4896 644.554 64.7578 648.853 65.2076C656.27 65.9834 666.307 67.9534 676.934 70.0416C697.375 74.0551 720.544 78.6051 742.771 78.6051C765.361 78.6024 783.184 73.8631 797.269 64.1135C818.225 49.5693 821.387 34.4333 825.389 15.2707C826.449 10.2026 827.546 4.96089 829.05 -0.630608C834.506 -20.9057 835.617 -21.1661 846.235 -23.6436C850.009 -24.5247 855.173 -25.7319 862.082 -28.2278C866.883 -29.9584 873.554 -33.6352 880.619 -37.5303C890.905 -43.1981 902.559 -49.6233 909.327 -50.3018C910.341 -50.4018 911.357 -50.4544 912.347 -50.4544C923.304 -50.4544 931.265 -44.3079 939.695 -37.8012C947.5 -31.7757 955.571 -25.5451 966.512 -23.9934C968.958 -23.6462 971.436 -23.4726 973.874 -23.4726C988.551 -23.4726 1001.25 -29.8111 1013.53 -35.9417C1021.08 -39.7106 1028.89 -43.611 1037.17 -46.0753C1053.06 -50.8068 1067.51 -51.7589 1085.67 -51.7589C1088.81 -51.7589 1091.99 -51.7326 1095.23 -51.7063C1098.6 -51.68 1102.04 -51.6537 1105.57 -51.6537C1121.95 -51.6537 1136.61 -49.7785 1150.39 -45.9202C1167.8 -41.044 1184.88 -34.2296 1202 -26.2921V-27.7465C1185.02 -35.5972 1168.06 -42.3407 1150.76 -47.1852C1136.86 -51.0777 1122.08 -52.9687 1105.57 -52.9687Z" fill="#E0E0E0"/>
<path d="M1188.12 352.636C1185.01 350.519 1180.81 347.515 1176.41 344.364C1170.09 339.846 1164.01 334.972 1157.53 329.783C1156.07 328.613 1154.48 327.293 1152.78 325.88C1141.98 316.893 1127.17 304.582 1113.55 304.582C1109.8 304.582 1106.31 305.542 1103.19 307.433C1079.66 321.706 1093.81 355.795 1102.27 376.162C1103.3 378.642 1104.27 380.985 1105.08 383.047C1110.6 397.21 1116.31 411.854 1120.41 427.29C1121.19 430.188 1121.96 433.597 1122.78 437.205C1126.53 453.73 1131.67 476.364 1144.57 484.52C1146.7 485.867 1148.94 486.706 1151.22 487.016C1151.91 487.108 1152.61 487.158 1153.31 487.158C1169.08 487.158 1184.81 463.661 1196.29 446.505C1198.37 443.396 1200.27 440.585 1202 438.139V436.766C1200.09 439.417 1197.97 442.56 1195.62 446.071C1184.24 463.075 1168.65 486.369 1153.31 486.369C1152.65 486.369 1151.98 486.322 1151.33 486.235C1149.16 485.94 1147.04 485.141 1145.01 483.857C1132.39 475.878 1127.29 453.427 1123.57 437.032C1122.75 433.418 1121.97 430.002 1121.2 427.09C1117.08 411.615 1111.36 396.947 1105.83 382.766C1105.02 380.693 1104.04 378.347 1103.01 375.862C1094.65 355.729 1080.66 322.027 1103.62 308.104C1106.61 306.292 1109.95 305.374 1113.55 305.374C1126.88 305.374 1141.55 317.575 1152.26 326.483C1153.96 327.898 1155.56 329.223 1157.05 330.422C1163.51 335.588 1169.6 340.469 1175.93 345.001C1180.34 348.154 1184.54 351.16 1187.67 353.286C1191.85 356.129 1196.09 358.938 1200.6 361.931C1201.07 362.246 1201.53 362.535 1202 362.848V361.902C1201.67 361.683 1201.35 361.478 1201.02 361.257C1196.54 358.285 1192.31 355.476 1188.12 352.636Z" fill="#E0E0E0"/>
<path d="M1048.7 539.288C1050.22 541.237 1053.08 543.896 1060.24 544.472C1087.05 546.621 1127.56 549.872 1161.77 580.433L1162.16 580.775C1173.86 591.253 1183.36 604.508 1190.39 620.176C1192.34 624.499 1195.5 626.982 1199.06 626.982C1200.03 626.982 1201.02 626.788 1202 626.393V625.452C1201.03 625.904 1200.04 626.193 1199.06 626.193C1195.83 626.193 1192.94 623.884 1191.13 619.857C1184.05 604.09 1174.48 590.745 1162.71 580.194L1162.31 579.846C1127.9 549.106 1087.22 545.845 1060.31 543.686C1053.46 543.136 1050.77 540.64 1049.34 538.81C1045.93 534.431 1045.49 527.682 1045.89 525.601C1049.61 509.506 1054.25 489.472 1052.51 467.546C1049.57 430.428 1034.44 398.536 1019.8 367.69C1008.06 342.939 994.745 314.884 999.369 302.097C1007.6 279.336 1041.23 246.702 1055.31 233.731C1064.25 225.486 1074.88 221.307 1086.89 221.307C1093.76 221.307 1099.69 222.724 1103.46 223.913C1128.13 231.711 1163.06 249.582 1202 274.121V273.184C1163.18 248.751 1128.34 230.951 1103.7 223.163C1099.89 221.956 1093.87 220.518 1086.89 220.518C1074.66 220.518 1063.85 224.77 1054.75 233.155C1040.63 246.169 1006.9 278.91 998.61 301.831C993.876 314.926 1007.26 343.136 1019.08 368.027C1033.68 398.804 1048.78 430.63 1051.71 467.606C1053.44 489.412 1048.82 509.382 1045.1 525.459C1044.68 527.637 1045.14 534.715 1048.7 539.288Z" fill="#E0E0E0"/>
<path d="M1099.2 515.452C1105.3 518.732 1113.69 520.131 1121.79 521.483C1127.79 522.482 1134 523.521 1139.05 525.304C1142.24 526.433 1145.76 528.137 1149.5 529.938C1157.19 533.655 1165.91 537.871 1173.85 537.871C1175.38 537.871 1176.86 537.713 1178.24 537.403C1178.61 537.318 1178.98 537.226 1179.34 537.121C1190.7 533.797 1196.78 519.823 1202 506.976V504.845C1201.97 504.921 1201.94 504.998 1201.91 505.074C1196.6 518.169 1190.58 533.01 1179.1 536.366C1178.76 536.466 1178.41 536.553 1178.06 536.632C1176.74 536.932 1175.32 537.082 1173.85 537.082C1166.1 537.082 1157.47 532.91 1149.85 529.234C1146.1 527.419 1142.56 525.709 1139.32 524.563C1134.2 522.751 1127.96 521.712 1121.93 520.704C1113.89 519.363 1105.57 517.977 1099.58 514.758C1086.34 507.636 1087.72 494.593 1089.18 480.785C1089.75 475.381 1090.35 469.789 1089.95 464.684C1086.48 420.925 1069.9 385.977 1053.86 352.184C1046.59 336.84 1046.05 320.023 1052.36 304.837C1059.2 288.402 1073.52 275.123 1091.65 268.403C1097.3 266.31 1103.19 265.25 1109.16 265.25C1135.03 265.25 1159.33 284.707 1180.77 301.876C1186.84 306.736 1192.58 311.326 1198.07 315.263C1199.5 316.281 1200.78 317.199 1202 318.069V317.091C1200.92 316.323 1199.78 315.505 1198.55 314.626C1193.07 310.702 1187.34 306.118 1181.28 301.263C1159.73 284.012 1135.32 264.458 1109.16 264.458C1103.09 264.458 1097.11 265.539 1091.37 267.667C1073.02 274.463 1058.54 287.902 1051.62 304.537C1045.22 319.931 1045.76 336.969 1053.14 352.518C1069.14 386.248 1085.69 421.128 1089.14 464.745C1089.54 469.779 1088.95 475.333 1088.38 480.704C1086.95 494.162 1085.48 508.075 1099.2 515.452Z" fill="#E0E0E0"/>
<path d="M1105.57 -26.4052C1083.01 -26.4052 1059.02 -22.3943 1033.58 -18.1415C1004.96 -13.3522 975.36 -8.40242 943.831 -8.39979C941.556 -8.39979 939.306 -8.42608 937.141 -8.47606C926.198 -8.73117 916.915 -10.5012 908.726 -12.0635C901.645 -13.4153 895.535 -14.5804 889.666 -14.5804C875.727 -14.5804 865.48 -7.38459 854.296 10.2552C848.902 18.7608 844.97 28.9233 841.163 38.7492C834.431 56.1339 827.468 74.113 812.086 84.7647C806.788 88.4336 796.655 91.2688 785.923 94.2723C767.177 99.5219 745.926 105.466 743.04 117.882C739.44 133.444 772.043 154.737 789.56 166.178C792.819 168.308 795.635 170.147 797.481 171.475C818.021 186.248 835.008 196.087 851.152 196.087C853.365 196.087 855.564 195.898 857.697 195.522C870.571 193.255 882.271 184.325 894.505 167.417C930.444 117.751 982.125 81.4298 1040.03 65.1445C1057.81 60.1447 1075.31 57.6094 1092.03 57.6094C1138.31 57.6094 1172.55 75.9382 1202 96.3527V95.3822C1172.55 75.0282 1138.3 56.823 1092.03 56.823C1075.23 56.823 1057.66 59.3662 1039.81 64.387C981.728 80.7223 929.891 117.149 893.85 166.962C881.746 183.689 870.212 192.515 857.555 194.746C855.47 195.111 853.317 195.298 851.152 195.298C835.228 195.298 818.37 185.52 797.958 170.839C796.099 169.5 793.275 167.656 790.005 165.521C772.651 154.188 740.347 133.089 743.826 118.056C746.604 106.097 767.612 100.219 786.146 95.0324C796.942 92.0105 807.142 89.1543 812.552 85.4091C828.133 74.6206 835.139 56.5258 841.915 39.0306C845.707 29.2363 849.629 19.1106 854.977 10.6708C865.995 -6.70339 876.046 -13.7914 889.666 -13.7914C895.457 -13.7914 901.532 -12.6315 908.57 -11.2902C916.791 -9.72007 926.112 -7.94215 937.12 -7.68967C939.295 -7.63707 941.551 -7.61077 943.831 -7.61077C975.427 -7.6134 1005.06 -12.5684 1033.76 -17.3683C1059.12 -21.6106 1083.08 -25.6161 1105.57 -25.6161C1119.45 -25.6161 1131.73 -24.067 1143.1 -20.8847C1162.59 -15.4273 1182.1 -7.09791 1202 2.66749V1.78379C1182.19 -7.92375 1162.75 -16.2032 1143.32 -21.6421C1131.88 -24.8482 1119.53 -26.4052 1105.57 -26.4052Z" fill="#E0E0E0"/>
<path d="M1081.82 529.62C1087.31 530.969 1092.67 532.187 1097.85 533.365C1125.9 539.743 1150.12 545.251 1174.33 566.749L1174.82 567.18C1180.39 572.119 1184.78 574.523 1188.26 574.523C1188.8 574.523 1189.33 574.463 1189.83 574.35C1195.09 573.156 1197.71 565.96 1200.6 556.673C1201.04 555.237 1201.53 553.806 1202 552.373V549.782C1201.25 551.997 1200.52 554.216 1199.82 556.444C1197.02 565.481 1194.49 572.482 1189.65 573.579C1186.17 574.381 1181.57 572.101 1175.36 566.591L1174.87 566.162C1150.5 544.525 1126.19 538.999 1098.03 532.597C1092.86 531.422 1087.5 530.201 1082.02 528.852C1062.35 524.013 1065.68 505.879 1068.89 488.339C1070.3 480.675 1071.75 472.751 1071.23 466.117C1068.03 425.686 1052.17 392.263 1036.83 359.929C1035 356.065 1033.04 352.289 1031.13 348.636C1021.28 329.681 1012.77 313.311 1024.93 293.165C1034.09 278.005 1047.8 265.599 1061.07 253.604C1063.46 251.439 1065.84 249.288 1068.18 247.134C1073.3 242.421 1080.27 240.03 1088.89 240.03C1121.93 240.03 1172.76 274.515 1202 295.293V294.32C1172.61 273.455 1122 239.244 1088.89 239.244C1080.06 239.244 1072.9 241.703 1067.63 246.558C1065.29 248.712 1062.91 250.863 1060.52 253.025C1047.22 265.058 1033.46 277.503 1024.24 292.76C1011.85 313.282 1020.87 330.63 1030.42 348.996C1032.31 352.641 1034.28 356.413 1036.11 360.274C1051.41 392.531 1067.24 425.891 1070.42 466.178C1070.94 472.714 1069.5 480.585 1068.1 488.197C1064.82 506.094 1061.42 524.599 1081.82 529.62Z" fill="#E0E0E0"/>
<path d="M522.435 881.017C519.635 875.746 516.987 870.77 518.9 866.733C521.767 860.686 527.155 859.771 532.364 858.882C536.538 858.169 540.854 857.436 543.423 853.943C547.594 848.273 549.606 841.482 551.553 834.917C554.238 825.854 556.775 817.293 564.61 812.42C575.245 805.808 584.378 804.706 593.211 803.641C605.323 802.178 616.763 800.8 629.759 785.212C646.557 765.06 658.906 733.276 662.793 700.185C670.636 633.363 630.4 583.492 594.9 539.493C563.854 501.013 537.042 467.782 548.219 431.659C560.12 393.189 593.034 373.061 619.394 373.061C633.157 373.061 645.034 378.092 653.74 387.618C666.188 401.234 671.143 423.024 668.061 450.629C659.95 523.216 662.715 612.848 756.864 662.086C787.361 678.032 818.852 685.785 853.145 685.782C897.096 685.782 937.847 672.906 973.802 661.541C1002.8 652.375 1027.85 644.459 1049.67 644.459C1078.33 644.459 1096.97 658.417 1110.12 689.707C1142.86 767.682 1111.36 832.608 1089.66 864.371C1054.72 915.531 1002.53 946.103 972.249 946.103C962.987 946.103 955.809 943.473 950.92 938.284C904.268 888.802 844.57 863.714 773.48 863.714C751.797 863.714 728.649 866.047 704.681 870.649C694.242 872.656 682.912 874.394 670.92 876.235C640.404 880.919 605.82 886.227 580.618 897.434C575.138 899.869 566.75 907.893 557.033 917.185C542.769 930.83 526.6 946.292 516.866 946.292C516.003 946.292 515.198 946.163 514.477 945.911C510.174 944.393 507.575 942.15 506.527 939.052C503.85 931.127 512.06 918.979 518.655 909.219C522.612 903.364 526.029 898.309 526.675 894.93C527.51 890.567 524.929 885.711 522.435 881.017ZM517.365 908.38C510.585 918.414 502.144 930.904 505.059 939.53C506.248 943.049 509.241 945.677 513.954 947.339C514.844 947.652 515.826 947.81 516.866 947.81C527.231 947.81 543.638 932.116 558.114 918.272C567.324 909.461 576.026 901.139 581.256 898.814C606.265 887.694 640.742 882.4 671.161 877.734C683.167 875.888 694.51 874.15 704.979 872.14C728.851 867.551 751.896 865.229 773.48 865.229C844.122 865.229 903.436 890.154 949.783 939.312C954.978 944.822 962.536 947.618 972.249 947.618C1002.51 947.618 1054.39 918.737 1090.95 865.215C1112.81 833.202 1144.56 767.756 1111.54 689.133C1098.31 657.62 1078.65 642.944 1049.67 642.944C1027.6 642.944 1002.45 650.895 973.324 660.1C937.482 671.428 896.852 684.268 853.145 684.268C819.115 684.268 787.859 676.572 757.593 660.747C664.263 611.938 661.54 522.908 669.595 450.795C672.728 422.751 667.642 400.553 654.888 386.603C645.884 376.751 633.61 371.543 619.394 371.543C592.462 371.543 558.859 392.042 546.738 431.219C535.328 468.101 562.373 501.621 593.688 540.435C628.999 584.202 669.024 633.813 661.256 700.008C657.404 732.824 645.181 764.319 628.56 784.252C615.958 799.369 604.817 800.713 593.023 802.136C584.019 803.222 574.709 804.343 563.784 811.139C555.453 816.32 552.838 825.149 550.067 834.494C548.157 840.935 546.183 847.599 542.168 853.054C539.968 856.047 536.146 856.699 532.101 857.386C526.758 858.298 520.707 859.329 517.499 866.096C515.265 870.81 518.21 876.354 521.061 881.716C523.438 886.185 525.892 890.803 525.157 894.651C524.567 897.726 521.23 902.665 517.365 908.38Z" fill="#E0E0E0"/>
<path d="M1165.64 728.884C1169.09 731.043 1174.68 732.232 1181.4 732.232C1187.38 732.232 1194.46 731.253 1202 729.002V727.079C1194.46 729.389 1187.37 730.391 1181.4 730.391C1175.13 730.391 1169.75 729.276 1166.65 727.332C1150.89 717.461 1143.93 700.04 1136.56 681.598C1130.19 665.681 1123.61 649.225 1110.84 637.621L1110.8 637.079L1110.25 637.092C1095.56 624.389 1075.77 618.214 1049.75 618.214C1024.39 618.214 997.7 624.184 976.253 628.984C961.603 632.261 948.948 635.093 940.805 635.093C936.022 635.093 933.112 634.128 931.913 632.142C930.315 629.499 931.519 624.549 935.494 617.432C954.028 584.249 991.459 505.134 988.865 472.395C986.821 446.56 974.161 419.881 961.917 394.08C944.19 356.718 925.857 318.085 939.201 281.18C954.431 239.073 1021.51 163.808 1069.25 157.425C1072.03 157.054 1075.04 156.865 1078.18 156.865C1109.23 156.865 1154.65 175.01 1202 201.284V199.317C1154.64 173.103 1109.25 155.024 1078.18 155.024C1074.95 155.024 1071.86 155.219 1069 155.603C1020.66 162.067 952.805 238.06 937.431 280.564C923.829 318.18 942.328 357.16 960.213 394.859C972.388 420.51 984.976 447.036 986.995 472.537C989.305 501.726 956.646 575.728 933.847 616.549C929.411 624.494 928.282 629.746 930.299 633.081C931.865 635.675 935.301 636.932 940.805 636.932C949.16 636.932 961.909 634.081 976.672 630.777C998.027 626.001 1024.61 620.055 1049.75 620.055C1075.46 620.055 1094.93 626.156 1109.28 638.715L1109.29 638.718C1121.92 650.045 1128.47 666.428 1134.81 682.269C1142.3 701 1149.37 718.692 1165.64 728.884Z" fill="#E0E0E0"/>
<path d="M567.032 865.928C578.04 859.227 593.114 850.043 608.156 836.895C630.958 816.962 649.706 791.863 663.882 762.296C672.8 743.696 678.586 723.487 681.08 702.239C689.787 628.008 645.179 572.722 609.328 528.292C581.492 493.786 557.449 463.987 565.831 436.898C575.13 406.836 599.817 391.108 619.394 391.108C627.9 391.108 634.844 393.986 640.034 399.664C648.767 409.216 652.225 426.619 649.763 448.665C641.703 520.804 643.143 623.066 748.206 678.008C781.433 695.385 815.76 703.83 853.145 703.83C899.998 703.83 942.208 690.488 979.485 678.708C1006.99 670.013 1030.75 662.509 1049.67 662.509C1064.79 662.509 1080.52 666.636 1093.1 696.579C1122.59 766.801 1094.02 825.557 1074.37 854.33C1049.66 890.514 1008.02 919.955 981.559 919.955C974.488 919.955 968.732 917.919 964.452 913.903C934.175 885.485 906.003 867.419 875.788 857.049C849.784 848.128 821.108 844.32 779.912 844.32C735.473 844.32 689.21 851.376 649.645 864.187C602.534 879.444 572.359 880.63 564.232 880.63C560.396 880.63 557.379 880.401 555.729 879.983C553.259 879.36 551.934 878.592 551.794 877.7C551.44 875.423 557.982 871.441 567.032 865.928ZM555.528 880.749C557.242 881.183 560.332 881.419 564.232 881.419C572.389 881.419 602.674 880.23 649.897 864.937C689.387 852.149 735.559 845.109 779.912 845.109C852.919 845.109 901.425 855.834 963.896 914.471C968.333 918.632 974.277 920.744 981.559 920.744C1008.71 920.744 1049.77 891.766 1075.04 854.766C1094.78 825.865 1123.47 766.841 1093.84 696.282C1081.09 665.907 1065.07 661.717 1049.67 661.717C1030.62 661.717 1006.81 669.242 979.201 677.969C942.015 689.72 899.872 703.041 853.145 703.041C815.894 703.041 781.693 694.625 748.581 677.311C643.95 622.593 642.529 520.662 650.565 448.751C653.051 426.477 649.521 408.859 640.632 399.138C635.284 393.286 628.138 390.319 619.394 390.319C599.519 390.319 574.473 406.239 565.061 436.669C556.558 464.156 580.719 494.101 608.706 528.787C644.457 573.098 688.947 628.242 680.278 702.147C677.794 723.313 672.033 743.436 663.152 761.962C649.022 791.432 630.338 816.446 607.619 836.306C592.631 849.409 577.589 858.572 566.606 865.26C556.604 871.349 550.566 875.026 551 877.821C551.196 879.084 552.637 880.017 555.528 880.749Z" fill="#E0E0E0"/>
<path d="M493.566 -158H491.594C487.469 -143.824 484.578 -128.299 482.867 -111.245C479.889 -81.5864 477.266 -42.7431 483.462 -5.29634C487.976 21.9905 497.039 34.1624 512.843 34.1624H512.848C522.942 34.1598 534.668 29.3652 548.246 23.8131C557.682 19.9548 567.437 15.9624 577.868 13.072C578.869 12.7932 579.861 12.5249 580.872 12.2593C610.57 4.4559 644.041 3.35391 679.554 8.99013C689.084 10.5024 698.74 13.1193 708.079 15.6468C721.697 19.3368 735.776 23.1477 750.072 23.7658C757.824 24.1024 763.341 23.3318 767.249 21.425C778.657 15.8572 773.11 1.93895 767.236 -12.7946C763.765 -21.508 760.173 -30.5186 759.583 -38.6007C756.448 -81.5127 780.902 -120.632 813.222 -158H810.752C778.681 -120.693 754.562 -81.5653 757.711 -38.4692C758.32 -30.1083 761.962 -20.9662 765.49 -12.124C771.28 2.40973 776.28 14.9604 766.412 19.776C762.848 21.5171 757.454 22.2377 750.155 21.9274C736.071 21.3198 722.094 17.5352 708.581 13.8741C699.193 11.3309 689.486 8.70082 679.852 7.17274C644.076 1.49446 610.339 2.6096 580.387 10.484C579.365 10.7523 578.367 11.0205 577.359 11.2993C566.817 14.2213 557.008 18.2348 547.524 22.1115C534.129 27.5899 522.563 32.3187 512.848 32.3214C498.144 32.3214 489.655 20.6281 485.315 -5.59354C479.154 -42.8272 481.77 -81.518 484.733 -111.064C486.455 -128.209 489.379 -143.792 493.566 -158Z" fill="#E0E0E0"/>
<path d="M386.797 301.258C369.797 292.066 361.238 283.728 360.627 275.765C359.825 265.3 372.437 255.824 387.041 244.848C391.826 241.253 396.772 237.534 401.617 233.523C431.987 208.354 444.967 203.925 461.009 203.925C465.628 203.925 470.461 204.316 476.056 204.766L478.682 204.977C539.515 209.79 583.729 233.463 586.011 237.566C586.473 238.394 586.376 238.812 586.263 239.052C585.684 240.298 582.318 241.016 576.744 242.202C564.186 244.88 540.816 249.859 505.767 269.04C471.03 288.052 448.644 323.813 441.869 350.821C440.219 357.402 438.529 360.6 436.705 360.6C434.085 360.6 430.558 354.395 426.097 346.542C418.241 332.724 406.375 311.838 386.797 301.258ZM436.703 361.389H436.705C439.017 361.389 440.852 358.188 442.649 351.01C449.384 324.168 471.631 288.626 506.159 269.729C541.103 250.605 564.398 245.643 576.913 242.973C583.128 241.65 586.247 240.985 586.996 239.378C587.285 238.76 587.194 238.044 586.717 237.187C584.313 232.868 541.012 209.116 478.749 204.19L476.121 203.98C470.509 203.527 465.663 203.136 461.009 203.136C444.768 203.136 431.66 207.594 401.096 232.918C396.271 236.919 391.328 240.632 386.55 244.222C371.761 255.334 358.991 264.934 359.825 275.822C360.466 284.189 368.915 292.489 386.411 301.947C405.782 312.42 417.584 333.187 425.392 346.929C430.343 355.634 433.61 361.386 436.703 361.389Z" fill="#E0E0E0"/>
<path d="M358.618 308.551C339.491 295.419 330.463 284.625 330.211 274.581C329.892 261.904 343.402 251.623 360.507 238.605C368.237 232.721 376.232 226.638 384.014 219.542C415.444 190.885 431.197 182.148 451.434 182.148C455.068 182.148 459.094 182.432 463.743 183.013C505.263 188.202 548.52 200.624 595.987 220.986C607.247 225.817 620.559 231.69 633.892 238.615C635.394 239.394 637.693 240.377 640.356 241.516C649.191 245.288 662.541 250.989 664.196 256.828C664.663 258.469 664.566 259.727 663.914 260.568C663.051 261.681 661.323 261.915 660.025 261.915C657.225 261.915 653.824 260.863 651.917 259.824C649.433 258.472 647.62 255.955 645.863 253.522C643.285 249.948 640.622 246.255 635.727 245.848C630.679 245.414 628.984 247.941 627.326 250.364C626.213 251.989 625.159 253.525 623.136 254.309C621.913 254.782 620.792 255.011 619.703 255.011C616.828 255.011 614.647 253.357 612.338 251.605C610.112 249.919 607.813 248.173 604.642 247.623C604.015 247.513 603.358 247.457 602.698 247.457C597.143 247.457 591.29 251.323 585.631 255.063C581.194 257.993 577.005 260.76 572.987 261.799C552.291 267.146 534.626 273.874 518.975 282.361C468.222 309.882 453.049 361.404 446.053 397.768C445.018 403.141 443.618 405.755 441.773 405.755C438.165 405.755 432.387 396.687 424.389 384.139C410.661 362.591 389.912 330.031 358.618 308.551ZM441.773 406.544C444.101 406.544 445.713 403.801 446.845 397.912C453.81 361.71 468.909 310.413 519.364 283.053C534.956 274.594 552.562 267.893 573.191 262.562C577.34 261.489 581.785 258.554 586.079 255.716C591.639 252.044 597.39 248.246 602.698 248.246C603.312 248.246 603.918 248.296 604.5 248.396C607.478 248.914 609.698 250.6 611.847 252.228C614.266 254.067 616.552 255.8 619.703 255.8C620.897 255.8 622.114 255.553 623.429 255.042C625.687 254.169 626.859 252.457 627.994 250.803C629.601 248.457 631.103 246.255 635.66 246.634C640.179 247.01 642.62 250.395 645.206 253.977C647.014 256.484 648.88 259.074 651.525 260.513C653.462 261.568 656.948 262.704 660.025 262.704C662.179 262.704 663.702 262.146 664.555 261.047C665.368 259.997 665.507 258.509 664.971 256.615C663.214 250.416 649.653 244.625 640.681 240.79C638.031 239.659 635.743 238.683 634.27 237.918C620.91 230.98 607.585 225.102 596.309 220.265C548.772 199.872 505.443 187.429 463.845 182.229C459.164 181.643 455.103 181.359 451.434 181.359C430.955 181.359 415.074 190.146 383.466 218.963C375.709 226.035 367.73 232.108 360.013 237.981C342.729 251.134 329.076 261.525 329.406 274.602C329.664 284.917 338.799 295.911 358.157 309.198C389.316 330.585 410.012 363.064 423.708 384.557C432.146 397.797 437.717 406.544 441.773 406.544Z" fill="#E0E0E0"/>
<path d="M459.639 696.642C448.693 691.758 435.679 689.38 419.851 689.38C390.526 689.38 357.39 697.854 330.764 704.664C311.862 709.498 295.535 713.671 285.34 713.674H285.332C279.852 713.674 276.467 712.475 274.992 710.003C272.916 706.534 274.445 700.395 279.665 691.24C292.086 669.463 313.868 649.903 334.935 630.983C352.232 615.449 368.57 600.779 379.787 585.199C402.685 553.391 416.198 517.127 418.867 480.32C421.916 438.239 410.89 398.223 386.093 361.383C377.271 348.278 360.885 337.266 345.038 326.614C315.51 306.768 287.617 288.023 308.26 257.767C318.785 242.342 328.368 236.566 339.459 229.878C346.455 225.662 354.378 220.886 363.492 213.027C371.397 206.21 377.751 199.546 383.896 193.099C399.729 176.49 412.236 163.372 438.38 163.372C442.494 163.372 446.96 163.701 451.654 164.353C515.022 173.158 585.092 187.876 668.034 235.533C777.222 298.273 851.058 356.857 881.759 454.919C896.037 500.513 890.742 550.895 868.589 580.288C855.637 597.473 837.575 606.557 816.35 606.557C804.635 606.557 791.851 603.825 778.362 598.433C753.257 588.399 737.895 565.447 731.396 528.271C725.715 495.761 727.55 456.639 729.173 422.125C729.629 412.401 730.061 403.22 730.332 394.322C731.509 355.831 720.716 323.952 699.127 302.139C679.466 282.274 651.193 271.336 619.51 271.336C577.423 271.336 534.792 289.856 502.547 322.146C482.856 341.866 470.698 362.209 465.376 384.346C460.623 404.114 461.468 424.889 467.959 447.86C480.027 490.535 509.193 533 540.076 577.961C550.859 593.659 562.009 609.895 572.231 625.964C595.861 663.122 591.768 689.299 584.175 704.716C575.879 721.559 558.841 733.747 540.771 735.761C538.727 735.99 536.689 736.106 534.706 736.106C515.85 736.106 502.415 725.859 488.189 715.015C479.434 708.338 470.379 701.434 459.639 696.642ZM540.862 736.548C559.2 734.501 576.485 722.14 584.899 705.058C592.581 689.464 596.738 663.009 572.915 625.549C562.685 609.466 551.529 593.225 540.744 577.519C509.899 532.616 480.764 490.201 468.737 447.649C455.13 399.519 466.058 359.816 503.123 322.698C535.216 290.559 577.638 272.125 619.51 272.125C650.973 272.125 679.042 282.979 698.55 302.688C719.986 324.347 730.696 356.023 729.527 394.301C729.256 403.191 728.824 412.37 728.368 422.088C726.748 456.644 724.908 495.811 730.603 528.4C737.15 565.87 752.672 589.017 778.056 599.164C791.644 604.595 804.53 607.346 816.35 607.346C837.838 607.346 856.128 598.152 869.238 580.756C891.533 551.173 896.876 500.511 882.532 454.687C851.753 356.381 777.796 297.689 668.442 234.854C585.379 187.126 515.215 172.39 451.767 163.574C447.038 162.917 442.535 162.583 438.38 162.583C411.885 162.583 399.276 175.812 383.308 192.56C377.177 198.993 370.836 205.645 362.961 212.433C353.898 220.249 346.004 225.007 339.041 229.207C327.867 235.943 318.214 241.761 307.592 257.331C286.507 288.234 314.716 307.194 344.58 327.266C360.365 337.873 376.686 348.841 385.422 361.817C440.357 443.428 418.191 530.483 379.129 584.741C367.963 600.256 351.655 614.897 334.393 630.404C313.278 649.364 291.448 668.968 278.965 690.856C273.592 700.277 272.063 706.67 274.298 710.405C275.931 713.135 279.541 714.463 285.332 714.463H285.34C295.64 714.46 312.01 710.276 330.965 705.426C357.548 698.63 390.631 690.169 419.851 690.169C435.341 690.169 448.618 692.589 459.306 697.363C469.96 702.115 478.975 708.99 487.692 715.636C502.032 726.569 515.574 736.895 534.706 736.895C536.718 736.895 538.789 736.779 540.862 736.548Z" fill="#E0E0E0"/>
<path d="M778.254 377.958C778.388 377.811 778.533 377.75 778.729 377.75C779.099 377.75 779.818 377.974 781.135 379.039C788.726 385.185 850.57 458.756 832.411 528.542C829.732 538.833 824.324 544.501 817.184 544.501H817.181C812.018 544.498 806.243 541.427 800.919 535.848C788.911 523.271 777.055 495.319 779.789 454.606C781.406 430.517 779.59 410.079 778.383 396.553C777.501 386.621 776.862 379.447 778.254 377.958ZM778.453 454.519C775.688 495.653 787.741 523.966 799.94 536.745C805.522 542.594 811.645 545.814 817.181 545.816H817.184C824.995 545.816 830.866 539.796 833.709 528.863C852.034 458.448 789.648 384.225 781.988 378.024C779.778 376.238 778.254 376.007 777.262 377.069C775.473 378.984 776.033 385.264 777.047 396.666C778.249 410.153 780.062 430.53 778.453 454.519Z" fill="#E0E0E0"/>
<path d="M1105.57 -7.99475C1084.6 -7.99475 1061.35 -4.10753 1036.74 0.00850677C1007.35 4.92408 976.954 10.008 943.831 10.0106C941.385 10.0106 938.984 9.98168 936.699 9.92908C934.722 9.88173 932.775 9.82914 930.86 9.77917C925.852 9.64503 921.121 9.51879 916.564 9.51879C888.03 9.51879 870.357 15.2207 858.711 45.2954C851.351 64.3107 843.004 85.864 822.978 99.7586C817.313 103.691 811.651 107.047 806.649 110.008C795.062 116.872 785.91 122.296 785.567 129.783C785.253 136.669 792.353 144.948 808.588 156.631C824.164 167.835 836.977 173.282 847.759 173.282C848.733 173.282 849.709 173.235 850.661 173.15C866.326 171.722 876.832 159.03 890.13 142.963C896.179 135.656 903.032 127.379 911.068 119.5C945.902 85.3433 988.705 60.4288 1034.85 47.4495C1054.32 41.9763 1073.55 39.199 1092.03 39.199C1137.68 39.199 1172.88 55.387 1202 74.0946V73.1504C1172.87 54.5006 1137.66 38.4126 1092.03 38.4126C1073.48 38.4126 1054.17 41.1978 1034.64 46.692C988.353 59.7055 945.427 84.6911 910.496 118.942C902.431 126.851 895.567 135.146 889.508 142.465C876.325 158.388 865.913 170.967 850.586 172.364C849.661 172.448 848.709 172.49 847.759 172.49C837.156 172.49 824.496 167.093 809.066 155.994C793.069 144.483 786.071 136.411 786.371 129.82C786.696 122.753 795.687 117.427 807.067 110.684C812.078 107.715 817.756 104.351 823.445 100.403C843.669 86.369 852.059 64.6974 859.464 45.5769C870.944 15.9282 888.39 10.3104 916.564 10.3104C921.11 10.3104 925.836 10.4341 930.836 10.5682C932.754 10.6182 934.701 10.6708 936.678 10.7155C938.971 10.7707 941.38 10.7996 943.831 10.7996C977.021 10.797 1007.45 5.70784 1036.88 0.784379C1061.45 -3.32377 1084.67 -7.20574 1105.57 -7.20574C1117.68 -7.20574 1128.27 -5.8907 1137.95 -3.18174C1158.74 2.64383 1180.02 12.1909 1202 23.3318V22.4429C1180.11 11.3625 1158.91 1.87059 1138.17 -3.93921C1128.42 -6.66657 1117.76 -7.99475 1105.57 -7.99475Z" fill="#E0E0E0"/>
<path d="M755.526 336.524C755.78 336.243 756.11 336.111 756.572 336.111C758.248 336.111 761.362 337.923 765.525 340.643C792.744 358.438 865.073 439.57 844.685 529.904C840.903 546.663 828.214 557.488 812.354 557.488C801.182 557.488 790.016 552.178 780.91 542.542C763.363 523.968 755.399 491.887 758.492 452.204C762.456 401.384 758.299 369.381 756.065 352.191C754.914 343.328 754.219 337.979 755.526 336.524ZM757.693 452.141C754.579 492.047 762.615 524.342 780.32 543.081C789.579 552.88 800.957 558.277 812.354 558.277C828.603 558.277 841.606 547.207 845.471 530.072C856.769 480.007 839.286 434.964 822.635 405.992C803.063 371.948 778.024 347.865 765.967 339.985C761.566 337.105 758.457 335.322 756.572 335.322C755.882 335.322 755.33 335.551 754.922 336.003C753.374 337.726 754.007 342.594 755.265 352.291C757.497 369.455 761.646 401.402 757.693 452.141Z" fill="#E0E0E0"/>
<path d="M733.856 301.934C734.076 301.673 734.376 301.552 734.808 301.552C736.972 301.552 741.672 304.545 749.456 309.5C817.906 353.065 883.494 433.786 862.305 529.675C855.462 560.655 833.283 581.466 807.123 581.464C793.476 581.464 780.69 575.651 770.141 564.66C749.6 543.249 739.985 504.224 743.061 454.774C747.653 380.948 739.36 337.936 735.371 317.267C733.692 308.569 732.681 303.32 733.856 301.934ZM742.259 454.729C739.166 504.395 748.863 543.628 769.553 565.2C780.261 576.356 793.248 582.253 807.123 582.253H807.126C833.675 582.253 856.165 561.191 863.091 529.846C873.312 483.594 864.526 438.073 836.976 394.538C809.068 350.435 770.436 321.914 749.895 308.838C739.435 302.178 734.953 299.406 733.233 301.429C731.82 303.104 732.743 307.885 734.58 317.414C738.563 338.052 746.846 380.998 742.259 454.729Z" fill="#E0E0E0"/>
<path d="M411.847 269.571C417.461 254.282 467.012 233.337 490.769 233.337C491.6 233.337 492.405 233.36 493.175 233.41C497.828 233.721 499.875 234.049 500.722 234.312C499.717 234.996 497.072 236.13 494.5 237.232C482.883 242.216 461.256 251.492 450.777 270.899C444.184 283.113 439.364 287.871 433.584 287.871C428.879 287.871 423.118 284.825 414.323 277.69C411.493 275.394 410.683 272.737 411.847 269.571ZM433.586 289.712C441.188 289.712 446.619 282.537 452.437 271.759C462.608 252.92 483.843 243.812 495.251 238.92C501.028 236.443 503.19 235.514 502.914 233.962C502.683 232.658 501.197 232.103 493.303 231.574C469.544 229.994 416.227 252.21 410.079 268.945C408.658 272.822 409.709 276.335 413.126 279.107C422.286 286.54 428.404 289.712 433.584 289.712H433.586Z" fill="#E0E0E0"/>
<path d="M422.09 306.607C417.442 295.737 408.051 291.148 399.766 287.103C392.47 283.539 386.17 280.462 385.258 273.897C384.909 271.401 386.577 267.869 390.083 263.685C404.551 246.403 444.736 223.053 461.747 222.04C466.06 221.785 470.391 221.654 474.632 221.654C511.775 221.654 536.535 231.732 537.042 235.985C537.125 236.661 535.993 237.026 535.312 237.184C508.004 243.528 474.281 255.048 455.755 288.136C440.359 315.631 428.798 322.288 422.09 306.607ZM456.929 288.768C475.201 256.136 508.584 244.743 535.623 238.462C538.219 237.86 538.461 236.556 538.375 235.832C537.742 230.514 512.425 220.339 474.632 220.339C470.367 220.339 466.003 220.47 461.666 220.731C444.398 221.756 403.676 245.374 389.048 262.851C385.247 267.39 383.525 271.167 383.927 274.076C384.936 281.33 391.531 284.552 399.168 288.281C407.244 292.223 416.398 296.695 420.856 307.117C423.45 313.185 426.856 316.262 430.982 316.262C437.985 316.262 446.715 307.012 456.929 288.768Z" fill="#E0E0E0"/>
<path d="M984.311 595.009C986.226 597.712 990.898 598.867 999.937 598.867C1005.59 598.864 1012.33 598.425 1020.14 597.915C1029.81 597.284 1040.77 596.566 1052.1 596.566C1087.97 596.566 1112.15 604.038 1128.28 620.141C1143.27 631.451 1151.54 649.89 1158.84 666.157C1167.71 685.93 1175.37 703.007 1192.28 703.007C1194.07 703.007 1195.97 702.807 1197.91 702.415C1199.21 702.152 1200.58 701.807 1202 701.384V700.003C1200.48 700.471 1199.02 700.847 1197.64 701.123C1195.79 701.5 1193.98 701.692 1192.28 701.692C1176.24 701.692 1168.75 684.98 1160.07 665.628C1152.7 649.217 1144.36 630.614 1129.17 619.16C1112.84 602.849 1088.35 595.251 1052.1 595.251C1040.72 595.251 1029.74 595.969 1020.05 596.602C1012.27 597.11 1005.55 597.549 999.937 597.552C991.617 597.552 987.004 596.505 985.413 594.259C984.544 593.031 984.531 591.366 985.368 589.167C1002.44 544.438 1016.72 487.818 1015.34 470.378C1012.92 439.846 999.232 410.994 985.995 383.097C969.805 348.98 954.511 316.757 964.226 289.883C977.737 252.531 1039.43 187.692 1072.84 183.223C1074.44 183.01 1076.23 182.903 1078.18 182.903C1104.2 182.903 1150.04 201.168 1202 231.372V229.846C1150.1 199.766 1104.29 181.588 1078.18 181.588C1076.17 181.588 1074.32 181.701 1072.66 181.922C1038.88 186.44 976.578 251.8 962.966 289.441C953.063 316.822 968.47 349.285 984.78 383.652C997.969 411.444 1011.61 440.182 1014 470.481C1015.21 485.756 1002.42 540.727 984.112 588.704C983.109 591.337 983.173 593.399 984.311 595.009Z" fill="#E0E0E0"/>
<path d="M1105.57 10.1526C1086.17 10.1526 1063.68 13.9136 1039.85 17.8955C1009.7 22.9399 978.523 28.1553 943.831 28.158C941.294 28.158 938.767 28.129 936.264 28.0712L930.358 27.9186C925.487 27.7898 920.887 27.6688 916.563 27.6688C878.986 27.6688 877.127 47.9202 875.158 69.3631C874.074 81.1247 872.959 93.286 866.35 103.622C863.989 107.31 857.651 111.98 850.94 116.925C836.649 127.45 820.454 139.383 828.224 150.553C831.569 155.361 835.595 157.799 840.193 157.799C842.708 157.799 845.436 157.065 848.306 155.613C860.98 149.204 874.536 130.217 885.428 114.963C891.608 106.305 896.948 98.8302 899.864 97.118C902.924 95.327 906.342 95.085 909.281 95.085C910.419 95.085 911.566 95.1245 912.714 95.1639C913.889 95.2034 915.067 95.2454 916.242 95.2454C920.657 95.2454 925.326 94.7273 929.537 90.9663C934.618 86.4321 935.259 80.5618 935.873 74.8809C936.431 69.776 936.956 64.9524 940.416 60.8943C950.872 48.6408 987.559 40.0748 1011.84 34.4096C1018.98 32.7422 1025.15 31.3009 1029.75 30.0069C1050.87 24.0656 1071.83 21.0542 1092.03 21.0542C1136.88 21.0542 1172.74 35.4669 1202 52.7122V51.1683C1172.72 34.0098 1136.85 19.7392 1092.03 19.7392C1071.7 19.7392 1050.62 22.7664 1029.38 28.7418C1024.81 30.0279 1018.65 31.4666 1011.52 33.1314C985.615 39.1779 950.132 47.4626 939.389 60.05C935.664 64.4159 935.092 69.6655 934.54 74.7415C933.923 80.4277 933.338 85.7957 928.636 89.9932C924.76 93.4517 920.388 93.9304 916.242 93.9304C915.083 93.9304 913.922 93.8883 912.763 93.8489C911.596 93.8094 910.435 93.77 909.281 93.77C906.159 93.77 902.517 94.033 899.18 95.9897C896.012 97.8439 890.857 105.063 884.328 114.208C874.093 128.547 860.07 148.183 847.692 154.443C840.142 158.259 834.168 156.768 829.332 149.814C822.283 139.68 837.937 128.147 851.745 117.977C858.855 112.738 864.995 108.214 867.487 104.319C874.268 93.72 875.397 81.3982 876.494 69.4814C878.489 47.7493 880.211 28.9838 916.563 28.9838C920.871 28.9838 925.46 29.1048 930.321 29.2337L936.23 29.3862C938.745 29.4441 941.283 29.473 943.831 29.473C978.635 29.4704 1009.87 24.2445 1040.1 19.1921C1063.85 15.2181 1086.28 11.4676 1105.57 11.4676C1115.89 11.4676 1124.77 12.5486 1132.72 14.7736C1154.64 20.9148 1177.79 31.819 1202 44.4143V42.9258C1177.95 30.4356 1154.94 19.6313 1133.09 13.5112C1125.02 11.252 1116.01 10.1526 1105.57 10.1526Z" fill="#E0E0E0"/>
<path d="M1024.82 560.75C1029.81 567.782 1040.34 568.574 1054.92 569.668C1056.51 569.786 1058.13 569.91 1059.81 570.042C1064.42 570.412 1069.25 570.576 1074.36 570.746C1098.07 571.543 1124.95 572.443 1149.21 594.117L1149.51 594.375C1162.97 605.931 1170.98 626.288 1178.04 644.246C1185.16 662.338 1191.31 677.966 1201.08 677.966C1201.38 677.966 1201.69 677.903 1202 677.874V677.08C1201.69 677.114 1201.38 677.177 1201.08 677.177C1191.86 677.177 1185.8 661.783 1178.79 643.965C1171.69 625.917 1163.65 605.466 1150.04 593.786L1149.75 593.531C1125.27 571.664 1098.24 570.757 1074.39 569.957C1069.28 569.786 1064.47 569.623 1059.88 569.258C1058.2 569.124 1056.57 569 1054.98 568.882C1040.62 567.803 1030.25 567.025 1025.48 560.297C1020.96 553.927 1021.6 542 1027.55 521.633C1033.07 502.783 1035.1 485.559 1033.79 468.974C1031.12 435.172 1016.71 404.816 1002.78 375.441C988.227 344.785 974.486 315.828 981.672 295.945C993.642 262.841 1051.42 204.406 1075.34 201.205C1075.87 201.134 1076.8 201.05 1078.18 201.05C1098.16 201.05 1143.37 217.359 1202 252.565V251.639C1143.43 216.528 1098.22 200.261 1078.18 200.261C1076.75 200.261 1075.79 200.35 1075.23 200.424C1051.13 203.646 992.948 262.404 980.913 295.682C973.614 315.868 987.425 344.967 1002.05 375.791C1015.95 405.084 1030.32 435.375 1032.99 469.034C1034.3 485.525 1032.27 502.66 1026.78 521.417C1020.67 542.31 1020.08 554.074 1024.82 560.75Z" fill="#E0E0E0"/>
<path d="M437.095 749.227C434.421 748.449 431.223 748.07 427.323 748.07C410.852 748.07 385.373 754.921 355.872 762.859C318.675 772.864 276.515 784.202 242.368 784.204C219.167 784.204 202.644 779.039 191.856 768.411C181.978 758.682 177.018 744.046 177.11 724.91C177.271 691.369 223.413 654.511 264.124 621.988C288.39 602.604 311.312 584.294 322.566 568.421C345.695 535.796 366.147 500.471 359.19 463.23C355.142 441.569 342.562 428.729 329.251 415.139C321.909 407.643 314.316 399.895 307.895 390.332C301.913 381.43 298.735 373.463 295.932 366.436C290.407 352.586 286.043 341.65 264.655 331.974C258.314 329.107 253.338 327.024 249.342 325.352C233.841 318.858 233.841 318.858 227.737 303.188C226.446 299.877 224.891 295.884 222.874 291.008C215.079 272.159 208.993 268.471 201.113 268.471C199.439 268.471 197.725 268.634 195.909 268.805C193.89 268.995 191.8 269.195 189.528 269.195C184.547 269.195 177.614 268.369 168.119 261.928C160.863 257.007 157.814 252.533 159.056 248.636C163.94 233.289 232.2 227.545 245.772 227.545C246.099 227.545 246.322 227.548 246.429 227.564L246.641 226.714L247.057 227.521C255.972 223.103 260.808 217.438 265.486 211.959C271.706 204.672 277.583 197.786 292.499 193.126C297.804 191.466 302.294 190.193 305.902 189.17C325.388 183.644 325.651 183.365 334.014 159.245L335.071 156.197C336.632 151.707 335.371 148.536 334.258 145.737C332.818 142.113 331.573 138.983 336.557 133.25C339.215 130.196 348.764 126.58 357.189 123.387C362.867 121.236 368.234 119.203 371.096 117.496C375.554 114.837 378.585 111.226 381.514 107.733C385.317 103.204 388.906 98.9248 395.386 96.6498C399.758 95.1139 405.144 94.3328 411.391 94.3328C427.286 94.3328 445.973 99.201 460.988 103.112C464.427 104.009 467.645 104.848 470.561 105.555C519.321 117.396 565.718 138.917 610.589 159.729L615.21 161.875C721.837 211.299 802.419 266.559 861.562 330.806C901.272 373.942 926.901 415.957 939.915 459.25C955.195 510.1 944.222 572.114 912.607 613.569C896.203 635.083 867.076 660.726 821.489 660.728C809.698 660.731 797.395 658.937 784.928 655.403C676.209 624.571 679.796 519.442 691.689 423.324C695.243 394.596 689.747 371.246 675.786 355.797C663.981 342.734 646.136 335.538 625.537 335.538C587.659 335.538 539.328 361.076 524.361 408.404C507.203 462.669 543.82 508.922 579.228 553.651C616.978 601.334 656.01 650.637 634.211 711.425C621.634 746.489 574.811 792.373 535.532 796.76C533.344 797.002 531.16 797.126 529.036 797.126C508.195 797.126 493.413 785.533 477.765 773.255C465.631 763.737 453.081 753.893 437.095 749.227ZM535.744 798.588C575.669 794.13 623.228 747.594 635.984 712.038C658.123 650.3 618.77 600.595 580.714 552.523C543.981 506.126 509.287 462.301 526.155 408.948C540.854 362.462 588.329 337.376 625.537 337.376C645.592 337.376 662.935 344.354 674.38 357.02C687.971 372.061 693.314 394.911 689.824 423.103C677.835 519.973 674.27 625.935 784.405 657.167C797.044 660.755 809.521 662.57 821.489 662.57C867.854 662.567 897.45 636.522 914.115 614.671C946.062 572.777 957.156 510.108 941.717 458.732C928.623 415.165 902.86 372.919 862.957 329.573C803.642 265.142 722.867 209.742 616.012 160.21L611.391 158.064C566.437 137.216 519.954 115.652 471.011 103.767C468.107 103.062 464.896 102.226 461.471 101.334C446.351 97.3941 427.533 92.4944 411.391 92.4944C404.927 92.4944 399.329 93.3097 394.753 94.9166C387.785 97.3626 383.861 102.041 380.063 106.563C377.233 109.937 374.307 113.424 370.12 115.923C367.4 117.546 362.11 119.55 356.51 121.67C347.458 125.099 338.097 128.644 335.13 132.056C329.417 138.626 330.989 142.581 332.509 146.405C333.601 149.154 334.634 151.75 333.293 155.605L332.236 158.651C324.109 182.092 324.109 182.092 305.379 187.403C301.76 188.428 297.257 189.706 291.927 191.371C276.491 196.192 270.164 203.609 264.046 210.778C259.338 216.294 254.889 221.504 246.515 225.725C246.289 225.704 246.04 225.704 245.772 225.704C236.108 225.704 162.883 230.43 157.264 248.086C155.748 252.844 159.042 258.009 167.049 263.443C177.083 270.249 184.684 271.036 189.528 271.036C191.891 271.036 194.026 270.833 196.092 270.639C197.859 270.47 199.528 270.312 201.113 270.312C207.003 270.312 212.966 271.948 221.136 291.7C223.145 296.56 224.695 300.545 225.982 303.846C232.312 320.092 232.522 320.31 248.604 327.043C252.59 328.713 257.552 330.791 263.869 333.647C284.57 343.01 288.811 353.643 294.181 367.106C297.021 374.218 300.237 382.282 306.326 391.345C312.843 401.047 320.496 408.859 327.896 416.412C341.012 429.799 353.399 442.444 357.344 463.564C364.176 500.14 343.925 535.072 321.024 567.369C309.92 583.031 287.099 601.26 262.935 620.562C221.905 653.338 175.398 690.49 175.232 724.899C175.138 744.546 180.283 759.621 190.526 769.71C201.684 780.704 218.641 786.046 242.368 786.046C276.77 786.043 319.058 774.668 356.368 764.634C385.738 756.733 411.104 749.911 427.323 749.911C430.987 749.911 434.096 750.277 436.558 750.995C452.196 755.555 464.598 765.284 476.593 774.694C492.507 787.176 507.538 798.967 529.036 798.967C531.23 798.967 533.488 798.841 535.744 798.588Z" fill="#E0E0E0"/>
<path d="M780.83 41.3661C771.737 47.6651 759.286 50.7265 742.772 50.7265C723.368 50.7265 701.667 46.4658 682.518 42.7048C671.231 40.4877 660.572 38.3941 651.866 37.4868C647.601 37.0397 636.156 36.0034 622.05 36.0034C595.92 36.0034 562.408 39.4751 551.148 56.0155C546.25 63.2061 546.049 72.243 550.55 82.8763C552.666 87.8681 558.133 90.5823 563.419 93.2045C567.601 95.2796 571.927 97.4257 574.325 100.624C577.171 104.419 578.85 109.734 580.473 114.876C582.635 121.722 584.869 128.802 589.947 132.984C596.242 138.171 603.149 140.585 611.689 140.585C617.614 140.585 623.676 139.409 629.534 138.276C635.324 137.153 641.311 135.993 647.094 135.993C652.644 135.993 657.474 137.071 661.865 139.288C672.527 144.677 677.012 151.931 681.351 158.945C687.006 168.093 692.346 176.732 709.952 180.772C746.787 189.225 756.883 198.054 781.272 219.389C784.416 222.14 787.795 225.094 791.497 228.279C800.276 235.835 806.761 244.459 813.027 252.799C818.619 260.239 824.405 267.935 831.846 274.96C841.003 283.602 849.626 287.447 857.965 291.166C869.083 296.121 879.578 300.803 889.103 316.838L890.589 319.352C902.57 339.67 914.683 358.469 922.126 358.469C923.323 358.469 924.355 358.009 925.2 357.102C927.885 354.222 928.609 346.566 927.421 333.697C926.724 326.154 921.166 319.416 915.791 312.896C909.995 305.868 904.52 299.227 904.848 291.892C905.239 283.095 910.665 278.765 916.405 274.184C920.611 270.831 924.956 267.362 927.502 261.991C933.614 249.088 935.098 237.529 936.527 226.354C938.523 210.797 940.403 196.103 954.605 179.478C980.017 149.735 1015.66 127.266 1054.98 116.21C1068.07 112.528 1080.2 110.736 1092.03 110.736C1132.2 110.736 1161.02 132.161 1191.53 154.842C1194.99 157.412 1198.48 159.995 1202 162.572V160.274C1198.86 157.972 1195.75 155.668 1192.67 153.378C1161.9 130.501 1132.83 108.895 1092.03 108.895C1080.02 108.895 1067.73 110.71 1054.46 114.44C1014.79 125.596 978.815 148.275 953.162 178.297C938.609 195.335 936.694 210.289 934.666 226.122C933.252 237.161 931.79 248.572 925.798 261.215C923.438 266.202 919.262 269.534 915.222 272.756C909.41 277.393 903.402 282.187 902.973 291.811C902.613 299.843 908.57 307.068 914.329 314.053C919.53 320.357 924.903 326.877 925.552 333.863C926.949 349.001 925.377 354.18 923.814 355.86C923.325 356.384 922.789 356.628 922.126 356.628C914.74 356.628 898.957 329.862 892.217 318.432L890.726 315.91C880.901 299.369 870.137 294.572 858.743 289.491C850.549 285.835 842.073 282.056 833.149 273.634C825.821 266.717 820.084 259.087 814.54 251.707C808.21 243.289 801.668 234.583 792.733 226.896C789.04 223.716 785.663 220.762 782.522 218.014C757.881 196.461 747.68 187.539 710.381 178.979C693.545 175.115 688.4 166.799 682.955 157.991C678.481 150.758 673.86 143.278 662.723 137.652C658.062 135.296 652.949 134.152 647.094 134.152C641.129 134.152 635.048 135.33 629.171 136.469C623.397 137.589 617.431 138.744 611.689 138.744C603.615 138.744 597.092 136.466 591.154 131.574C586.5 127.74 584.349 120.925 582.267 114.332C580.599 109.045 578.872 103.577 575.838 99.5324C573.177 95.9792 568.647 93.7331 564.267 91.5607C559.055 88.9754 554.134 86.5347 552.286 82.1688C548.04 72.1404 548.182 63.6874 552.709 57.0386C563.508 41.1741 596.379 37.8445 622.05 37.8445C636.067 37.8445 647.432 38.8728 651.667 39.3173C660.285 40.2168 670.907 42.3024 682.148 44.509C701.382 48.2884 723.181 52.5675 742.772 52.5675C759.688 52.5649 772.491 49.3957 781.916 42.8705C805.388 26.5983 798.656 2.05466 792.143 -21.679C785.188 -47.0327 778 -73.2491 806.912 -90.3576C810.377 -92.4091 815.012 -93.4479 820.682 -93.4479C837.969 -93.4479 862.326 -84.1796 885.882 -75.2164C906.393 -67.413 925.769 -60.0383 938.373 -59.749C940.189 -59.7069 941.994 -59.6859 943.812 -59.6859H943.831C970.924 -59.6885 998.312 -64.2675 1024.8 -68.6965C1051.24 -73.1202 1078.58 -77.6913 1105.57 -77.6913C1124.45 -77.6913 1141.5 -75.4873 1157.68 -70.9583C1172.65 -66.7686 1187.42 -61.2376 1202 -54.9097V-56.9138C1187.59 -63.1365 1173 -68.5834 1158.2 -72.7283C1141.85 -77.3073 1124.63 -79.5323 1105.57 -79.5323C1078.42 -79.5323 1051 -74.9455 1024.48 -70.5112C998.071 -66.0954 970.763 -61.5269 943.831 -61.5269C941.994 -61.4691 940.223 -61.548 938.413 -61.5901C926.139 -61.8715 906.913 -69.1883 886.557 -76.9338C862.844 -85.9575 838.323 -95.289 820.682 -95.289C814.58 -95.289 809.757 -94.1922 805.943 -91.933C775.817 -74.1091 783.195 -47.2115 790.333 -21.2003C796.966 2.98833 803.234 25.8356 780.83 41.3661Z" fill="#E0E0E0"/>
</g>
</svg>
