<svg width="571" height="329" viewBox="0 0 571 329" fill="none" xmlns="http://www.w3.org/2000/svg">
<g clip-path="url(#clip0_31_63)">
<path d="M9.9627 98.7525C8.67633 99.1569 7.30652 99.2138 5.99124 98.9177C4.67596 98.6215 3.46166 97.9827 2.47068 97.0655C1.4797 96.1484 0.747031 94.9853 0.346474 93.6935C-0.0540824 92.4017 -0.10838 91.0268 0.189056 89.7072C4.65182 71.0727 21.6213 25.5019 83.4418 6.3349C110.22 -1.96758 135.901 -2.10931 159.739 5.9105C179.35 12.4809 192.369 22.7627 198.597 27.7322C200.179 28.9886 201.199 30.8244 201.433 32.8357C201.667 34.847 201.095 36.8692 199.843 38.4572C199.827 38.4769 199.812 38.4965 199.796 38.516C198.51 40.1089 196.653 41.1311 194.624 41.3624C192.594 41.5936 190.556 41.0152 188.947 39.752C177.664 30.8295 143.425 3.7232 87.9333 20.9281C33.7489 37.7276 19.0302 77.0228 15.2126 93.0996C14.9226 94.4277 14.2824 95.653 13.3588 96.6475C12.4352 97.642 11.2623 98.3691 9.9627 98.7525Z" fill="#16B198"/>
<path d="M178.46 204.299C177.846 204.498 177.209 204.618 176.565 204.656C128.269 207.267 97.5407 166.997 96.2791 165.318L96.0453 164.93C95.2752 163.731 76.6825 135.339 84.8676 112.791C88.6273 102.482 96.9421 95.2463 109.651 91.3058C121.472 87.6411 131.144 88.725 139.377 94.6254C146.127 99.4327 150.453 106.602 154.647 113.525C163.368 127.899 168.712 135.212 185.289 130.993C192.567 129.139 195.966 123.428 197.519 118.978C201.699 106.872 197.994 90.3671 188.192 77.8803C175.529 61.6804 140.091 34.7734 96.367 48.3298C77.6953 54.1188 62.4145 65.5268 52.1813 81.2352C43.7038 94.2716 38.7755 110.463 38.6675 125.562C38.4974 153.676 61.4543 190.663 61.672 190.998C62.2006 191.847 62.5575 192.792 62.7223 193.779C62.8871 194.766 62.8566 195.775 62.6325 196.751C62.4085 197.726 61.9952 198.647 61.4164 199.462C60.8376 200.277 60.1045 200.969 59.2591 201.5C59.2356 201.515 59.2121 201.529 59.1884 201.544C57.4562 202.628 55.3686 202.985 53.3764 202.538C51.3841 202.09 49.6472 200.874 48.5407 199.152C47.5046 197.461 22.9914 158.024 23.1889 125.531C23.4638 90.3113 44.7879 48.2782 91.8593 33.684C113.617 26.9382 136.482 28.072 157.999 36.9265C174.676 43.8314 190.111 55.2617 200.316 68.3136C213.35 84.9736 217.942 106.781 212.008 123.801C208.053 135.148 199.863 142.978 188.98 145.777C160.615 153.019 149.503 134.785 141.398 121.485C133.077 107.849 128.474 101.456 114.091 105.915C106.193 108.364 101.328 112.287 99.2813 117.925C96.4968 125.631 99.1358 135.508 101.84 142.433C101.868 142.505 101.896 142.577 101.924 142.649C105.391 151.451 110.801 159.348 117.748 165.748C128.876 176.062 149.534 190.766 175.864 189.348C177.877 189.222 179.857 189.905 181.368 191.244C182.88 192.584 183.8 194.472 183.925 196.492C183.926 196.517 183.928 196.541 183.929 196.565C183.991 198.278 183.488 199.964 182.5 201.362C181.511 202.76 180.092 203.792 178.46 204.299Z" fill="#16B198"/>
<path d="M119.894 218.777C118.887 219.089 117.828 219.194 116.78 219.084C115.732 218.974 114.717 218.652 113.796 218.137C89.9758 204.591 73.2536 186.372 61.212 160.837L61.1636 160.679C53.5745 143.654 49.006 117.641 59.0833 95.6561C66.5229 79.4338 80.4877 68.0313 100.519 61.8206C124.212 54.4749 146.272 59.8832 164.378 77.3858C172.613 85.4638 179.309 94.9824 184.138 105.474C184.908 107.361 184.906 109.477 184.134 111.364C183.361 113.25 181.88 114.756 180.01 115.555C178.14 116.353 176.032 116.381 174.142 115.632C172.252 114.884 170.732 113.418 169.91 111.553C165.821 102.796 160.175 94.862 153.25 88.1389C139.294 74.8124 123.071 70.872 104.974 76.4826C89.3363 81.3311 78.568 89.9025 73.0556 101.962C65.1061 119.32 69.1989 140.995 75.1379 154.334C85.7556 176.918 100.483 192.938 121.448 204.839C122.314 205.329 123.076 205.986 123.689 206.771C124.302 207.557 124.755 208.456 125.022 209.417C125.289 210.379 125.365 211.383 125.245 212.374C125.125 213.365 124.812 214.322 124.324 215.191C124.305 215.225 124.285 215.26 124.265 215.294C123.288 216.958 121.731 218.199 119.894 218.777Z" fill="#16B198"/>
<path d="M122.403 142.439C127.844 142.439 132.256 138.011 132.256 132.55C132.256 127.088 127.844 122.66 122.403 122.66C116.961 122.66 112.549 127.088 112.549 132.55C112.549 138.011 116.961 142.439 122.403 142.439Z" fill="#E6E6E6"/>
<path d="M300.065 253.308C299.861 253.308 299.658 253.293 299.457 253.262C298.935 253.184 298.433 253.004 297.982 252.73C297.53 252.457 297.136 252.096 296.824 251.669L291.412 244.303C291.099 243.877 290.873 243.394 290.746 242.88C290.619 242.366 290.594 241.833 290.673 241.309C290.752 240.786 290.932 240.283 291.205 239.83C291.477 239.377 291.836 238.982 292.26 238.668L338.533 204.415C338.957 204.101 339.439 203.874 339.951 203.747C340.463 203.619 340.995 203.594 341.516 203.673C342.038 203.753 342.539 203.934 342.99 204.207C343.442 204.481 343.835 204.841 344.148 205.267L349.56 212.632C350.192 213.492 350.458 214.569 350.299 215.626C350.14 216.683 349.569 217.633 348.712 218.268L302.44 252.52C301.753 253.032 300.92 253.308 300.065 253.308Z" fill="#16B198"/>
<path d="M332.927 225.73L325.845 216.092C325.262 215.298 325.016 214.304 325.163 213.328C325.31 212.353 325.837 211.476 326.628 210.89L353.725 187.061C354.516 186.475 355.507 186.229 356.479 186.377C357.451 186.524 358.325 187.053 358.909 187.847L371.86 203.375C372.443 204.169 372.689 205.164 372.542 206.139C372.395 207.115 371.868 207.992 371.077 208.578L338.111 226.516C337.319 227.102 336.329 227.348 335.357 227.201C334.385 227.053 333.511 226.524 332.927 225.73Z" fill="#2F2E41"/>
<path d="M376.467 328.789H367.35C366.285 328.788 365.264 328.363 364.511 327.607C363.759 326.852 363.335 325.827 363.334 324.759V248.482C363.335 247.414 363.759 246.389 364.511 245.634C365.264 244.878 366.285 244.453 367.35 244.452H376.467C377.532 244.453 378.553 244.878 379.306 245.634C380.058 246.389 380.482 247.414 380.483 248.482V324.759C380.482 325.827 380.058 326.852 379.306 327.607C378.553 328.363 377.532 328.788 376.467 328.789Z" fill="#16B198"/>
<path d="M394.502 328.789H385.384C384.319 328.788 383.299 328.363 382.546 327.607C381.793 326.852 381.369 325.827 381.368 324.759V248.482C381.369 247.414 381.793 246.389 382.546 245.634C383.299 244.878 384.319 244.453 385.384 244.452H394.502C395.567 244.453 396.588 244.878 397.341 245.634C398.093 246.389 398.517 247.414 398.518 248.482V324.759C398.517 325.827 398.093 326.852 397.341 327.607C396.588 328.363 395.567 328.788 394.502 328.789Z" fill="#16B198"/>
<path d="M479.999 327.611H279.813V329H479.999V327.611Z" fill="#3F3D56"/>
<path d="M376.988 154.558C395.249 154.558 410.052 139.7 410.052 121.373C410.052 103.045 395.249 88.1874 376.988 88.1874C358.728 88.1874 343.924 103.045 343.924 121.373C343.924 139.7 358.728 154.558 376.988 154.558Z" fill="#16B198"/>
<path d="M428.176 289.678L409.028 204.329V184.164C409.028 182.848 408.508 181.586 407.581 180.656C406.654 179.726 405.397 179.203 404.086 179.203H385.743V166.236C385.743 165.584 385.616 164.939 385.367 164.337C385.119 163.735 384.755 163.189 384.296 162.728C383.837 162.267 383.292 161.902 382.692 161.653C382.093 161.403 381.45 161.275 380.801 161.275H370.916C370.267 161.275 369.625 161.403 369.025 161.653C368.425 161.902 367.88 162.267 367.421 162.728C366.963 163.189 366.598 163.735 366.35 164.337C366.102 164.939 365.974 165.584 365.974 166.236V179.203H347.631C346.321 179.203 345.063 179.726 344.137 180.656C343.21 181.586 342.689 182.848 342.689 184.164V290.248C342.689 290.884 342.812 291.514 343.05 292.104C343.273 293.163 343.843 294.118 344.669 294.815C345.495 295.512 346.529 295.913 347.607 295.952L425.094 298.545C429.725 298.667 431.826 292.622 428.176 289.678Z" fill="#2F2E41"/>
<path d="M377.306 133.163C375.264 133.105 372.722 133.034 370.764 131.598C370.181 131.153 369.702 130.586 369.361 129.935C369.019 129.285 368.823 128.568 368.787 127.834C368.752 127.312 368.837 126.789 369.036 126.305C369.236 125.821 369.544 125.391 369.936 125.047C370.96 124.18 372.455 123.977 374.062 124.451L372.394 112.219L373.619 112.051L375.579 126.43L374.557 125.96C373.371 125.414 371.745 125.136 370.734 125.994C370.486 126.218 370.292 126.497 370.169 126.808C370.045 127.12 369.995 127.456 370.022 127.79C370.052 128.336 370.199 128.87 370.453 129.354C370.707 129.838 371.061 130.262 371.493 130.596C373.017 131.714 375.043 131.858 377.341 131.922L377.306 133.163Z" fill="#2F2E41"/>
<path d="M366.341 113.275H359.686V114.515H366.341V113.275Z" fill="#2F2E41"/>
<path d="M387.346 113.275H380.691V114.515H387.346V113.275Z" fill="#2F2E41"/>
<path d="M348.034 99.9228C342.161 96.3503 339.395 89.5735 339.39 82.871C339.387 79.2985 340.159 75.7682 341.654 72.5261C343.15 69.284 345.331 66.408 348.046 64.0984C354.096 58.8474 362.152 56.2777 370.022 55.6247C379.544 54.8347 389.004 56.912 398.098 59.5634C407.835 62.4024 417.376 65.9745 427.343 67.962C437.016 69.8907 446.714 70.0809 456.237 67.2918C465.026 64.7176 473.947 60.1688 483.335 60.9571C491.444 61.6379 497.602 67.0537 501.744 73.7446C509.968 87.0286 510.617 104.858 522.444 115.92C527.557 120.703 534.219 122.87 540.877 124.489C547.261 126.042 554.071 127.037 559.93 130.18C566.212 133.549 570.015 139.883 569.032 147.141C567.916 155.384 562.072 162.478 555.638 167.321C548.864 172.354 541.058 175.808 532.786 177.43C524.515 179.053 515.987 178.803 507.824 176.7C490.753 172.154 476.88 158.875 458.692 158.043C448.546 157.579 438.556 160.353 428.411 159.893C421.38 159.574 413.813 156.966 408.916 151.718C406.565 149.262 405.096 146.09 404.741 142.704C404.63 141.522 402.776 141.51 402.888 142.704C403.583 150.118 409.02 155.594 415.509 158.605C418.925 160.178 422.572 161.185 426.308 161.589C431.273 162.139 436.334 161.618 441.276 161.075C446.5 160.5 451.732 159.792 456.998 159.855C461.805 159.932 466.568 160.782 471.107 162.373C479.821 165.373 487.671 170.35 495.996 174.227C504.054 177.978 512.491 180.304 521.416 180.362C530.018 180.405 538.527 178.574 546.355 174.994C554.064 171.47 561.307 166.208 566.107 159.116C570.607 152.466 572.97 143.742 568.92 136.298C565.746 130.463 559.692 127.511 553.589 125.693C546.822 123.678 539.751 122.757 533.128 120.248C529.666 118.999 526.482 117.082 523.754 114.605C520.829 111.755 518.418 108.417 516.631 104.739C512.839 97.3152 510.901 89.1613 507.708 81.4928C504.75 74.3895 500.702 67.23 494.182 62.8524C490.678 60.5259 486.607 59.2068 482.409 59.0379C477.764 58.8271 473.149 59.8972 468.735 61.2457C464.064 62.6727 459.505 64.455 454.799 65.7684C449.841 67.1538 444.702 67.7699 439.559 67.5952C428.981 67.2493 418.762 64.0955 408.748 60.9157C391.206 55.3454 371.696 49.3821 354.058 57.9685C347.186 61.3141 341.365 66.9273 338.911 74.2981C336.739 80.82 337.04 88.4275 340.387 94.5036C341.974 97.3937 344.288 99.816 347.098 101.529C348.121 102.151 349.054 100.543 348.034 99.9228Z" fill="#2F2E41"/>
<path d="M399.15 265.756H390.031C388.967 265.754 387.946 265.329 387.193 264.574C386.44 263.818 386.017 262.794 386.016 261.725V208.862C386.017 207.793 386.44 206.769 387.193 206.013C387.946 205.258 388.967 204.833 390.031 204.831H399.15C400.214 204.833 401.235 205.258 401.988 206.013C402.741 206.769 403.164 207.793 403.165 208.862V261.725C403.164 262.794 402.741 263.818 401.988 264.574C401.235 265.329 400.214 265.754 399.15 265.756Z" fill="#16B198"/>
<path d="M363.953 91.7118C364.156 93.1691 364.761 94.5405 365.699 95.6712C366.637 96.802 367.871 97.6471 369.263 98.1113C370.654 98.5756 372.147 98.6404 373.573 98.2986C374.999 97.9568 376.301 97.2219 377.333 96.1767L375.784 95.7663C376.648 97.9848 378.097 99.9261 379.975 101.383C381.852 102.839 384.089 103.757 386.446 104.037C388.803 104.317 391.191 103.949 393.356 102.972C395.521 101.996 397.38 100.447 398.736 98.4925C399.434 97.5194 397.827 96.5898 397.136 97.5537C395.967 99.1962 394.381 100.494 392.543 101.313C390.704 102.131 388.681 102.44 386.683 102.207C384.685 101.974 382.786 101.207 381.184 99.9878C379.581 98.7681 378.334 97.1396 377.572 95.2718C377.525 95.1175 377.44 94.9777 377.324 94.8657C377.209 94.7537 377.067 94.6733 376.911 94.6322C376.756 94.591 376.593 94.5905 376.437 94.6306C376.282 94.6708 376.139 94.7502 376.023 94.8614C375.219 95.6769 374.2 96.2462 373.086 96.5029C371.972 96.7595 370.808 96.693 369.73 96.311C368.652 95.929 367.705 95.2474 366.999 94.3455C366.292 93.4436 365.855 92.3588 365.74 91.2174C365.574 90.0369 363.788 90.5391 363.953 91.7118Z" fill="#2F2E41"/>
<path d="M305.532 223.776L305.338 223.908L301.75 218.596C301.478 218.192 301.128 217.846 300.723 217.578C300.317 217.31 299.862 217.124 299.385 217.032C298.908 216.94 298.417 216.944 297.941 217.042C297.465 217.14 297.013 217.332 296.611 217.606L285.398 225.235C284.996 225.509 284.651 225.859 284.384 226.267C284.116 226.674 283.932 227.13 283.84 227.609C283.749 228.088 283.752 228.581 283.85 229.058C283.948 229.536 284.139 229.99 284.411 230.394L304.095 259.535C304.368 259.939 304.717 260.285 305.123 260.553C305.529 260.821 305.983 261.007 306.461 261.099C306.938 261.191 307.428 261.187 307.904 261.089C308.38 260.991 308.832 260.799 309.235 260.525L320.448 252.896C320.85 252.622 321.194 252.272 321.462 251.864C321.729 251.457 321.914 251.001 322.005 250.522C322.097 250.043 322.094 249.55 321.996 249.073C321.898 248.595 321.707 248.141 321.434 247.737L307.892 227.689L308.086 227.557L305.532 223.776Z" fill="#3F3D56"/>
<path d="M297.459 218.985L296.042 219.949C296.216 220.065 296.358 220.222 296.457 220.406C296.556 220.59 296.608 220.796 296.609 221.005C296.609 221.214 296.559 221.421 296.462 221.606C296.365 221.791 296.223 221.949 296.051 222.066L289.833 226.297C289.661 226.414 289.462 226.487 289.255 226.509C289.048 226.531 288.838 226.502 288.645 226.424C288.452 226.346 288.281 226.221 288.147 226.061C288.013 225.9 287.92 225.71 287.877 225.505L286.554 226.405C286.263 226.603 286.014 226.857 285.821 227.151C285.627 227.446 285.494 227.775 285.428 228.122C285.361 228.468 285.364 228.824 285.435 229.169C285.505 229.514 285.643 229.842 285.84 230.134L304.864 258.299C305.062 258.591 305.314 258.841 305.607 259.035C305.901 259.229 306.229 259.363 306.574 259.429C306.919 259.496 307.274 259.493 307.618 259.422C307.962 259.351 308.289 259.213 308.58 259.015L319.485 251.595C320.072 251.195 320.477 250.578 320.611 249.879C320.744 249.179 320.596 248.455 320.198 247.866L301.174 219.701C300.977 219.409 300.724 219.159 300.431 218.965C300.137 218.771 299.809 218.637 299.464 218.571C299.119 218.504 298.764 218.507 298.42 218.578C298.076 218.649 297.75 218.787 297.459 218.985Z" fill="white"/>
</g>
<defs>
<clipPath id="clip0_31_63">
<rect width="571" height="329" fill="white"/>
</clipPath>
</defs>
</svg>
