<svg width="357" height="311" viewBox="0 0 357 311" fill="none" xmlns="http://www.w3.org/2000/svg">
<g clip-path="url(#clip0_93_108)" filter="url(#filter0_d_93_108)">
<path d="M327.131 280.819L336.532 277.836C337.704 272.789 337.626 267.532 336.306 262.522C332.529 270.922 321.448 272.98 315.135 279.685C313.182 281.791 311.727 284.31 310.88 287.055C310.032 289.8 309.813 292.7 310.238 295.542L308.26 302.253C312.88 301.858 317.359 300.466 321.389 298.173C325.419 295.88 328.904 292.741 331.604 288.971C333.098 286.841 334.317 284.531 335.234 282.096C331.225 281.695 327.131 280.819 327.131 280.819Z" fill="#F2F2F2"/>
<path d="M317.086 268.408L324.17 261.544C322.968 256.504 320.555 251.834 317.14 247.939C317.504 257.142 308.504 263.928 305.843 272.745C305.034 275.502 304.855 278.405 305.32 281.24C305.785 284.075 306.882 286.769 308.53 289.122L309.752 296.011C313.71 293.597 317.099 290.353 319.683 286.503C322.268 282.653 323.987 278.288 324.723 273.709C325.11 271.136 325.172 268.525 324.907 265.937C321.14 267.366 317.086 268.408 317.086 268.408Z" fill="#F2F2F2"/>
<path d="M269.992 20.1182H5.03062C4.75503 20.1124 4.4927 19.9988 4.29986 19.8017C4.10702 19.6047 3.99902 19.34 3.99902 19.0642C3.99902 18.7885 4.10702 18.5237 4.29986 18.3267C4.4927 18.1297 4.75503 18.0161 5.03062 18.0103H269.992C270.268 18.0161 270.53 18.1297 270.723 18.3267C270.916 18.5237 271.024 18.7885 271.024 19.0642C271.024 19.34 270.916 19.6047 270.723 19.8017C270.53 19.9988 270.268 20.1124 269.992 20.1182Z" fill="#3F3D56"/>
<path d="M23.0671 12.6289C26.4775 12.6289 29.2422 9.80181 29.2422 6.31444C29.2422 2.82707 26.4775 0 23.0671 0C19.6568 0 16.8921 2.82707 16.8921 6.31444C16.8921 9.80181 19.6568 12.6289 23.0671 12.6289Z" fill="#3F3D56"/>
<path d="M44.3992 12.6289C47.8096 12.6289 50.5742 9.80181 50.5742 6.31444C50.5742 2.82707 47.8096 0 44.3992 0C40.9888 0 38.2241 2.82707 38.2241 6.31444C38.2241 9.80181 40.9888 12.6289 44.3992 12.6289Z" fill="#3F3D56"/>
<path d="M65.7307 12.6289C69.1411 12.6289 71.9058 9.80181 71.9058 6.31444C71.9058 2.82707 69.1411 0 65.7307 0C62.3203 0 59.5557 2.82707 59.5557 6.31444C59.5557 9.80181 62.3203 12.6289 65.7307 12.6289Z" fill="#3F3D56"/>
<path d="M257.148 1.56506H241.995C241.695 1.57105 241.409 1.69459 241.199 1.90917C240.988 2.12375 240.871 2.41226 240.871 2.71275C240.871 3.01324 240.988 3.30175 241.199 3.51633C241.409 3.73091 241.695 3.85445 241.995 3.86044H257.148C257.449 3.85445 257.735 3.73091 257.945 3.51633C258.155 3.30175 258.273 3.01324 258.273 2.71275C258.273 2.41226 258.155 2.12375 257.945 1.90917C257.735 1.69459 257.449 1.57105 257.148 1.56506Z" fill="#3F3D56"/>
<path d="M257.149 5.87317H241.995C241.695 5.87911 241.409 6.00265 241.199 6.21723C240.988 6.43182 240.871 6.72034 240.871 7.02086C240.871 7.32137 240.988 7.6099 241.199 7.82449C241.409 8.03907 241.695 8.1626 241.995 8.16854H257.149C257.449 8.1626 257.735 8.03907 257.945 7.82449C258.156 7.6099 258.274 7.32137 258.274 7.02086C258.274 6.72034 258.156 6.43182 257.945 6.21723C257.735 6.00265 257.449 5.87911 257.149 5.87317Z" fill="#3F3D56"/>
<path d="M257.149 10.1755H241.995C241.695 10.1815 241.409 10.305 241.199 10.5196C240.988 10.7342 240.871 11.0227 240.871 11.3232C240.871 11.6237 240.988 11.9123 241.199 12.1268C241.409 12.3414 241.695 12.465 241.995 12.4709H257.149C257.449 12.465 257.735 12.3414 257.945 12.1268C258.156 11.9123 258.274 11.6237 258.274 11.3232C258.274 11.0227 258.156 10.7342 257.945 10.5196C257.735 10.305 257.449 10.1815 257.149 10.1755Z" fill="#3F3D56"/>
<path d="M24.5263 62.9403C28.7426 62.9403 32.1606 59.5213 32.1606 55.3039C32.1606 51.0864 28.7426 47.6675 24.5263 47.6675C20.3101 47.6675 16.8921 51.0864 16.8921 55.3039C16.8921 59.5213 20.3101 62.9403 24.5263 62.9403Z" fill="#E6E7E8"/>
<path d="M218.933 72.2135H19.1654C18.5625 72.2135 17.9842 71.9739 17.5579 71.5474C17.1316 71.121 16.8921 70.5426 16.8921 69.9395C16.8921 69.3364 17.1316 68.758 17.5579 68.3316C17.9842 67.9051 18.5625 67.6655 19.1654 67.6655H218.933C219.536 67.6655 220.114 67.9051 220.54 68.3316C220.967 68.758 221.206 69.3364 221.206 69.9395C221.206 70.5426 220.967 71.121 220.54 71.5474C220.114 71.9739 219.536 72.2135 218.933 72.2135Z" fill="#E6E7E8"/>
<path d="M166.54 81.1991H19.1655C18.5626 81.1991 17.9843 80.9596 17.558 80.5331C17.1316 80.1066 16.8921 79.5282 16.8921 78.9251C16.8921 78.3219 17.1316 77.7435 17.558 77.3171C17.9843 76.8906 18.5626 76.651 19.1655 76.651H166.54C167.143 76.651 167.722 76.8906 168.148 77.3171C168.574 77.7435 168.814 78.3219 168.814 78.9251C168.814 79.5282 168.574 80.1066 168.148 80.5331C167.722 80.9596 167.143 81.1991 166.54 81.1991Z" fill="#E6E7E8"/>
<path d="M24.5263 182.132C28.7426 182.132 32.1606 178.713 32.1606 174.496C32.1606 170.279 28.7426 166.86 24.5263 166.86C20.3101 166.86 16.8921 170.279 16.8921 174.496C16.8921 178.713 20.3101 182.132 24.5263 182.132Z" fill="#E6E7E8"/>
<path d="M218.933 191.406H19.1651C18.8663 191.406 18.5703 191.348 18.2941 191.234C18.0178 191.119 17.7668 190.952 17.5553 190.741C17.3438 190.53 17.1761 190.279 17.0616 190.003C16.9471 189.727 16.8882 189.431 16.8882 189.132C16.8882 188.833 16.9471 188.537 17.0616 188.261C17.1761 187.984 17.3438 187.734 17.5553 187.522C17.7668 187.311 18.0178 187.144 18.2941 187.03C18.5703 186.916 18.8663 186.857 19.1651 186.858H218.933C219.566 186.893 220.163 187.164 220.607 187.617C221.051 188.07 221.31 188.673 221.332 189.307C221.314 189.603 221.237 189.892 221.106 190.158C220.975 190.424 220.792 190.661 220.569 190.856C220.346 191.051 220.087 191.2 219.806 191.295C219.525 191.389 219.228 191.427 218.933 191.406Z" fill="#E6E7E8"/>
<path d="M166.54 200.391H19.1655C18.5626 200.391 17.9843 200.152 17.558 199.725C17.1316 199.299 16.8921 198.72 16.8921 198.117C16.8921 197.514 17.1316 196.936 17.558 196.509C17.9843 196.083 18.5626 195.843 19.1655 195.843H166.54C167.143 195.843 167.722 196.083 168.148 196.509C168.574 196.936 168.814 197.514 168.814 198.117C168.814 198.72 168.574 199.299 168.148 199.725C167.722 200.152 167.143 200.391 166.54 200.391Z" fill="#E6E7E8"/>
<path d="M24.5263 118.044C28.7426 118.044 32.1606 114.625 32.1606 110.407C32.1606 106.19 28.7426 102.771 24.5263 102.771C20.3101 102.771 16.8921 106.19 16.8921 110.407C16.8921 114.625 20.3101 118.044 24.5263 118.044Z" fill="#E6E7E8"/>
<path d="M218.933 127.317H19.1654C18.5625 127.317 17.9842 127.077 17.5579 126.651C17.1316 126.224 16.8921 125.646 16.8921 125.043C16.8921 124.44 17.1316 123.861 17.5579 123.435C17.9842 123.009 18.5625 122.769 19.1654 122.769H218.933C219.536 122.769 220.114 123.009 220.54 123.435C220.967 123.861 221.206 124.44 221.206 125.043C221.206 125.646 220.967 126.224 220.54 126.651C220.114 127.077 219.536 127.317 218.933 127.317Z" fill="#E6E7E8"/>
<path d="M191.114 136.302H19.1655C18.5626 136.302 17.9843 136.063 17.558 135.636C17.1316 135.21 16.8921 134.631 16.8921 134.028C16.8921 133.425 17.1316 132.847 17.558 132.42C17.9843 131.994 18.5626 131.754 19.1655 131.754H191.114C191.717 131.754 192.295 131.994 192.722 132.42C193.148 132.847 193.387 133.425 193.387 134.028C193.387 134.631 193.148 135.21 192.722 135.636C192.295 136.063 191.717 136.302 191.114 136.302Z" fill="#E6E7E8"/>
<path d="M179.443 145.288H19.1655C18.5626 145.288 17.9843 145.048 17.558 144.622C17.1316 144.195 16.8921 143.617 16.8921 143.014C16.8921 142.411 17.1316 141.832 17.558 141.406C17.9843 140.979 18.5626 140.74 19.1655 140.74H179.443C180.046 140.74 180.625 140.979 181.051 141.406C181.477 141.832 181.717 142.411 181.717 143.014C181.717 143.617 181.477 144.195 181.051 144.622C180.625 145.048 180.046 145.288 179.443 145.288Z" fill="#E6E7E8"/>
<path d="M182.76 245.82C213.983 245.82 239.295 220.501 239.295 189.268C239.295 158.036 213.983 132.717 182.76 132.717C151.536 132.717 126.224 158.036 126.224 189.268C126.224 220.501 151.536 245.82 182.76 245.82Z" fill="#16B198"/>
<path d="M182.682 208.999C187.142 208.999 190.758 205.382 190.758 200.92C190.758 196.459 187.142 192.842 182.682 192.842C178.221 192.842 174.605 196.459 174.605 200.92C174.605 205.382 178.221 208.999 182.682 208.999Z" fill="#3F3D56"/>
<path d="M182.682 204.649C184.74 204.649 186.409 202.98 186.409 200.92C186.409 198.861 184.74 197.192 182.682 197.192C180.623 197.192 178.954 198.861 178.954 200.92C178.954 202.98 180.623 204.649 182.682 204.649Z" fill="#16B198"/>
<path d="M197.674 218.904H167.845C164.891 218.901 162.06 217.726 159.971 215.637C157.882 213.548 156.707 210.715 156.704 207.761V194.08C156.707 191.126 157.882 188.293 159.971 186.204C162.059 184.115 164.891 182.94 167.845 182.936H197.674C200.628 182.94 203.459 184.115 205.548 186.204C207.636 188.293 208.811 191.126 208.815 194.08V207.761C208.811 210.715 207.636 213.548 205.548 215.637C203.459 217.726 200.628 218.901 197.674 218.904ZM167.845 184.103C165.2 184.106 162.665 185.158 160.795 187.029C158.925 188.899 157.874 191.435 157.871 194.08V207.761C157.874 210.406 158.925 212.942 160.795 214.812C162.665 216.682 165.2 217.734 167.845 217.737H197.674C200.318 217.734 202.854 216.682 204.723 214.812C206.593 212.942 207.645 210.406 207.648 207.761V194.08C207.645 191.435 206.593 188.899 204.723 187.029C202.854 185.158 200.318 184.106 197.674 184.103L167.845 184.103Z" fill="white"/>
<path d="M166.078 211.478H192.555C193.929 211.478 195.29 211.207 196.559 210.681C197.829 210.155 198.983 209.384 199.954 208.412C200.926 207.44 201.697 206.286 202.223 205.016C202.749 203.746 203.019 202.385 203.019 201.01V189.562C203.017 188.292 202.783 187.034 202.329 185.848C203.621 186.821 204.669 188.081 205.391 189.528C206.112 190.975 206.488 192.571 206.488 194.188V205.637C206.488 207.011 206.217 208.372 205.692 209.642C205.166 210.912 204.395 212.066 203.423 213.038C202.451 214.01 201.298 214.781 200.028 215.308C198.758 215.834 197.398 216.104 196.023 216.104H169.547C167.425 216.103 165.354 215.456 163.608 214.25C161.862 213.044 160.524 211.335 159.772 209.35C161.585 210.731 163.8 211.478 166.078 211.478Z" fill="#3F3D56"/>
<path d="M247.157 295.519L240.652 295.518L237.557 270.416L247.159 270.416L247.157 295.519Z" fill="#A0616A"/>
<path d="M247.387 302.307L227.38 302.307V302.054C227.381 299.988 228.201 298.007 229.661 296.546C231.122 295.085 233.102 294.264 235.168 294.264L238.823 291.491L245.641 294.265L247.388 294.265L247.387 302.307Z" fill="#2F2E41"/>
<path d="M293.192 295.519L299.698 295.518L302.793 270.416L293.191 270.416L293.192 295.519Z" fill="#A0616A"/>
<path d="M292.963 302.307L312.97 302.307V302.054C312.969 299.988 312.149 298.007 310.689 296.546C309.228 295.085 307.248 294.264 305.182 294.264L301.527 291.491L294.709 294.265L292.962 294.265L292.963 302.307Z" fill="#2F2E41"/>
<path d="M237.271 251.97C237.367 250.538 238.131 242.616 238.131 242.616L239.961 225.817L243.186 181.287L243.396 178.372L260.291 175.128L271.838 169.591L285.563 173.979L296.249 177.988C296.249 177.988 296.268 179.704 296.35 181.777C296.46 184.491 296.652 187.817 297.109 188.682C297.873 190.211 297.681 198.416 297.681 198.416C297.681 198.416 298.441 215.109 299.397 216.94C300.353 218.77 300.545 222.582 300.257 223.346C299.969 224.111 301.213 244.159 301.213 244.159C301.213 244.159 304.407 279.636 302.403 284.985C300.399 290.335 292.827 286.831 292.827 286.831C292.827 286.831 293.193 285.403 290.997 284.73C288.801 284.058 282.113 233.752 282.113 233.752C282.113 233.752 280.869 223.438 279.725 220.482C278.581 217.526 277.529 209.22 277.529 209.22C277.529 209.22 270.466 195.473 270.374 192.416C270.374 192.416 269.45 189.556 268.576 192.705C267.702 195.853 265.127 203.394 265.127 203.394L262.615 212.657L259.66 226.495L257.748 238.145C257.748 238.145 254.884 253.608 254.426 254.276C253.969 254.944 254.426 269.071 254.426 269.071C254.426 269.071 252.212 281.101 249.083 283.202C245.954 285.302 237.663 283.235 237.663 283.235C237.663 283.235 237.175 253.402 237.271 251.97Z" fill="#2F2E41"/>
<path d="M244.478 137.759L248.234 149.076L243.6 154.595L245.641 156.695L244.135 159.665L240.21 190.792L261.73 198.955L268.976 189.867L274.69 198.955L299.591 192.869L293.241 153.176V150.581L291.448 145.57V134.963L296.183 103.388L282.051 98.4366L275.294 93.0874L273.108 100.61L263.798 98.9541L263.555 93.3021L256.432 100.034L250.434 101.745L243.252 103.388L242.337 105.676L244.167 105.219L243.87 134.986L244.478 137.759Z" fill="#2F2E41"/>
<path d="M238.046 179.166L241.66 144.172L242.614 129.77L232.498 127.94C232.498 127.94 232.899 138.238 231.574 144.049C230.266 149.782 231.4 178.398 231.481 179.163C230.738 179.827 230.214 180.702 229.979 181.67C229.744 182.639 229.808 183.657 230.163 184.588C230.519 185.519 231.148 186.321 231.969 186.887C232.79 187.452 233.763 187.755 234.759 187.756C235.756 187.756 236.729 187.454 237.55 186.889C238.372 186.324 239.002 185.523 239.358 184.592C239.714 183.661 239.78 182.644 239.545 181.675C239.311 180.706 238.788 179.831 238.046 179.166Z" fill="#A0616A"/>
<path d="M228.178 151.423L230.992 152.005L240.645 154.004L241.18 154.114L242.319 149.584L243.641 148.174L246.157 134.986L246.29 134.3L250.092 126.172L252.722 101.745L242.941 103.502C242.891 103.553 242.845 103.608 242.799 103.663C241.395 105.255 240.393 107.47 238.755 109.698C233.425 116.952 229.336 134.574 229.496 144.23C229.5 144.385 229.34 144.555 229.148 144.729C228.241 145.563 227.65 146.684 227.473 147.903C227.296 149.123 227.545 150.366 228.178 151.423Z" fill="#2F2E41"/>
<path d="M300.932 179.166L297.318 144.172L296.364 129.77L306.48 127.94C306.48 127.94 306.079 138.238 307.404 144.049C308.712 149.782 307.578 178.398 307.497 179.163C308.24 179.827 308.764 180.702 308.999 181.67C309.234 182.639 309.17 183.657 308.814 184.588C308.459 185.519 307.83 186.321 307.009 186.887C306.188 187.452 305.215 187.755 304.219 187.756C303.222 187.756 302.249 187.454 301.427 186.889C300.606 186.324 299.976 185.523 299.62 184.592C299.263 183.661 299.198 182.644 299.432 181.675C299.667 180.706 300.19 179.831 300.932 179.166Z" fill="#A0616A"/>
<path d="M310.799 151.423L307.986 152.005L298.333 154.004L297.797 154.114L296.658 149.584L295.336 148.174L292.82 134.986L292.687 134.3L288.886 126.172L289.755 101.745L296.036 103.502C296.087 103.553 296.132 103.608 296.178 103.662C297.583 105.255 298.585 107.47 300.222 109.698C305.552 116.952 309.642 134.574 309.481 144.23C309.477 144.385 309.637 144.555 309.829 144.729C310.736 145.562 311.328 146.684 311.505 147.903C311.681 149.123 311.432 150.366 310.799 151.423Z" fill="#2F2E41"/>
<path d="M258.96 105.359L263.556 93.3022L275.294 93.0872L279.19 105.359L293.191 183.596C293.191 183.596 250.297 195.544 250.732 181.182C251.19 166.081 253.254 146.021 253.254 146.021L258.96 105.359Z" fill="#16B198"/>
<path d="M269.162 89.9298C276.799 89.9298 282.991 83.7367 282.991 76.0973C282.991 68.4578 276.799 62.2648 269.162 62.2648C261.525 62.2648 255.333 68.4578 255.333 76.0973C255.333 83.7367 261.525 89.9298 269.162 89.9298Z" fill="#A0616A"/>
<path d="M254.518 66.0626C256.769 63.6115 259.585 59.1248 268.115 57.2407C278.654 54.9126 283.634 64.4362 280.976 64.5923C288.748 66.9464 283.756 83.0341 281.528 81.6848C281.509 81.6715 281.49 81.6572 281.473 81.6419C280.274 80.7592 279.269 79.6414 278.517 78.3568C277.765 77.0722 277.283 75.6477 277.1 74.1704L276.677 70.3635C276.617 73.4609 273.451 73.8707 270.218 72.7299C270.409 72.0508 270.774 71.4333 271.277 70.9383C271.779 70.4433 272.402 70.0879 273.084 69.9073C270.83 71.9513 267.967 73.1974 264.935 73.4539C265.094 72.6783 265.417 71.9457 265.882 71.3053C266.348 70.6649 266.945 70.1315 267.633 69.741L267.505 69.6155C266.243 70.6807 264.793 71.5018 263.23 72.0369C261.448 72.5479 259.312 72.2715 258.091 70.8758C257.762 70.4907 257.514 70.0435 257.36 69.5608C257.624 72.0138 255.98 74.814 254.702 74.3332C253.639 74.1266 253.019 67.6944 254.518 66.0626Z" fill="#2F2E41"/>
<path d="M353 302.306C353 302.397 352.982 302.487 352.948 302.572C352.913 302.656 352.862 302.733 352.797 302.797C352.733 302.862 352.656 302.913 352.572 302.948C352.487 302.983 352.397 303 352.306 303H188.83C188.646 303 188.469 302.927 188.339 302.797C188.209 302.667 188.136 302.49 188.136 302.306C188.136 302.122 188.209 301.945 188.339 301.815C188.469 301.685 188.646 301.612 188.83 301.612H352.306C352.397 301.611 352.487 301.629 352.572 301.664C352.656 301.699 352.733 301.75 352.797 301.814C352.862 301.879 352.913 301.955 352.948 302.04C352.982 302.124 353 302.215 353 302.306Z" fill="#CCCCCC"/>
<path d="M183.219 158.606C177.689 158.606 172.829 161.11 170.077 164.868C173.019 162.727 176.571 161.587 180.209 161.616C188.772 161.616 195.738 167.616 195.738 174.991V181.121H198.748V171.981C198.748 164.606 191.782 158.606 183.219 158.606Z" fill="#3F3D56"/>
<path d="M200.816 184.259H164.703V173.63C164.703 165.055 172.803 158.079 182.76 158.079C192.716 158.079 200.816 165.055 200.816 173.63V184.259ZM165.87 183.092H199.65V173.63C199.65 165.699 192.073 159.246 182.76 159.246C173.446 159.246 165.87 165.699 165.87 173.63V183.092Z" fill="white"/>
<path d="M192.008 180.201H173.511C172.679 180.2 171.881 179.869 171.292 179.28C170.704 178.692 170.373 177.894 170.372 177.061V172.832C170.372 166.934 175.929 162.137 182.759 162.137C189.59 162.137 195.147 166.934 195.147 172.832V177.061C195.146 177.894 194.815 178.692 194.226 179.28C193.638 179.869 192.84 180.2 192.008 180.201ZM182.759 163.304C176.572 163.304 171.539 167.578 171.539 172.832V177.061C171.539 177.584 171.747 178.086 172.117 178.456C172.486 178.826 172.988 179.034 173.511 179.034H192.008C192.531 179.034 193.032 178.826 193.402 178.456C193.772 178.086 193.98 177.584 193.98 177.061V172.832C193.98 167.578 188.947 163.304 182.759 163.304Z" fill="white"/>
</g>
<defs>
<filter id="filter0_d_93_108" x="0" y="0" width="357" height="311" filterUnits="userSpaceOnUse" color-interpolation-filters="sRGB">
<feFlood flood-opacity="0" result="BackgroundImageFix"/>
<feColorMatrix in="SourceAlpha" type="matrix" values="0 0 0 0 0 0 0 0 0 0 0 0 0 0 0 0 0 0 127 0" result="hardAlpha"/>
<feOffset dy="4"/>
<feGaussianBlur stdDeviation="2"/>
<feComposite in2="hardAlpha" operator="out"/>
<feColorMatrix type="matrix" values="0 0 0 0 0 0 0 0 0 0 0 0 0 0 0 0 0 0 0.25 0"/>
<feBlend mode="normal" in2="BackgroundImageFix" result="effect1_dropShadow_93_108"/>
<feBlend mode="normal" in="SourceGraphic" in2="effect1_dropShadow_93_108" result="shape"/>
</filter>
<clipPath id="clip0_93_108">
<rect width="349" height="303" fill="white" transform="translate(4)"/>
</clipPath>
</defs>
</svg>
