<svg width="575" height="355" viewBox="0 0 575 355" fill="none" xmlns="http://www.w3.org/2000/svg">
<path d="M58.0381 325.612C60.4252 326.451 62.9882 326.661 65.4801 326.223C67.9721 325.784 70.309 324.71 72.2657 323.106C77.2489 318.923 78.8116 312.034 80.0825 305.654L83.8426 286.782L75.9705 292.202C70.3089 296.1 64.5202 300.123 60.6006 305.769C56.6809 311.416 54.9709 319.124 58.1193 325.233" fill="#E6E6E6"/>
<path d="M59.2539 349.775C58.263 342.556 57.2436 335.244 57.9403 327.948C58.5577 321.468 60.5346 315.14 64.5594 309.95C66.6957 307.201 69.2952 304.845 72.241 302.989C73.009 302.504 73.716 303.721 72.9513 304.204C67.8541 307.425 63.9115 312.182 61.692 317.788C59.2407 324.023 58.8471 330.819 59.2694 337.442C59.5246 341.447 60.0669 345.426 60.6116 349.4C60.6546 349.58 60.6277 349.769 60.5364 349.93C60.4452 350.09 60.2963 350.21 60.1199 350.265C59.94 350.314 59.7482 350.289 59.5861 350.197C59.4241 350.105 59.3049 349.953 59.2544 349.774L59.2539 349.775Z" fill="#F2F2F2"/>
<path d="M66.3857 338.192C67.4094 339.748 68.8166 341.014 70.4718 341.869C72.1271 342.724 73.9745 343.137 75.8361 343.071C80.6213 342.844 84.609 339.505 88.1984 336.335L98.8173 326.959L91.7896 326.623C86.7356 326.381 81.5511 326.154 76.7373 327.714C71.9235 329.274 67.484 333.024 66.6039 338.006" fill="#E6E6E6"/>
<path d="M56.4532 353.924C61.2234 345.484 66.7559 336.103 76.6425 333.105C79.3913 332.274 82.2735 331.977 85.1339 332.228C86.0356 332.306 85.8104 333.696 84.9106 333.618C80.1157 333.22 75.3299 334.486 71.3591 337.204C67.538 339.805 64.5627 343.421 62.0448 347.255C60.5023 349.604 59.1207 352.052 57.7391 354.497C57.2976 355.279 56.0065 354.715 56.4532 353.924Z" fill="#F2F2F2"/>
<path d="M444.885 216.062H284.053C282.769 216.06 281.537 215.549 280.629 214.641C279.721 213.733 279.21 212.502 279.209 211.217V156.961C279.21 155.676 279.721 154.445 280.629 153.537C281.537 152.629 282.769 152.118 284.053 152.116H444.885C446.17 152.118 447.401 152.629 448.309 153.537C449.217 154.445 449.728 155.676 449.73 156.961V211.217C449.728 212.502 449.217 213.733 448.309 214.641C447.401 215.549 446.17 216.06 444.885 216.062Z" fill="#F1F1F1"/>
<path d="M347.029 166.649H304.399V171.494H347.029V166.649Z" fill="#16B198"/>
<path d="M403.224 172.463C404.829 172.463 406.131 171.161 406.131 169.556C406.131 167.951 404.829 166.649 403.224 166.649C401.619 166.649 400.317 167.951 400.317 169.556C400.317 171.161 401.619 172.463 403.224 172.463Z" fill="#16B198"/>
<path d="M412.913 172.463C414.518 172.463 415.819 171.161 415.819 169.556C415.819 167.951 414.518 166.649 412.913 166.649C411.307 166.649 410.006 167.951 410.006 169.556C410.006 171.161 411.307 172.463 412.913 172.463Z" fill="#16B198"/>
<path d="M422.601 172.463C424.206 172.463 425.508 171.161 425.508 169.556C425.508 167.951 424.206 166.649 422.601 166.649C420.996 166.649 419.695 167.951 419.695 169.556C419.695 171.161 420.996 172.463 422.601 172.463Z" fill="#16B198"/>
<path d="M444.885 284.851H284.053C282.769 284.85 281.537 284.339 280.629 283.431C279.721 282.523 279.21 281.291 279.209 280.007V225.75C279.21 224.466 279.721 223.235 280.629 222.327C281.537 221.418 282.769 220.908 284.053 220.906H444.885C446.17 220.908 447.401 221.418 448.309 222.327C449.217 223.235 449.728 224.466 449.73 225.75V280.007C449.728 281.291 449.217 282.523 448.309 283.431C447.401 284.339 446.17 284.85 444.885 284.851Z" fill="#F1F1F1"/>
<path d="M347.029 235.439H304.399V240.283H347.029V235.439Z" fill="#16B198"/>
<path d="M403.224 241.252C404.829 241.252 406.131 239.951 406.131 238.346C406.131 236.74 404.829 235.439 403.224 235.439C401.619 235.439 400.317 236.74 400.317 238.346C400.317 239.951 401.619 241.252 403.224 241.252Z" fill="#16B198"/>
<path d="M412.913 241.252C414.518 241.252 415.819 239.951 415.819 238.346C415.819 236.74 414.518 235.439 412.913 235.439C411.307 235.439 410.006 236.74 410.006 238.346C410.006 239.951 411.307 241.252 412.913 241.252Z" fill="#16B198"/>
<path d="M422.601 241.252C424.206 241.252 425.508 239.951 425.508 238.346C425.508 236.74 424.206 235.439 422.601 235.439C420.996 235.439 419.695 236.74 419.695 238.346C419.695 239.951 420.996 241.252 422.601 241.252Z" fill="#16B198"/>
<path d="M444.885 353.641H284.053C282.769 353.64 281.537 353.129 280.629 352.22C279.721 351.312 279.21 350.081 279.209 348.797V294.54C279.21 293.256 279.721 292.024 280.629 291.116C281.537 290.208 282.769 289.697 284.053 289.696H444.885C446.17 289.697 447.401 290.208 448.309 291.116C449.217 292.024 449.728 293.256 449.73 294.54V348.797C449.728 350.081 449.217 351.312 448.309 352.22C447.401 353.129 446.17 353.64 444.885 353.641Z" fill="#F1F1F1"/>
<path d="M347.029 304.229H304.399V309.073H347.029V304.229Z" fill="#16B198"/>
<path d="M403.224 310.042C404.829 310.042 406.131 308.741 406.131 307.135C406.131 305.53 404.829 304.229 403.224 304.229C401.619 304.229 400.317 305.53 400.317 307.135C400.317 308.741 401.619 310.042 403.224 310.042Z" fill="#16B198"/>
<path d="M412.913 310.042C414.518 310.042 415.819 308.741 415.819 307.135C415.819 305.53 414.518 304.229 412.913 304.229C411.307 304.229 410.006 305.53 410.006 307.135C410.006 308.741 411.307 310.042 412.913 310.042Z" fill="#16B198"/>
<path d="M422.601 310.042C424.206 310.042 425.508 308.741 425.508 307.135C425.508 305.53 424.206 304.229 422.601 304.229C420.996 304.229 419.695 305.53 419.695 307.135C419.695 308.741 420.996 310.042 422.601 310.042Z" fill="#16B198"/>
<path d="M384.253 99.1353L384.075 99.0039L384.071 99.0007C383.842 98.8303 383.581 98.7068 383.304 98.6371C383.027 98.5675 382.738 98.5532 382.456 98.5949C382.173 98.6367 381.901 98.7337 381.656 98.8805C381.411 99.0272 381.197 99.2208 381.027 99.4502L344.825 148.192H340.843V147.256C340.843 147.025 340.751 146.804 340.588 146.641C340.425 146.477 340.203 146.386 339.972 146.386H337.596C337.365 146.386 337.144 146.477 336.981 146.641C336.817 146.804 336.726 147.025 336.726 147.256V148.192H335.35V147.256C335.35 147.025 335.259 146.804 335.095 146.641C334.932 146.477 334.711 146.386 334.48 146.386H332.104C331.873 146.386 331.651 146.477 331.488 146.641C331.325 146.804 331.233 147.025 331.233 147.256V148.192H329.862V147.256C329.862 147.025 329.771 146.804 329.607 146.641C329.444 146.477 329.223 146.386 328.992 146.386H326.616C326.385 146.386 326.163 146.477 326 146.641C325.837 146.804 325.745 147.025 325.745 147.256V148.192H324.37V147.256C324.37 147.025 324.278 146.804 324.115 146.641C323.952 146.477 323.73 146.386 323.499 146.386H321.123C320.892 146.386 320.671 146.477 320.508 146.641C320.344 146.804 320.253 147.025 320.253 147.256V148.192H318.882V147.256C318.882 147.025 318.79 146.804 318.627 146.641C318.464 146.477 318.242 146.386 318.011 146.386H315.635C315.521 146.386 315.408 146.408 315.302 146.452C315.196 146.496 315.101 146.56 315.02 146.641C314.939 146.721 314.875 146.817 314.831 146.923C314.787 147.029 314.765 147.142 314.765 147.256V148.192H313.389V147.256C313.389 147.025 313.298 146.804 313.135 146.641C312.971 146.477 312.75 146.386 312.519 146.386H310.143C309.912 146.386 309.691 146.477 309.527 146.641C309.364 146.804 309.272 147.025 309.272 147.256V148.192H307.897V147.256C307.897 147.025 307.805 146.804 307.642 146.641C307.479 146.477 307.257 146.386 307.027 146.386H304.65C304.42 146.386 304.198 146.477 304.035 146.641C303.872 146.804 303.78 147.025 303.78 147.256V148.192H302.409V147.256C302.409 147.025 302.317 146.804 302.154 146.641C301.991 146.477 301.77 146.386 301.539 146.386H299.162C298.932 146.386 298.71 146.477 298.547 146.641C298.384 146.804 298.292 147.025 298.292 147.256V148.192H296.917V147.256C296.917 147.025 296.825 146.804 296.662 146.641C296.498 146.477 296.277 146.386 296.046 146.386H293.67C293.439 146.386 293.218 146.477 293.054 146.641C292.891 146.804 292.8 147.025 292.8 147.256V148.192H291.429V147.256C291.429 147.025 291.337 146.804 291.174 146.641C291.01 146.477 290.789 146.386 290.558 146.386H288.182C287.951 146.386 287.73 146.477 287.567 146.641C287.403 146.804 287.312 147.025 287.312 147.256V148.192H285.588C285.302 148.192 285.019 148.248 284.755 148.357C284.491 148.467 284.251 148.627 284.049 148.829C283.847 149.031 283.687 149.271 283.578 149.535C283.468 149.799 283.412 150.082 283.412 150.368V152.444C283.412 152.73 283.468 153.013 283.578 153.277C283.687 153.541 283.847 153.781 284.049 153.983C284.251 154.185 284.491 154.345 284.755 154.454C285.019 154.564 285.302 154.62 285.588 154.62H344.464C345.21 154.62 345.933 154.363 346.511 153.892C347.089 153.421 347.488 152.766 347.639 152.036L347.662 152.052L384.699 102.184L384.703 102.18C385.047 101.716 385.193 101.135 385.108 100.564C385.024 99.9935 384.716 99.4794 384.253 99.1353Z" fill="#3F3D56"/>
<path d="M155.465 335.158L162.778 338.901L180.694 312.474L169.901 306.95L155.465 335.158Z" fill="#FFB7B7"/>
<path d="M154.822 331.816L169.224 339.186L169.225 339.187C171.659 340.433 173.498 342.594 174.338 345.196C175.179 347.798 174.951 350.628 173.705 353.062L173.553 353.36L149.972 341.293L154.822 331.816Z" fill="#2F2E41"/>
<path d="M239.928 345.397H248.144L252.052 313.71H239.927L239.928 345.397Z" fill="#FFB7B7"/>
<path d="M237.833 342.715L254.011 342.714H254.012C256.746 342.714 259.369 343.8 261.302 345.734C263.236 347.667 264.322 350.29 264.322 353.024V353.359L237.833 353.36L237.833 342.715Z" fill="#2F2E41"/>
<path d="M201.501 86.9332C201.501 86.9332 196 82.7184 196 93.0135L195.131 127.034L204.831 159.173L210.477 148.75L208.161 126.166L201.501 86.9332Z" fill="#2F2E41"/>
<path d="M260.349 179.986C260.349 179.986 266.728 211.053 258.647 236.549L254.182 334.577L237.808 333.301L232.067 260.578L226.538 224.429L215.056 257.388L177.205 327.135L159.769 313.526C159.769 313.526 179.091 260.803 193.366 249.733L200.526 168.192L260.349 179.986Z" fill="#2F2E41"/>
<path d="M257.322 35.6823C262.267 26.635 258.942 15.2916 249.895 10.3459C240.848 5.40028 229.505 8.72528 224.559 17.7725C219.613 26.8197 222.938 38.1632 231.985 43.1088C241.033 48.0544 252.376 44.7295 257.322 35.6823Z" fill="#FFB7B7"/>
<path d="M239.619 30.6872C241.857 30.9784 243.545 28.6886 244.328 26.5719C245.111 24.4553 245.708 21.991 247.654 20.8476C250.312 19.2856 253.713 21.1643 256.753 20.6489C260.186 20.0669 262.418 16.4286 262.593 12.951C262.768 9.47335 261.384 6.12861 260.026 2.92228L259.552 6.90703C259.616 5.5565 259.331 4.21229 258.727 3.00298C258.122 1.79367 257.217 0.75971 256.099 0L256.71 5.84699C256.58 5.04031 256.292 4.26726 255.862 3.57218C255.433 2.87711 254.87 2.2737 254.207 1.7966C253.544 1.31949 252.793 0.978078 251.997 0.791954C251.201 0.60583 250.377 0.578658 249.571 0.711997L249.667 4.19586C245.702 3.72436 241.702 3.2522 237.725 3.61141C233.748 3.97062 229.744 5.22888 226.729 7.84797C222.221 11.7657 220.574 18.2168 221.127 24.1642C221.68 30.1115 224.135 35.6987 226.693 41.0959C227.337 42.4539 228.228 43.9862 229.721 44.1592C231.062 44.3146 232.289 43.1934 232.706 41.9091C233.027 40.5914 233.015 39.2143 232.67 37.9025C232.293 35.8979 231.817 33.8489 232.172 31.8401C232.527 29.8313 233.972 27.8463 235.997 27.6001C238.022 27.3539 240.094 29.6685 239.12 31.4611L239.619 30.6872Z" fill="#2F2E41"/>
<path d="M261.504 188.295L199.185 184.274L203.876 164.841L260.833 177.573L261.504 188.295Z" fill="#CBCBCB"/>
<path d="M223.072 52.1883L226.981 46.7616C226.981 46.7616 231.35 48.2463 243.05 54.0704L243.877 59.1548L264.187 184.074L227.27 182.481L217.217 182.267L213.927 174.893L209.871 182.111L200.054 181.902L190.064 176.112L199.909 145.999L203.094 118.493L198.172 92.5792C198.172 92.5792 191.978 68.783 215.833 55.9524L223.072 52.1883Z" fill="#2F2E41"/>
<path d="M306.279 146.753C305.375 146.983 304.431 147.011 303.515 146.837C302.599 146.663 301.732 146.29 300.975 145.744C300.219 145.198 299.591 144.493 299.136 143.679C298.682 142.864 298.411 141.96 298.344 141.03L276.442 135.163L285.253 127.34L304.7 134.111C306.271 134.101 307.79 134.668 308.971 135.704C310.151 136.739 310.91 138.172 311.105 139.731C311.3 141.289 310.916 142.864 310.026 144.159C309.137 145.453 307.804 146.376 306.279 146.753Z" fill="#FFB7B7"/>
<path d="M296.469 143.441C296.009 143.692 295.501 143.843 294.978 143.884C294.455 143.926 293.929 143.857 293.435 143.682L257.406 130.007C248.616 126.891 241.257 120.689 236.698 112.554L221.674 85.7515C220.619 84.5737 219.806 83.1996 219.283 81.7075C218.76 80.2155 218.536 78.6349 218.624 77.0562C218.712 75.4775 219.11 73.9317 219.797 72.5072C220.483 71.0828 221.443 69.8076 222.623 68.7547C223.803 67.7018 225.178 66.8919 226.671 66.3712C228.164 65.8506 229.745 65.6294 231.324 65.7205C232.902 65.8115 234.447 66.2129 235.871 66.9018C237.294 67.5906 238.567 68.5533 239.618 69.7348L265.624 110.953L298.351 130.141C298.993 130.562 299.489 131.169 299.774 131.882C300.059 132.594 300.118 133.377 299.944 134.124L298.316 141.02C298.141 141.76 297.745 142.429 297.181 142.937C296.964 143.133 296.726 143.302 296.469 143.441Z" fill="#2F2E41"/>
<path d="M574.392 354.735H0.608466C0.447091 354.735 0.292324 354.671 0.178215 354.557C0.0641056 354.443 0 354.288 0 354.127C0 353.966 0.0641056 353.811 0.178215 353.697C0.292324 353.583 0.447091 353.518 0.608466 353.518H574.392C574.553 353.518 574.708 353.583 574.822 353.697C574.936 353.811 575 353.966 575 354.127C575 354.288 574.936 354.443 574.822 354.557C574.708 354.671 574.553 354.735 574.392 354.735Z" fill="#CBCBCB"/>
</svg>
