<svg width="28" height="28" viewBox="0 0 28 28" fill="none" xmlns="http://www.w3.org/2000/svg">
<path d="M14 0C6.26796 0 0 6.26796 0 14C0 21.732 6.26796 28 14 28C21.732 28 28 21.732 28 14C28 6.26796 21.732 0 14 0ZM20.1855 10.8279C20.1917 10.9648 20.1945 11.1023 20.1945 11.2404C20.1945 15.4576 16.9845 20.3208 11.1141 20.3208C9.31156 20.3208 7.63436 19.7926 6.22191 18.8872C6.47173 18.9168 6.7256 18.9314 6.9832 18.9314C8.4784 18.9314 9.85444 18.4212 10.9471 17.5653C9.55018 17.5392 8.372 16.6168 7.96569 15.3487C8.16013 15.386 8.36018 15.4062 8.56551 15.4062C8.85671 15.4062 9.13889 15.367 9.40676 15.2939C7.94671 15.0012 6.84631 13.711 6.84631 12.1651C6.84631 12.1511 6.84631 12.1377 6.84693 12.1243C7.2772 12.3636 7.76907 12.5073 8.29236 12.5235C7.43556 11.9516 6.87213 10.9741 6.87213 9.86689C6.87213 9.28231 7.02987 8.73444 7.30427 8.2628C8.87818 10.1939 11.2302 11.4638 13.8824 11.5973C13.8276 11.3636 13.7996 11.12 13.7996 10.8696C13.7996 9.10778 15.2289 7.67822 16.9916 7.67822C17.9094 7.67822 18.7388 8.06618 19.3212 8.68653C20.0483 8.54342 20.7309 8.27742 21.3478 7.91187C21.1092 8.65698 20.6033 9.28231 19.9444 9.67742C20.59 9.60027 21.2053 9.42916 21.7772 9.17498C21.3503 9.81556 20.8087 10.3777 20.1855 10.8279Z" fill="#16B198"/>
</svg>
