<?xml version="1.0" encoding="UTF-8" standalone="no"?><!DOCTYPE svg PUBLIC "-//W3C//DTD SVG 1.1//EN" "http://www.w3.org/Graphics/SVG/1.1/DTD/svg11.dtd"><svg width="100%" height="100%" viewBox="0 0 1116 199" version="1.1" xmlns="http://www.w3.org/2000/svg" xmlns:xlink="http://www.w3.org/1999/xlink" xml:space="preserve" xmlns:serif="http://www.serif.com/" style="fill-rule:evenodd;clip-rule:evenodd;stroke-linejoin:round;stroke-miterlimit:2;"><g><g><path d="M173.319,33.465c-13.21,0 -19.322,7.203 -19.322,17.795l0,7.981c0,12.014 6.549,18.78 19.104,18.78l40.975,-0c3.825,-0 5.682,2.077 5.682,6.122l0,4.482c0,3.827 -1.639,6.123 -5.791,6.123l-57.35,-0c-1.638,-0 -2.511,0.764 -2.511,2.401l0,10.368c0,1.637 0.873,2.401 2.511,2.401l60.519,0c13.21,0 19.322,-7.203 19.322,-17.794l0,-8.746c0,-12.014 -6.549,-18.78 -19.104,-18.78l-40.975,0c-3.825,0 -5.682,-2.077 -5.682,-6.123l-0,-3.717c-0,-3.826 1.639,-6.122 5.791,-6.122l54.731,-0c1.637,-0 2.401,-0.764 2.401,-2.401l0,-10.369c0,-1.637 -0.764,-2.401 -2.401,-2.401l-57.9,0Z" style="fill:#fff;fill-rule:nonzero;"/><path d="M278.624,33.465c-22.059,0 -30.573,7.858 -30.573,28.837l0,18.78c0,20.978 8.514,28.836 30.573,28.836l48.065,0c1.639,0 2.512,-0.764 2.512,-2.401l0,-10.368c0,-1.637 -0.873,-2.401 -2.512,-2.401l-47.737,-0c-11.361,-0 -14.529,-3.389 -14.529,-14.869l0,-1.858l61.72,-0c1.638,-0 2.403,-0.764 2.403,-2.401l-0,-8.621c-0,-1.637 -0.765,-2.401 -2.403,-2.401l-61.72,0l0,-1.093c0,-11.48 3.168,-14.869 14.529,-14.869l47.737,-0c1.639,-0 2.512,-0.764 2.512,-2.401l0,-10.369c0,-1.637 -0.873,-2.401 -2.512,-2.401l-48.065,0Z" style="fill:#fff;fill-rule:nonzero;"/><path d="M371.477,33.465c-22.06,0 -30.573,7.858 -30.573,28.829l-0,18.795c-0,20.971 8.513,28.829 30.573,28.829l49.266,0c1.639,0 2.403,-0.764 2.403,-2.401l0,-10.696c0,-1.637 -0.764,-2.401 -2.403,-2.401l-48.611,0c-11.251,0 -14.529,-3.387 -14.529,-14.97l0,-15.517c0,-11.582 3.278,-14.86 14.529,-14.86l48.611,-0c1.639,-0 2.403,-0.874 2.403,-2.511l0,-10.696c0,-1.637 -0.764,-2.401 -2.403,-2.401l-49.266,0Z" style="fill:#fff;fill-rule:nonzero;"/><path d="M437.14,33.465c-1.637,0 -2.51,0.765 -2.51,2.403l-0,45.225c-0,20.967 8.514,28.825 30.576,28.825l31.468,0c22.172,0 30.576,-7.858 30.576,-28.825l0,-45.225c0,-1.638 -0.764,-2.403 -2.401,-2.403l-11.897,0c-1.637,0 -2.402,0.765 -2.402,2.403l0,43.586c0,11.58 -3.168,14.966 -14.422,14.966l-30.266,0c-11.254,0 -14.532,-3.386 -14.532,-14.966l-0,-43.586c-0,-1.638 -0.764,-2.403 -2.402,-2.403l-11.788,0Z" style="fill:#fff;fill-rule:nonzero;"/><path d="M544.849,33.465c-2.183,0 -3.275,1.092 -3.275,3.274l0,70.776c0,1.639 0.873,2.403 2.511,2.403l11.788,0c1.637,0 2.401,-0.764 2.401,-2.403l-0,-21.738l35.293,-0l17.264,22.721c0.655,0.983 1.2,1.42 3.056,1.42l14.081,0c1.966,0 2.075,-1.966 1.42,-2.731l-18.666,-23.156c11.46,-2.074 16.263,-9.385 16.263,-21.842l-0,-6.23c-0,-14.745 -6.768,-22.494 -23.475,-22.494l-58.661,0Zm13.425,16.264c-0,-0.875 0.437,-1.312 1.42,-1.312l40.429,0c7.43,0 10.162,3.17 10.162,9.728l-0,4.59c-0,6.558 -2.732,9.728 -10.162,9.728l-41.849,0l-0,-22.734Z" style="fill:#fff;fill-rule:nonzero;"/><path d="M668.168,33.465c-22.06,0 -30.573,7.858 -30.573,28.837l-0,18.78c-0,20.978 8.513,28.836 30.573,28.836l48.064,0c1.639,0 2.513,-0.764 2.513,-2.401l-0,-10.368c-0,-1.637 -0.874,-2.401 -2.513,-2.401l-47.737,-0c-11.36,-0 -14.528,-3.389 -14.528,-14.869l-0,-1.858l61.719,-0c1.639,-0 2.403,-0.764 2.403,-2.401l0,-8.621c0,-1.637 -0.764,-2.401 -2.403,-2.401l-61.719,0l-0,-1.093c-0,-11.48 3.168,-14.869 14.528,-14.869l47.737,-0c1.639,-0 2.513,-0.764 2.513,-2.401l-0,-10.369c-0,-1.637 -0.874,-2.401 -2.513,-2.401l-48.064,0Z" style="fill:#fff;fill-rule:nonzero;"/><path d="M733.831,33.465c-1.637,0 -2.51,0.765 -2.51,2.403l-0,71.647c-0,1.639 0.873,2.403 2.51,2.403l11.788,0c1.638,0 2.402,-0.764 2.402,-2.403l-0,-29.057l51.137,-0l-0,29.057c-0,1.639 0.764,2.403 2.401,2.403l11.788,0c1.637,0 2.511,-0.764 2.511,-2.403l-0,-71.647c-0,-1.638 -0.874,-2.403 -2.511,-2.403l-11.788,0c-1.637,0 -2.401,0.765 -2.401,2.403l-0,28.402l-51.137,0l-0,-28.402c-0,-1.638 -0.764,-2.403 -2.402,-2.403l-11.788,0Z" style="fill:#fff;fill-rule:nonzero;"/><path d="M859.993,33.465c-22.063,0 -30.576,7.858 -30.576,28.83l-0,18.794c-0,20.971 8.513,28.829 30.576,28.829l33.762,0c22.172,0 30.576,-7.858 30.576,-28.829l0,-18.794c0,-20.972 -8.404,-28.83 -30.576,-28.83l-33.762,0Zm-13.876,30.032c-0,-11.474 3.277,-14.861 14.532,-14.861l32.451,-0c11.254,-0 14.531,3.387 14.531,14.861l0,16.39c0,11.473 -3.277,14.861 -14.531,14.861l-32.451,-0c-11.255,-0 -14.532,-3.388 -14.532,-14.861l-0,-16.39Z" style="fill:#fff;fill-rule:nonzero;"/><path d="M941.165,33.465c-2.183,0 -3.275,1.091 -3.275,3.274l0,70.776c0,1.639 0.874,2.403 2.511,2.403l11.788,0c1.637,0 2.401,-0.764 2.401,-2.403l0,-20.974l45.236,0c16.708,0 23.475,-7.748 23.475,-22.494l-0,-8.088c-0,-14.745 -6.767,-22.494 -23.475,-22.494l-58.661,0Zm13.425,16.373c0,-0.984 0.437,-1.312 1.421,-1.312l40.428,0c7.43,0 10.162,3.17 10.162,9.728l0,4.154c0,6.558 -2.732,9.727 -10.162,9.727l-41.849,0l0,-22.297Z" style="fill:#fff;fill-rule:nonzero;"/><path d="M1052.14,33.465c-13.21,0 -19.323,7.203 -19.323,17.795l0,7.981c0,12.014 6.549,18.78 19.104,18.78l40.976,-0c3.824,-0 5.682,2.077 5.682,6.122l-0,4.482c-0,3.827 -1.639,6.123 -5.792,6.123l-57.35,-0c-1.637,-0 -2.511,0.764 -2.511,2.401l0,10.368c0,1.637 0.874,2.401 2.511,2.401l60.519,0c13.21,0 19.323,-7.203 19.323,-17.794l-0,-8.746c-0,-12.014 -6.549,-18.78 -19.104,-18.78l-40.976,0c-3.824,0 -5.682,-2.077 -5.682,-6.123l0,-3.717c0,-3.826 1.639,-6.122 5.791,-6.122l54.731,-0c1.638,-0 2.402,-0.764 2.402,-2.401l-0,-10.369c-0,-1.637 -0.764,-2.401 -2.402,-2.401l-57.899,0Z" style="fill:#fff;fill-rule:nonzero;"/></g><g><path d="M460.09,138.466c-6.238,0 -8.645,2.222 -8.645,8.154l-0,5.311c-0,5.932 2.407,8.154 8.645,8.154l13.591,-0c0.463,-0 0.71,-0.216 0.71,-0.679l0,-2.932c0,-0.463 -0.247,-0.679 -0.71,-0.679l-13.498,-0c-3.213,-0 -4.109,-0.958 -4.109,-4.204l0,-0.526l17.452,0c0.464,0 0.68,-0.216 0.68,-0.679l0,-2.438c0,-0.462 -0.216,-0.678 -0.68,-0.678l-17.452,-0l0,-0.31c0,-3.246 0.896,-4.204 4.109,-4.204l13.498,-0c0.463,-0 0.71,-0.216 0.71,-0.679l0,-2.932c0,-0.463 -0.247,-0.679 -0.71,-0.679l-13.591,0Z" style="fill:#fff;fill-rule:nonzero;"/><path d="M483.042,138.466c-0.525,0 -0.618,0.309 -0.401,0.711l10.255,18.56c1.05,1.884 1.946,2.348 3.552,2.348l1.791,-0c1.298,-0 2.224,-0.464 3.244,-2.348l10.131,-18.56c0.217,-0.402 0.124,-0.711 -0.37,-0.711l-4.047,0c-0.37,0 -0.556,0.093 -0.71,0.402l-8.927,16.615c-0.093,0.185 -0.185,0.216 -0.34,0.216l-0.154,0c-0.186,0 -0.278,-0.031 -0.371,-0.216l-9.05,-16.615c-0.155,-0.278 -0.309,-0.402 -0.711,-0.402l-3.892,0Z" style="fill:#fff;fill-rule:nonzero;"/><path d="M527.582,138.466c-6.238,0 -8.645,2.222 -8.645,8.154l-0,5.311c-0,5.932 2.407,8.154 8.645,8.154l13.591,-0c0.463,-0 0.71,-0.216 0.71,-0.679l0,-2.932c0,-0.463 -0.247,-0.679 -0.71,-0.679l-13.498,-0c-3.213,-0 -4.109,-0.958 -4.109,-4.204l0,-0.526l17.453,0c0.463,0 0.679,-0.216 0.679,-0.679l0,-2.438c0,-0.462 -0.216,-0.678 -0.679,-0.678l-17.453,-0l0,-0.31c0,-3.246 0.896,-4.204 4.109,-4.204l13.498,-0c0.463,-0 0.71,-0.216 0.71,-0.679l0,-2.932c0,-0.463 -0.247,-0.679 -0.71,-0.679l-13.591,0Z" style="fill:#fff;fill-rule:nonzero;"/><path d="M552.543,138.466c-0.617,0 -0.926,0.309 -0.926,0.926l0,20.013c0,0.463 0.247,0.68 0.71,0.68l3.333,-0c0.463,-0 0.679,-0.217 0.679,-0.68l0,-6.147l9.98,0l4.882,6.425c0.185,0.278 0.339,0.402 0.864,0.402l3.981,-0c0.556,-0 0.587,-0.556 0.402,-0.773l-5.278,-6.548c3.24,-0.586 4.598,-2.653 4.598,-6.176l0,-1.761c0,-4.17 -1.913,-6.361 -6.637,-6.361l-16.588,0Zm3.796,4.599c0,-0.247 0.124,-0.371 0.402,-0.371l11.432,0c2.101,0 2.873,0.896 2.873,2.751l0,1.298c0,1.854 -0.772,2.751 -2.873,2.751l-11.834,-0l0,-6.429Z" style="fill:#fff;fill-rule:nonzero;"/><path d="M582.722,138.466c-0.37,0 -0.494,0.34 -0.278,0.618l10.966,14.392l-0,5.929c-0,0.463 0.247,0.68 0.71,0.68l3.333,-0c0.463,-0 0.679,-0.217 0.679,-0.68l-0,-5.929l11.089,-14.392c0.216,-0.278 0.062,-0.618 -0.278,-0.618l-4.046,0c-0.371,0 -0.556,0.093 -0.742,0.371l-8.307,11.149l-8.245,-11.149c-0.186,-0.278 -0.371,-0.371 -0.742,-0.371l-4.139,0Z" style="fill:#fff;fill-rule:nonzero;"/><path d="M635.325,138.466c-0.617,0 -0.926,0.309 -0.926,0.926l0,19.767c0,0.617 0.309,0.926 0.926,0.926l18.349,-0c4.105,-0 5.463,-2.068 5.463,-5.341l0,-1.793c0,-1.824 -0.679,-3.151 -2.129,-3.984c1.296,-0.864 1.975,-2.161 1.975,-3.923l0,-1.484c0,-3.427 -1.605,-5.094 -5.866,-5.094l-17.792,0Zm16.464,12.352c2.039,-0 2.688,0.68 2.688,1.947l-0,1.175c-0,1.298 -0.649,1.886 -2.286,1.886l-12.668,-0c-0.278,-0 -0.402,-0.124 -0.402,-0.402l0,-4.606l12.668,-0Zm-12.668,-7.691c0,-0.278 0.124,-0.402 0.402,-0.402l12.637,0c1.606,0 2.286,0.587 2.286,1.855l-0,1.051c-0,1.206 -0.618,1.824 -2.657,1.824l-12.668,-0l0,-4.328Z" style="fill:#fff;fill-rule:nonzero;"/><path d="M666.709,138.466c-0.371,0 -0.494,0.34 -0.278,0.618l10.965,14.392l0,5.929c0,0.463 0.247,0.68 0.71,0.68l3.334,-0c0.463,-0 0.679,-0.217 0.679,-0.68l-0,-5.929l11.089,-14.392c0.216,-0.278 0.061,-0.618 -0.278,-0.618l-4.047,0c-0.37,0 -0.556,0.093 -0.741,0.371l-8.307,11.149l-8.246,-11.149c-0.185,-0.278 -0.37,-0.371 -0.741,-0.371l-4.139,0Z" style="fill:#fff;fill-rule:nonzero;"/><path d="M701.243,138.466c-0.464,0 -0.711,0.216 -0.711,0.679l0,3.025c0,0.463 0.247,0.709 0.711,0.709l9.699,0l-0,16.526c-0,0.463 0.216,0.68 0.679,0.68l3.364,-0c0.463,-0 0.679,-0.217 0.679,-0.68l-0,-16.526l9.699,0c0.463,0 0.71,-0.246 0.71,-0.709l0,-3.025c0,-0.463 -0.247,-0.679 -0.71,-0.679l-24.12,0Z" style="fill:#fff;fill-rule:nonzero;"/><path d="M742.784,138.466c-6.237,0 -8.645,2.222 -8.645,8.154l0,5.311c0,5.932 2.408,8.154 8.645,8.154l13.591,-0c0.464,-0 0.711,-0.216 0.711,-0.679l-0,-2.932c-0,-0.463 -0.247,-0.679 -0.711,-0.679l-13.498,-0c-3.213,-0 -4.108,-0.958 -4.108,-4.204l-0,-0.526l17.452,0c0.463,0 0.679,-0.216 0.679,-0.679l0,-2.438c0,-0.462 -0.216,-0.678 -0.679,-0.678l-17.452,-0l-0,-0.31c-0,-3.246 0.895,-4.204 4.108,-4.204l13.498,-0c0.464,-0 0.711,-0.216 0.711,-0.679l-0,-2.932c-0,-0.463 -0.247,-0.679 -0.711,-0.679l-13.591,0Z" style="fill:#fff;fill-rule:nonzero;"/><path d="M784.055,138.466c-0.463,0 -0.71,0.216 -0.71,0.68l0,20.259c0,0.463 0.247,0.68 0.71,0.68l3.333,-0c0.463,-0 0.679,-0.217 0.679,-0.68l0,-8.216l14.46,-0l0,8.216c0,0.463 0.216,0.68 0.679,0.68l3.333,-0c0.463,-0 0.71,-0.217 0.71,-0.68l0,-20.259c0,-0.464 -0.247,-0.68 -0.71,-0.68l-3.333,0c-0.463,0 -0.679,0.216 -0.679,0.68l0,8.031l-14.46,-0l0,-8.031c0,-0.464 -0.216,-0.68 -0.679,-0.68l-3.333,0Z" style="fill:#fff;fill-rule:nonzero;"/><path d="M829.398,138.466c-1.297,0 -2.224,0.494 -3.243,2.348l-10.131,18.56c-0.217,0.402 -0.124,0.711 0.401,0.711l4.016,-0c0.37,-0 0.556,-0.093 0.71,-0.402l2.131,-3.985l14.518,0l2.193,3.985c0.155,0.309 0.309,0.402 0.711,0.402l3.923,-0c0.494,-0 0.586,-0.309 0.37,-0.711l-10.224,-18.56c-1.019,-1.854 -1.977,-2.348 -3.552,-2.348l-1.823,0Zm0.68,4.603c0.093,-0.155 0.185,-0.217 0.34,-0.217l0.185,0c0.155,0 0.247,0.062 0.34,0.217l4.911,9.05l-10.626,0l4.85,-9.05Z" style="fill:#fff;fill-rule:nonzero;"/><path d="M858.895,138.466c-3.735,0 -5.463,2.037 -5.463,5.032l-0,2.257c-0,3.397 1.852,5.31 5.402,5.31l11.586,0c1.082,0 1.607,0.587 1.607,1.731l-0,1.268c-0,1.082 -0.464,1.731 -1.638,1.731l-16.216,-0c-0.463,-0 -0.71,0.216 -0.71,0.679l-0,2.932c-0,0.463 0.247,0.679 0.71,0.679l17.112,-0c3.736,-0 5.464,-2.037 5.464,-5.032l0,-2.473c0,-3.397 -1.852,-5.31 -5.402,-5.31l-11.586,-0c-1.082,-0 -1.607,-0.588 -1.607,-1.732l-0,-1.051c-0,-1.082 0.463,-1.731 1.638,-1.731l15.476,-0c0.462,-0 0.679,-0.216 0.679,-0.679l-0,-2.932c-0,-0.463 -0.217,-0.679 -0.679,-0.679l-16.373,0Z" style="fill:#fff;fill-rule:nonzero;"/><path d="M914.868,138.466c-1.298,0 -2.224,0.494 -3.244,2.348l-10.131,18.56c-0.216,0.402 -0.124,0.711 0.401,0.711l4.016,-0c0.371,-0 0.556,-0.093 0.71,-0.402l2.132,-3.985l14.517,0l2.194,3.985c0.154,0.309 0.308,0.402 0.71,0.402l3.923,-0c0.494,-0 0.587,-0.309 0.371,-0.711l-10.225,-18.56c-1.019,-1.854 -1.976,-2.348 -3.552,-2.348l-1.822,0Zm0.679,4.603c0.093,-0.155 0.186,-0.217 0.34,-0.217l0.185,0c0.155,0 0.248,0.062 0.34,0.217l4.911,9.05l-10.625,0l4.849,-9.05Z" style="fill:#fff;fill-rule:nonzero;"/><path d="M960.89,138.466c-3.735,0 -5.463,2.037 -5.463,5.032l-0,2.257c-0,3.397 1.851,5.31 5.402,5.31l11.586,0c1.081,0 1.607,0.587 1.607,1.731l-0,1.268c-0,1.082 -0.464,1.731 -1.638,1.731l-16.217,-0c-0.463,-0 -0.709,0.216 -0.709,0.679l-0,2.932c-0,0.463 0.246,0.679 0.709,0.679l17.113,-0c3.735,-0 5.464,-2.037 5.464,-5.032l-0,-2.473c-0,-3.397 -1.852,-5.31 -5.402,-5.31l-11.587,-0c-1.081,-0 -1.606,-0.588 -1.606,-1.732l-0,-1.051c-0,-1.082 0.463,-1.731 1.637,-1.731l15.476,-0c0.463,-0 0.679,-0.216 0.679,-0.679l0,-2.932c0,-0.463 -0.216,-0.679 -0.679,-0.679l-16.372,0Z" style="fill:#fff;fill-rule:nonzero;"/><path d="M987.829,138.466c-0.463,0 -0.71,0.216 -0.71,0.679l-0,3.025c-0,0.463 0.247,0.709 0.71,0.709l9.699,0l0,16.526c0,0.463 0.216,0.68 0.679,0.68l3.364,-0c0.463,-0 0.679,-0.217 0.679,-0.68l0,-16.526l9.699,0c0.464,0 0.711,-0.246 0.711,-0.709l-0,-3.025c-0,-0.463 -0.247,-0.679 -0.711,-0.679l-24.12,0Z" style="fill:#fff;fill-rule:nonzero;"/><path d="M1029.37,138.466c-6.239,0 -8.646,2.222 -8.646,8.152l-0,5.315c-0,5.93 2.407,8.152 8.646,8.152l9.546,-0c6.27,-0 8.646,-2.222 8.646,-8.152l0,-5.315c0,-5.93 -2.376,-8.152 -8.646,-8.152l-9.546,0Zm-3.924,8.492c-0,-3.244 0.927,-4.202 4.109,-4.202l9.176,-0c3.182,-0 4.109,0.958 4.109,4.202l0,4.635c0,3.244 -0.927,4.202 -4.109,4.202l-9.176,-0c-3.182,-0 -4.109,-0.958 -4.109,-4.202l-0,-4.635Z" style="fill:#fff;fill-rule:nonzero;"/><path d="M1058.5,138.466c-0.617,0 -0.926,0.309 -0.926,0.926l-0,20.013c-0,0.463 0.247,0.68 0.71,0.68l3.333,-0c0.463,-0 0.679,-0.217 0.679,-0.68l0,-6.147l9.98,0l4.881,6.425c0.186,0.278 0.34,0.402 0.865,0.402l3.981,-0c0.556,-0 0.587,-0.556 0.402,-0.773l-5.279,-6.548c3.241,-0.586 4.599,-2.653 4.599,-6.176l0,-1.761c0,-4.17 -1.913,-6.361 -6.638,-6.361l-16.587,0Zm3.796,4.599c0,-0.247 0.124,-0.371 0.402,-0.371l11.432,0c2.101,0 2.873,0.896 2.873,2.751l0,1.298c0,1.854 -0.772,2.751 -2.873,2.751l-11.834,-0l0,-6.429Z" style="fill:#fff;fill-rule:nonzero;"/><path d="M1088.68,138.466c-0.371,0 -0.494,0.34 -0.278,0.618l10.966,14.392l-0,5.929c-0,0.463 0.246,0.68 0.709,0.68l3.334,-0c0.463,-0 0.679,-0.217 0.679,-0.68l-0,-5.929l11.089,-14.392c0.216,-0.278 0.062,-0.618 -0.278,-0.618l-4.047,0c-0.37,0 -0.556,0.093 -0.741,0.371l-8.307,11.149l-8.246,-11.149c-0.185,-0.278 -0.37,-0.371 -0.741,-0.371l-4.139,0Z" style="fill:#fff;fill-rule:nonzero;"/></g><path d="M155.733,151.011l253.845,0c0.958,0 1.736,-0.778 1.736,-1.736c0,-0.958 -0.778,-1.736 -1.736,-1.736l-253.845,0c-0.958,0 -1.736,0.778 -1.736,1.736c0,0.958 0.778,1.736 1.736,1.736Z" style="fill:#fff;"/><g><path d="M45.822,4.562c2.921,-2.921 6.883,-4.562 11.014,-4.562c4.13,0 8.092,1.641 11.013,4.562c11.577,11.577 29.683,29.683 41.26,41.26c2.921,2.921 4.562,6.883 4.562,11.014c0,4.13 -1.641,8.092 -4.562,11.013c-5.114,5.114 -10.082,10.082 -10.082,10.082c-0,0 -25.125,-25.125 -36.598,-36.598c-1.483,-1.483 -3.495,-2.317 -5.593,-2.317c-2.098,0 -4.111,0.834 -5.594,2.317c-3.063,3.063 -6.846,6.846 -9.909,9.909c-1.483,1.483 -2.317,3.496 -2.317,5.594c0,2.098 0.834,4.11 2.317,5.593c6.25,6.25 15.503,15.502 15.503,15.502l-21.096,21.096c-0,-0 -18.677,-18.677 -31.178,-31.178c-6.083,-6.083 -6.083,-15.944 -0,-22.027c11.577,-11.577 29.683,-29.683 41.26,-41.26Z" style="fill:#fff;"/><path d="M67.849,193.492c-2.921,2.921 -6.883,4.562 -11.013,4.562c-4.131,-0 -8.093,-1.641 -11.014,-4.562c-11.577,-11.577 -29.683,-29.684 -41.26,-41.26c-2.921,-2.921 -4.562,-6.883 -4.562,-11.014c-0,-4.131 1.641,-8.092 4.562,-11.013c5.114,-5.114 10.082,-10.082 10.082,-10.082c0,-0 25.125,25.125 36.598,36.597c1.483,1.484 3.496,2.317 5.594,2.317c2.098,0 4.11,-0.833 5.593,-2.317c3.063,-3.062 6.846,-6.846 9.909,-9.908c1.483,-1.484 2.317,-3.496 2.317,-5.594c-0,-2.098 -0.834,-4.11 -2.317,-5.593c-6.25,-6.25 -15.502,-15.502 -15.502,-15.502l21.095,-21.096c0,-0 18.677,18.677 31.178,31.178c6.083,6.082 6.083,15.944 0,22.027c-11.577,11.576 -29.683,29.683 -41.26,41.26Z" style="fill:#fff;"/></g></g></svg>